<?xml version="1.0" encoding="UTF-8"?><svg id="Layer_1" xmlns="http://www.w3.org/2000/svg" viewBox="0 0 263.17 72.47" preserveAspectRatio="none"><defs><style>.cls-1{fill:#f3f87a;}.cls-2{fill:#f3f878;}.cls-3{fill:#f6faa2;}.cls-4{fill:#f2f768;}.cls-5{fill:#f2f770;}.cls-6{fill:#f2f772;}.cls-7{fill:#f0f657;}.cls-8{fill:#f4f885;}.cls-9{fill:#f4f880;}.cls-10{fill:#f1f65c;}.cls-11{fill:#f1f762;}.cls-12{fill:#f1f763;}</style></defs><path class="cls-7" d="M255.44,11.18c.33,.69,.66,1.39,.98,2.08,.04,2.74-1.47,3.92-3.91,4.2-23.22-.1-46.37,2.56-69.56,3.47-16.2,.03-32.47,1.26-48.53-1.65-5.49-1-11.11-.73-16.54-.28-7.72,.64-15.41,.27-23.09,.52-13.52,.45-27.12,1.88-40.6-.41-4.02-.68-8.03,.24-12.04,.55-2.34,.18-4.71,.59-6.76-1.04-.82-1.22-.62-2.38,.26-3.5h0c1.43-1.26,3.1-1.41,4.84-1.22,1.81-.67,3.79,.14,5.57-.79,.99,0,1.99,.02,2.98,.03,4.75-.43,9.44,1.15,14.21,.2,1.33,0,2.66,0,3.99,.01,2.04-.43,4.14,.51,6.15-.43,1.33,.02,2.66,.04,3.99,.06,2.04-.38,4.13,.46,6.16-.32,3,.08,6.01,.16,9.01,.24,4.46,.18,8.87-.43,13.29-.96,1.33,.04,2.67,.08,4,.13,4.74-.63,9.44,1.31,14.19-.03,1.33,.03,2.66,.06,3.98,.09,2.68-.05,5.34,.12,7.98,.54,4.64,.54,9.28,1.09,13.92,1.63,5.45-1.43,11.02-.52,16.43-.43,12.21,.21,24.3-1.02,36.44-1.74,11.66-.69,23.33-1.1,34.97-2.22,4.35-.42,8.69-.68,13.03-.14,1.64,.2,3.41-.04,4.66,1.43Z"/><path class="cls-12" d="M9.55,62.76c-.97-.1-1.93-.21-2.9-.31-4.28-4.29-2.79-8.77,3.68-11.15,1.9,.19,3.72,.84,5.64,.92,1.99,.09,3.95,.29,5.88,.78,3.94,1.01,7.94,1.18,12.01,.96,6.88-.38,13.75-.89,20.66-.38,4.14,.3,8.43,.49,12.08-2.54,1.5-1.24,3.22-1.11,4.73-.14,3.17,2.03,6.6,1.88,10.2,1.81,5.85-.11,11.77-.35,17.43,1.67,1.92,4.94,.48,7.39-5.48,9.29-.78,.19-1.57,.23-2.36,.2-1.6-.19-3.02,.92-4.62,.79-16.71-.95-33.43,.57-50.13,.45-8.99-.07-18.05,.15-26.82-2.34Z"/><path class="cls-3" d="M90.6,62.92c.66,.05,1.32,.09,1.98,.14,5-.08,9.99-.16,14.96,.53,9.92,.43,19.88-.33,29.76,.74,8.51-.82,17.03-.72,25.54-.65,16.11,.13,32.01-2.66,47.99-4.14,4.86,.32,8.8-1.61,11.97-5.44,1.42-2.07,3.14-3.9,4.61-5.92,.51-.75,1.01-1.51,1.55-2.24,.28-.37,.59-.7,.92-1.03,2.85-2.84,4.72-6.16,4.92-10.32,1.06-2.14,3.83-1.54,5.04-3.45,.44-.52,1.16-.96,1.29-1.55,1.52-6.89,7.87-9.06,12.06-13.33,1.08-1,2.17-2.01,3.25-3.01,2.3,.56,2.02,1.86,.86,3.4-2.07,2.76-4.13,5.52-6.21,8.26-7.91,10.41-15.93,20.75-23.71,31.26-3.91,5.28-8.69,7.44-15.1,7.66-8.47,.29-16.92,1.72-25.38,2.63-3.64,.39-7.29,.87-10.95,.99-11.51,.38-23.04,.97-34.54,.81-13.91-.2-27.8-1.12-41.7-1.67-11.55-.46-23.12-1.51-34.66-1.09-17.09,.63-34.14,1.2-51.14-.56-1.62-.17-3.98,.77-4.36-2.18,2.68,.14,5.36,.21,8.02,.43,10.8,.89,21.6,.65,32.46,.26,12.81-.46,25.64,.12,38.46,.25,.61-.53,1.29-.87,2.11-.78Z"/><path class="cls-3" d="M255.44,11.18c-9.68-1.58-19.32-.16-28.99,.78-6.48,.63-13,.67-19.5,1.07-4.49,.27-8.97,.72-13.46,1.05-5.32,.39-10.66,1.06-15.98,1.03-9.2-.05-18.4-.53-27.6-.83,.63-2.17,2.31-1.57,3.76-1.57,10.8,.01,21.59,.17,32.39-.03,5.14-.09,10.28-.91,15.43-1.31,4.32-.34,8.64-.56,12.96-.85,8.98-.59,17.95-1.3,26.93-1.73,4.16-.2,8.34,.07,12.5,.34,.57,.04,1.04,1.34,1.56,2.05Z"/><path class="cls-3" d="M10.44,52.19c-4.89,2.24-6.01,5.29-3.79,10.27-.97-.02-2.54,.34-2.79-.11-.93-1.67-2.68-3.4-1.09-5.62,2.59-3.62,5.21-7.22,7.92-10.75,7.51-9.78,15.06-19.53,22.65-29.25,.56-.71,1.53-1.08,2.31-1.61-.06,1.05-.13,2.1-.19,3.15,.44,5.44-4.16,8.14-6.29,12.18-1.61,2.02-4.06,3.12-5.48,5.34-2.12,2.45-3.69,5.32-5.71,7.86-1.29,1.28-2.33,2.78-3.54,4.13-1.58,1.23-2.4,3.2-4,4.41Z"/><path class="cls-8" d="M63.26,13.33c-.29,.41-.61,1.19-.85,1.17-4.46-.4-8.91-.89-13.36-1.37,1.67-.27,3.35-.8,5-.74,3.08,.13,6.14,.6,9.21,.94Z"/><path class="cls-8" d="M124.04,12.02c-.41,.49-.86,1.44-1.21,1.41-4.33-.38-8.65-.9-12.97-1.38,1-.32,2.03-.96,3.01-.92,3.73,.18,7.46,.57,11.18,.89Z"/><path class="cls-8" d="M105.85,11.92c-.07,.16-.09,.4-.21,.46-2.46,1.35-10.19,1.63-13.09,.5,4.43-.32,8.86-.64,13.29-.96Z"/><path class="cls-8" d="M136,12.64c-2.66-.18-5.32-.36-7.98-.54,2.79-1.43,5.45-1.29,7.98,.54Z"/><path class="cls-8" d="M83.55,12.64c-1.97,2.53-4.07,1.4-6.16,.32,1.99-1.94,4.08-.84,6.16-.32Z"/><path class="cls-8" d="M73.4,12.9c-1.92,2.76-4.05,1.44-6.15,.43,2.05-.14,4.1-.29,6.15-.43Z"/><path class="cls-8" d="M46.06,13.1c-1.2,2.94-3.51,.93-5.27,1.35-.34-.25-.43-.49-.29-.71,.14-.21,.27-.32,.39-.31,1.73-.11,3.45-.22,5.18-.33Z"/><path class="cls-3" d="M40.89,13.43c-.04,.34-.07,.68-.09,1.01-1.71,.22-3.43,.45-5.14,.67,.95-3.35,3.43-1.35,5.23-1.68Z"/><path class="cls-8" d="M28.39,30.32c.39-.94,.68-1.95,1.2-2.8,1.91-3.11,3.91-6.17,5.87-9.26,3.99-.22,7.97-.49,11.96-.64,2.83-.1,5.79-.56,8.47,.07,6.99,1.64,13.96,1.14,20.98,.4,1.49-.16,3.02,.13,4.53,.12,4.16-.03,8.33-.13,12.49-.16,5.17-.04,10.34-.04,15.51-.05,.84,0,1.71,.24,2.51,.07,7.23-1.55,14.47-.84,21.68-.47,5.11,.26,10.16,1.28,15.27,1.6,5.3,.34,10.62,.22,15.94,.35,1.75,.04,3.48,.24,5.23,.35,2.01,.12,4.02,.33,6.03,.31,2.32-.02,4.64-.25,6.96-.39,2.1,.39,3.53,1.36,3.09,3.92-.64,1.09-1.68,1.45-2.8,1.64-4.13,.63-8.23,1.54-12.43,1.42-1.17-.03-2.54-.15-3.37,.71-5.37,5.59-12.04,4.08-18.42,4.05-3.16-.02-6.31-.53-9.48-.47-3.32,.07-6.25,1.01-8.04,4.28-2.13,1.36-4.43,1.3-6.76,.94-1.75-1.17-3.76-1.3-5.76-1.54-1.68-.2-3.6-.45-4.36-2.14-1.73-3.85-4.86-3.67-8.13-3.34-1.34,.14-2.69,.28-4.03,.17-14.72-1.23-29.42,1.2-44.13,1.13-2.42-.01-4.38,.95-6.55,2.16-6.72,3.73-13.97,3.31-21.13,1.92-2.03-.39-3.02-2.05-2.33-4.37Z"/><path class="cls-1" d="M185.79,23.17c-.92-1.11-1.85-2.22-2.77-3.34,3.04-.44,6.07-1.07,9.12-1.29,4.13-.3,8.29-.2,12.43-.43,7.26-.4,14.52-.96,21.78-1.37,8.94-.51,17.89-2.19,26.83-.48-2.33,3.6-4.38,7.54-9.66,8.21,1.81,3.56-.94,5.39-2.77,7.63-3.96,1.5-6.94,1.45-8.57-3.63-1.28-3.99-9.51-6.08-13.79-3-5.58,4.02-11.72,3.85-17.79,4.77-2.65-.14-5.18-.92-7.79-1.31-.98-.31-1.82-.85-2.52-1.62-1.02-1.93-3.12-2.62-4.5-4.15Z"/><path class="cls-2" d="M28.39,30.32c.61,2.13,1.53,3.7,4.14,3.51,5.12-.37,10.25-.65,15.38-.75,2.58-.05,3.99-1.16,4.17-4.07,9.56-.13,18.83-.23,28.1-.4,2.98-.06,5.99-.13,8.93-.61,1.14-.18,2.13-1.5,3.35-2.42,3.97,3.17,8.88,2.37,13.63,2.33,1.31-.01,2.64-.42,3.95-.39,4.73,.14,4.73,.18,5.88,5.61,1.63,.11,3.49-.03,5.19,.43,1.43,.39,2.67,1.49,3.99,2.28,.28,.55,.19,1.02-.28,1.42-1.55,.95-3.25,.72-4.92,.68-10.52-.28-21.04,1.1-31.63,.66,1.46,.77,3.02,1.87,4.47,1.5,6.25-1.58,11.75,.4,17.31,2.8,7.97,3.44,15.07-.35,22.16-3.67,.49-.15,.98-.18,1.48-.1,1.28,.54,2.06,1.72,3.08,2.59,4.74,4.05,10.45,3.74,16.13-.85,1.06-.86,1.64-2.27,3.03-2.75,14.04-.76,28.09-.96,42.13-1.89,2.22-.15,4.79-.19,6.49,3.22-4.53,4.18-10.12,5.47-15.88,6.16-2.49,.3-5.21,.38-7.47-.59-5.64-2.42-10.79-1.06-15.93,1.57-3.1,.79-6.24,1.08-9.43,1.2-4.53,.18-8.85,.84-12.54,4.36-2.85,2.71-6.18,2.02-8.78-.97-2.85-3.28-7.44-4.78-10.54-2.07-4.24,3.7-9.67,4.47-13.98,7.69-2.24,.41-4.42,.37-6.43-.83-1.2-1.38-1.18-2.67-.1-3.51-3.25-4.42-7.39-7.21-13.19-4.75-10.62-4.18-21.64,.25-32.42-.96-2.59-.29-5.34,.17-8.03,.2-3.72,.03-7.27,.56-10.46,3.1-2.44,1.95-5.44,2.71-8.58,2.46-3.2-.26-6.37-.13-9.33,1.51-2.01-.14-4.03-.28-6.04-.41-.79-2.05-1.22-4.21-1.52-6.39,1.11-1.33,2.22-2.66,3.33-3.98,.15-.08,.32-.25,.45-.22,14.66,2.96,28.82-3.13,43.31-3.39,3.95-.07,7.92,1.6,12.22-.17-1.41-1.51-2.89-1.1-4.25-.89-6.85,1.07-13.63,1.06-20.51,.08-6.45-.91-12.98-1.45-19.56-1-2.31,.16-4.83,.55-5.98-2.4,1.81-1.64,3.63-3.28,5.44-4.93Z"/><path class="cls-5" d="M21.48,54.03c.2-1.32-.05-2.93,1.98-2.99,2.31-.07,4.76-.73,6.88-.15,3.87,1.06,6.76-.43,9.33-2.96,2.94-2.9,6.6-2.15,9.92-2.39,9.6-.67,19.22-1.1,28.83-1.14,4.19-.02,8.81-.96,11.89,2.24,3.58-.83,6.74-1.56,10.2-2.36,.27,2.1,.45,3.59,.67,5.28,2.02,.83,4.1,1.68,6.17,2.53-.03,.28-.06,.56-.09,.84-1.11,.05-2.21,.11-3.63,.17-.08,.61-.19,1.43-.3,2.25-1.44,1.18-2.77,.86-4.03-.27-7.18-.14-14.38,0-21.52-.55-3.14-.24-6.14-1.92-9.62-3.08-1.51,4.97-6.48,3.59-10.11,3.77-10.65,.52-21.34,.22-32,.1-1.53-.02-3.04-.84-4.56-1.29Z"/><path class="cls-4" d="M99.29,55.08c1.34,.09,2.69,.18,4.03,.27,2.35,.16,4.7,.32,7.04,.48,.33,.39,.49,.85,.51,1.37-.88,2.91-1.88,5.75-4.27,7.8-3.68-.25-7.37-.42-11.05-.78-1.03-.1-1.99-.75-2.99-1.15,3.72-1.33,6.99-3.06,6.72-7.98Z"/><path class="cls-5" d="M13.92,47.22c2.07,1.71,3,3.73,1.52,6.39-1.67-.48-3.33-.95-5-1.43,0-2.52,1.34-4.03,3.48-4.96Z"/><path class="cls-4" d="M90.6,62.92c-.7,.26-1.41,.52-2.11,.78,.34-1.35,.64-2.81,2.11-.78Z"/><path class="cls-6" d="M125.01,36.9c.03-.35,.06-.7,.09-1.05,2.04-.21,4.08-.42,6.12-.63,2.37-3.13,5.57-2.77,8.76-2.31,8.47,1.22,16.65,1.77,25.28-1.26,4.03-1.41,8.82-1.92,13.21-3.17,3.99-.95,8.04-1.49,12.11-1.83,.64,.39,1.29,.78,1.93,1.18,2.54,1.08,4.91,3.06,7.97,1.58,2.88-.51,5.75-1.11,8.64-1.49,2.48-.33,4.67-.67,6.68-2.79,2.8-2.95,6.73-2.89,10.34-2.19,2.56,.5,4.97,1.79,7.66,2.81,.06,1.72,.13,3.4,.22,5.91,2.2,.15,4.46,.3,6.72,.45-1.76,.93-3.53,1.87-5.29,2.8-3.34,1.39-7.83-.74-10.14,3.46-.31,3.79,7.13,2.52,4.23,7.69h0c-.69,.49-1.12,1.13-1.14,2.01-1.5,2-3.01,4-4.51,6-3.73,.79-6.18-.65-5.86-4.68,.38-4.71-2.13-5.24-5.51-4.89-7.52,.78-15,1.9-22.33,3.87-3.51,.94-6.89,1.31-10.38,.22-4.84-1.51-10.01,.39-14.86-1.22-.48-.45-.54-.96-.16-1.52,2.85-1.4,5.61-3.15,8.6-4.05,1.5-.46,3.48,.42,5.13,1.02,8.91,3.25,17.01,.72,25.96-4.13-1.92-.46-2.81-.9-3.7-.86-7.44,.32-14.88,.75-22.32,1.08-2.43,.11-4.87,.03-7.3,.03-5.31,0-10.63-.02-15.94-.03-2.09,1.64-4.47,1.24-6.78,1.09-4.83-.31-9.66-.71-14.52-.44l-.5-.03-.5-.03c-3.13,.66-6.25,1.29-7.89-2.63Z"/><path class="cls-10" d="M212.17,60.61c-4.91,.7-9.82,1.47-14.74,2.09-10.56,1.33-21.11,2.51-31.77,2.21-8.12-.23-16.26,.17-24.4,.37-1.13,.03-2.26,.5-3.39,.77-2.07-4.32-.56-7.25,3.47-9.19,3.45-1.14,7.19-.15,10.47-1.06,11.32-3.16,22.68-.59,33.99-1.58,2.04-.18,3.98-.43,5.75-1.68,7.38-5.19,15.12-3.92,22.74-1.32,3.88,1.32,4.15,4.92,.96,7.61-.93,.78-2.2,.92-3.09,1.78Z"/><path class="cls-4" d="M212.17,60.61c.99-1.06,1.95-2.15,2.98-3.17,2.16-2.16,1.89-4.15-.79-5.01-5.94-1.91-12.02-2.35-18.18-1.19-1.06,.2-2.33,.89-2.93,1.77-1.84,2.72-4.29,2.85-7.1,2.75-3.3-.12-6.62,.19-9.93,.32-5.93,.24-11.63-1.74-17.89,.53-5.13,1.86-11.14,.98-16.76,1.32-.35-.43-.59-.93-.7-1.49,.19-4.03,3.1-4.58,5.97-4.65,6.34-.14,12.53-.65,17.86-4.88,4.14-.07,8.27-.15,12.41-.21,.5,0,1.07-.08,1.49,.12,5.79,2.75,11.29-.33,16.9-1.15,6.7-.97,13.41-1.88,20.14-2.6,1.48-.16,3.04,.6,4.61,.95-.54,2.95-.97,5.27-1.42,7.74,1.84,.83,3.45,1.57,5.07,2.31-2.59,4.76-6.38,7.16-11.71,6.53Z"/><path class="cls-11" d="M141.65,56.89l-.08,1.04c-3.94,1.43-3.37,4.98-3.68,8.12-.66-.03-1.33-.07-1.99-.09-9.76-.32-19.52-.65-29.29-.97,1.23-2.71,2.45-5.42,3.68-8.12,1.57-1.07,3.19-1.7,5.14-1.77,8.2-.31,16.32,.71,24.49,.84,.68,.01,1.23,.48,1.73,.95Z"/><path class="cls-1" d="M229.54,46.07c.09-1.58,.31-3.14-1.94-3.36-.93-.09-1.88-.63-2.7-1.17-2.45-1.63-2.59-3.54-.14-5.21,3.29-2.23,6.86-3.47,10.69-1.42,.11,1.5,.23,3,.37,4.96-1.92,1.89-4.1,4.04-6.29,6.19Z"/><path class="cls-1" d="M228.4,48.08c-1.81-1.98-.17-1.9,1.14-2.01-.38,.67-.76,1.34-1.14,2.01Z"/><path class="cls-8" d="M22.94,35.25c1.41,.43,2.85,1.35,4.21,1.23,8.88-.84,17.54,.08,26.27,1.61,4.42,.78,9.29,.04,13.79-.91,3.68-.77,6.72-.32,10.26,1.65-3.01,2.75-6.28,3.34-9.64,3.01-8.43-.82-16.77-1.43-25.03,1.87-2.73,1.09-5.87,1.67-8.76,1.52-5.62-.3-11.19-1.29-16.79-1.99,1.9-2.66,3.79-5.33,5.69-7.99Z"/><path class="cls-1" d="M179.18,30.06c-1.68,.46-3.65,.49-4.97,1.47-3.56,2.63-3.97,2.81-7.65,.11-3.39,3.05-7.57,4.14-11.75,4-5.46-.19-10.86-1.43-16.33-1.76-2.38-.14-4.85,.86-7.27,1.34-.18-2.86,.96-4.6,3.84-4.98,1.48-.19,2.95-.75,4.41-.71,7.8,.2,15.6,.53,23.65,.83,1.87-5.01,5.41-5.39,9.77-5.06,3.55,.27,7.21-.76,10.82-1.22,.99,1.65-.16,2.53-1.3,3.11-1.35,.69-2.44,1.56-3.22,2.87Z"/><path class="cls-2" d="M179.18,30.06c.07-1.96,.46-3.58,2.77-4.08,.68-.15,1.17-1.24,1.75-1.9,.7-.3,1.4-.6,2.1-.91,2.25,.2,4.9-.18,4.78,3.47-.17,1.87-1.38,1.81-2.81,1.96-2.88,.31-5.73,.95-8.59,1.46Z"/><path class="cls-2" d="M200.47,29.41c-.62,.65-1.42,1.95-1.82,1.83-2.26-.66-5.03-.57-6.15-3.42,2.66,.53,5.31,1.06,7.97,1.58Z"/><path class="cls-5" d="M141.65,56.89c-6.73-.1-13.45-.26-20.18-.29-3.73-.02-7.46,.18-11.18,.28l.08-1.04c.82-1.22,1.64-2.45,2.63-3.94,2.99,1.59,5.71,.71,7.4-1.91,2.03-3.15,4.87-3.32,7.85-3.4,1.99-.05,3.99,.23,6.28,.39,.62,2.97,1.04,6.4,5.28,5.57,.93-.18,2.32-.36,2.66-1.01,2.55-4.91,7.39-4.31,11.43-5.14,3.53-.73,7.25-.39,10.89-.52l-.08,1.04c-2.41,3.32-5,6.05-9.56,5.72-3.24-.23-6.54,.11-9.8,.41-2.12,.2-3.85,1.14-3.69,3.84Z"/><path class="cls-9" d="M125.01,36.9c2.63,.88,5.26,1.75,7.89,2.63-.18,.29-.29,.73-.55,.86-6.48,3.39-12.8,7.33-20.53,4.41-3.01-1.14-6.61-.43-8.97-3.68-.57-.78-2.99-.76-4.23-.24-5.57,2.31-10.1-.34-14.82-2.72,5.62-.41,11.1-2.6,16.81-.99,1.58,.45,3.52,.86,4.96,.32,6.5-2.45,12.96-.72,19.43-.59Z"/><path class="cls-9" d="M133.9,39.59c.27-2.34,1.9-1.96,3.38-1.86,5.97,.4,11.94,.8,17.91,1.21-.16,.85-.04,2.16-.52,2.47-3.49,2.22-7.03,5.19-11.2,4.71-3.93-.45-8.19-1.58-9.58-6.52Z"/></svg>