<?xml version="1.0" standalone="no"?>
<!DOCTYPE svg PUBLIC "-//W3C//DTD SVG 1.1//EN" "http://www.w3.org/Graphics/SVG/1.1/DTD/svg11.dtd" >
<svg xmlns="http://www.w3.org/2000/svg" xmlns:xlink="http://www.w3.org/1999/xlink" version="1.1">
<metadata>
Created by FontForge 20170924 at Mon Jun 13 23:39:27 2016
 By www-data
Copyright Dale Thiessen 2015
"Super Mario Maker Extended" is based on A:u'Super Mario MakerA:u` by A:u'Dale ThiessenA:u` (http://fontstruct.com/fontstructors/gnarizard)
</metadata>
<defs>
<font id="Super-Mario-Maker-Extended" horiz-adv-x="665" >
  <font-face 
    font-family="Super Mario Maker Extended"
    font-weight="400"
    font-stretch="normal"
    units-per-em="1024"
    panose-1="0 0 4 0 0 0 0 0 0 0"
    ascent="768"
    descent="-256"
    x-height="576"
    cap-height="768"
    bbox="-96 -256 1088 864"
    underline-thickness="51"
    underline-position="77"
    unicode-range="U+0020-FB06"
  />
<missing-glyph horiz-adv-x="505" 
d="M384 109v122h-123v-122h123zM506 251v123h-245v-123h245zM384 393v123h-123v-123h123zM506 536v122h-122q-51 0 -87 -36t-36 -86h245zM0 0v768h768v-768h-768z" />
    <glyph glyph-name=".notdef" horiz-adv-x="505" 
d="M384 109v122h-123v-122h123zM506 251v123h-245v-123h245zM384 393v123h-123v-123h123zM506 536v122h-122q-51 0 -87 -36t-36 -86h245zM0 0v768h768v-768h-768z" />
    <glyph glyph-name="glyph1" horiz-adv-x="89" 
 />
    <glyph glyph-name="glyph2" horiz-adv-x="256" 
 />
    <glyph glyph-name="space" unicode=" " horiz-adv-x="281" 
 />
    <glyph glyph-name="exclam" unicode="!" horiz-adv-x="281" 
d="M0 0v128h128v-128h-128zM0 192v576h128v-576h-128z" />
    <glyph glyph-name="quotedbl" unicode="&#x22;" horiz-adv-x="473" 
d="M0 512v256h128v-128l-128 -128v0zM192 512v256h128v-128l-128 -128v0z" />
    <glyph glyph-name="numbersign" unicode="#" 
d="M320 320v128h-128v-128h128zM64 0v192h-64v128h64v128h-64v128h64v192h128v-192h128v192h128v-192h64v-128h-64v-128h64v-128h-64v-192h-128v192h-128v-192h-128z" />
    <glyph glyph-name="dollar" unicode="$" 
d="M192 0v64h-128l-64 64v64h320l64 64l-64 64h-192l-128 128v128l128 128h64v64h128v-64h128l64 -64v-64h-320l-64 -64l64 -64h192l128 -128v-128l-128 -128h-64v-64h-128z" />
    <glyph glyph-name="percent" unicode="%" horiz-adv-x="729" 
d="M448 128v128h128v-128h-128zM0 512v128h128v-128h-128zM0 128v64l448 448h128v-64l-448 -448h-128z" />
    <glyph glyph-name="ampersand" unicode="&#x26;" 
d="M192 0v64h-64l-128 128v128l64 64l-64 64v128l128 128h64v64h128v-64h64l128 -128v-64h-128l-64 64h-128l-64 -64l64 -64h128v-128h-128l-64 -64l64 -64h128l64 64h128v-64l-128 -128h-64v-64h-128z" />
    <glyph glyph-name="quotesingle" unicode="'" horiz-adv-x="281" 
d="M0 512v256h128v-128l-128 -128v0z" />
    <glyph glyph-name="parenleft" unicode="(" horiz-adv-x="409" 
d="M128 0l-128 128v512l128 128h128v-64l-128 -128v-384l128 -128v-64h-128z" />
    <glyph glyph-name="parenright" unicode=")" horiz-adv-x="409" 
d="M0 0v64l128 128v384l-128 128v64h128l128 -128v-512l-128 -128h-128z" />
    <glyph glyph-name="asterisk" unicode="*" 
d="M32 384l96 192l-128 128h192l64 128l64 -128h192l-128 -128l96 -192l-224 112l-224 -112v0z" />
    <glyph glyph-name="plus" unicode="+" horiz-adv-x="537" 
d="M128 192v128h-128v128h128v128h128v-128h128v-128h-128v-128h-128z" />
    <glyph glyph-name="comma" unicode="," horiz-adv-x="281" 
d="M0 -128v256h128v-128l-128 -128v0z" />
    <glyph glyph-name="hyphen" unicode="-" horiz-adv-x="537" 
d="M0 320v128h384v-128h-384z" />
    <glyph glyph-name="period" unicode="." horiz-adv-x="281" 
d="M0 0v128h128v-128h-128z" />
    <glyph glyph-name="slash" unicode="/" horiz-adv-x="729" 
d="M0 0l384 768h160l-384 -768h-160z" />
    <glyph glyph-name="zero" unicode="0" 
d="M320 128l64 64v384l-64 64h-128l-64 -64v-384l64 -64h128zM128 0l-128 128v512l128 128h256l128 -128v-512l-128 -128h-256z" />
    <glyph glyph-name="one" unicode="1" horiz-adv-x="473" 
d="M192 0v640h-128v128h256v-768h-128z" />
    <glyph glyph-name="two" unicode="2" 
d="M0 0v320l128 128h192l64 64v64l-64 64h-128l-64 -64h-128v64l128 128h256l128 -128v-192l-128 -128h-192l-64 -64v-128h384v-128h-512z" />
    <glyph glyph-name="three" unicode="3" 
d="M128 0l-128 128v64h128l64 -64h128l64 64v64l-64 64h-128v128h128l64 64v64l-64 64h-128l-64 -64h-128v64l128 128h256l128 -128v-192l-64 -64l64 -64v-192l-128 -128h-256z" />
    <glyph glyph-name="four" unicode="4" 
d="M320 256v320l-192 -192v-128h192zM320 0v128h-320v320l320 320h128v-512h64v-128h-64v-128h-128z" />
    <glyph glyph-name="five" unicode="5" horiz-adv-x="601" 
d="M0 0v128h256l64 64v64l-64 64h-192l-64 64v384h448v-128h-320v-192h192l128 -128v-192l-128 -128h-320z" />
    <glyph glyph-name="six" unicode="6" 
d="M320 128l64 64v64l-64 64h-128l-64 -64v-64l64 -64h128zM128 0l-128 128v512l128 128h320v-128h-256l-64 -64v-128h256l128 -128v-192l-128 -128h-256z" />
    <glyph glyph-name="seven" unicode="7" 
d="M32 0l320 640h-352v128h512v-128l-320 -640h-160z" />
    <glyph glyph-name="eight" unicode="8" 
d="M320 128l64 64v64l-64 64h-128l-64 -64v-64l64 -64h128zM320 448l64 64v64l-64 64h-128l-64 -64v-64l64 -64h128zM128 0l-128 128v192l64 64l-64 64v192l128 128h256l128 -128v-192l-64 -64l64 -64v-192l-128 -128h-256z" />
    <glyph glyph-name="nine" unicode="9" 
d="M320 448l64 64v64l-64 64h-128l-64 -64v-64l64 -64h128zM128 0l-128 128v64h128l64 -64h128l64 64v128h-256l-128 128v192l128 128h256l128 -128v-512l-128 -128h-256z" />
    <glyph glyph-name="colon" unicode=":" horiz-adv-x="281" 
d="M0 128v128h128v-128h-128zM0 512v128h128v-128h-128z" />
    <glyph glyph-name="semicolon" unicode=";" horiz-adv-x="281" 
d="M0 0v256h128v-128l-128 -128v0zM0 512v128h128v-128h-128z" />
    <glyph glyph-name="less" unicode="&#x3c;" horiz-adv-x="601" 
d="M256 128l-256 256l256 256h192l-256 -256l256 -256h-192z" />
    <glyph glyph-name="equal" unicode="=" horiz-adv-x="537" 
d="M0 192v128h384v-128h-384zM0 448v128h384v-128h-384z" />
    <glyph glyph-name="greater" unicode="&#x3e;" horiz-adv-x="601" 
d="M0 128l256 256l-256 256h192l256 -256l-256 -256h-192z" />
    <glyph glyph-name="question" unicode="?" 
d="M192 0v128h128v-128h-128zM192 192v256h128l64 64v64l-64 64h-128l-64 -64v-64h-128v128l128 128h256l128 -128v-192l-128 -128h-64v-128h-128z" />
    <glyph glyph-name="at" unicode="@" horiz-adv-x="921" 
d="M448 256l32 32v64h-160l-32 -32v-32l32 -32h128zM128 0l-128 128v512l128 128h512l128 -128v-384l-96 -96h-416l-64 64v160l64 64h224v32l-32 32h-128l-32 -32h-96v64l64 64h256l64 -64v-288h64v320l-64 64h-384l-64 -64v-384l64 -64h512v-64l-64 -64h-512z" />
    <glyph glyph-name="A" unicode="A" 
d="M384 384v128l-128 128l-128 -128v-128h256zM0 0v576l192 192h128l192 -192v-576h-128v256h-256v-256h-128z" />
    <glyph glyph-name="B" unicode="B" 
d="M320 128l64 64v64l-64 64h-192v-192h192zM320 448l64 64v64l-64 64h-192v-192h192zM0 0v768h384l128 -128v-192l-64 -64l64 -64v-192l-128 -128h-384z" />
    <glyph glyph-name="C" unicode="C" 
d="M128 0l-128 128v512l128 128h256l128 -128v-64h-128l-64 64h-128l-64 -64v-384l64 -64h128l64 64h128v-64l-128 -128h-256z" />
    <glyph glyph-name="D" unicode="D" 
d="M320 128l64 64v384l-64 64h-192v-512h192zM0 0v768h384l128 -128v-512l-128 -128h-384z" />
    <glyph glyph-name="E" unicode="E" horiz-adv-x="601" 
d="M0 0v768h448v-128h-320v-192h256v-128h-256v-192h320v-128h-448z" />
    <glyph glyph-name="F" unicode="F" horiz-adv-x="601" 
d="M0 0v768h448v-128h-320v-192h256v-128h-256v-320h-128z" />
    <glyph glyph-name="G" unicode="G" 
d="M128 0l-128 128v512l128 128h256l128 -128v-64h-128l-64 64h-128l-64 -64v-384l64 -64h128l64 64v128h-128v128h256v-320l-128 -128h-256z" />
    <glyph glyph-name="H" unicode="H" 
d="M0 0v768h128v-320h256v320h128v-768h-128v320h-256v-320h-128z" />
    <glyph glyph-name="I" unicode="I" horiz-adv-x="281" 
d="M0 0v768h128v-768h-128z" />
    <glyph glyph-name="J" unicode="J" 
d="M128 0l-128 128v192h128v-128l64 -64h128l64 64v576h128v-640l-128 -128h-256z" />
    <glyph glyph-name="K" unicode="K" 
d="M0 0v768h128v-256l256 256h128v-64l-256 -256h-1l-31 -32l288 -288v-128h-64l-320 320v-320h-128z" />
    <glyph glyph-name="L" unicode="L" horiz-adv-x="601" 
d="M0 0v768h128v-640h320v-128h-448z" />
    <glyph glyph-name="M" unicode="M" horiz-adv-x="793" 
d="M0 0v768h128l192 -192l192 192h128v-768h-128v576l-192 -192l-192 192v-576h-128z" />
    <glyph glyph-name="N" unicode="N" 
d="M0 0v768h128l256 -256v256h128v-768h-128v320l-256 256v-576h-128z" />
    <glyph glyph-name="O" unicode="O" horiz-adv-x="857" 
d="M448 128l128 128v256l-128 128h-192l-128 -128v-256l128 -128h192zM192 0l-192 192v384l192 192h320l192 -192v-384l-192 -192h-320z" />
    <glyph glyph-name="P" unicode="P" 
d="M320 448l64 64v64l-64 64h-192v-192h192zM0 0v768h384l128 -128v-192l-128 -128h-256v-320h-128z" />
    <glyph glyph-name="Q" unicode="Q" horiz-adv-x="921" 
d="M448 128l32 32l-96 96v64h128l64 -64v256l-128 128h-192l-128 -128v-256l128 -128h192zM192 0l-192 192v384l192 192h320l192 -192v-384h-1l-31 -32l96 -96v-64h-128l-64 64l-64 -64h-320z" />
    <glyph glyph-name="R" unicode="R" 
d="M320 448l64 64v64l-64 64h-192v-192h192zM0 0v768h384l128 -128v-192l-64 -64l64 -64v-320h-128v256l-64 64h-192v-320h-128z" />
    <glyph glyph-name="S" unicode="S" 
d="M128 0l-128 128v64h128l64 -64h128l64 64v64l-64 64h-192l-128 128v192l128 128h256l128 -128v-64h-128l-64 64h-128l-64 -64v-64l64 -64h192l128 -128v-192l-128 -128h-256z" />
    <glyph glyph-name="T" unicode="T" 
d="M192 0v640h-192v128h512v-128h-192v-640h-128z" />
    <glyph glyph-name="U" unicode="U" 
d="M128 0l-128 128v640h128v-576l64 -64h128l64 64v576h128v-640l-128 -128h-256z" />
    <glyph glyph-name="V" unicode="V" 
d="M192 0l-192 192v576h128v-512l128 -128l128 128v512h128v-576l-192 -192h-128z" />
    <glyph glyph-name="W" unicode="W" horiz-adv-x="793" 
d="M0 0v768h128v-576l192 192l192 -192v576h128v-768h-128l-192 192l-192 -192h-128z" />
    <glyph glyph-name="X" unicode="X" 
d="M0 0v256l128 128l-128 128v256h128v-192l128 -128l128 128v192h128v-256l-128 -128l128 -128v-256h-128v192l-128 128l-128 -128v-192h-128z" />
    <glyph glyph-name="Y" unicode="Y" 
d="M192 0v256l-192 192v320h128v-256l128 -128l128 128v256h128v-320l-192 -192v-256h-128z" />
    <glyph glyph-name="Z" unicode="Z" 
d="M0 0v256l384 384h-384v128h512v-192l-384 -384v-64h384v-128h-512z" />
    <glyph glyph-name="bracketleft" unicode="[" horiz-adv-x="409" 
d="M0 0v768h256v-128h-128v-512h128v-128h-256z" />
    <glyph glyph-name="backslash" unicode="\" horiz-adv-x="729" 
d="M384 0l-384 768h160l384 -768h-160z" />
    <glyph glyph-name="bracketright" unicode="]" horiz-adv-x="409" 
d="M0 0v128h128v512h-128v128h256v-768h-256z" />
    <glyph glyph-name="asciicircum" unicode="^" 
d="M0 448v64l256 256l256 -256v-64h-128l-128 128l-128 -128h-128z" />
    <glyph glyph-name="underscore" unicode="_" 
d="M0 -128v128h512v-128h-512z" />
    <glyph glyph-name="grave" unicode="`" horiz-adv-x="409" 
d="M128 512l-128 128v128h64l192 -192v-64h-128z" />
    <glyph glyph-name="a" unicode="a" 
d="M352 128l32 32v64h-224l-32 -32v-32l32 -32h192zM96 0l-96 96v160l96 96h288v64l-32 32h-192l-32 -32h-128v64l96 96h320l96 -96v-480h-416z" />
    <glyph glyph-name="b" unicode="b" 
d="M320 128l64 64v192l-64 64h-128l-64 -64v-192l64 -64h128zM0 0v768h128v-192h256l128 -128v-320l-128 -128h-384z" />
    <glyph glyph-name="c" unicode="c" 
d="M128 0l-128 128v320l128 128h256l128 -128v-64h-128l-64 64h-128l-64 -64v-192l64 -64h128l64 64h128v-64l-128 -128h-256z" />
    <glyph glyph-name="d" unicode="d" 
d="M320 128l64 64v192l-64 64h-128l-64 -64v-192l64 -64h128zM128 0l-128 128v320l128 128h256v192h128v-768h-384z" />
    <glyph glyph-name="e" unicode="e" 
d="M384 352v64l-32 32h-192l-32 -32v-64h256zM96 0l-96 96v384l96 96h320l96 -96v-192l-64 -64h-320v-64l32 -32h192l32 32h128v-64l-96 -96h-320z" />
    <glyph glyph-name="f" unicode="f" horiz-adv-x="601" 
d="M64 0v320h-64v128h64v224l96 96h192l96 -96v-96h-128v32l-32 32h-64l-32 -32v-160h192v-128h-192v-320h-128z" />
    <glyph glyph-name="g" unicode="g" 
d="M320 128l64 64v192l-64 64h-128l-64 -64v-192l64 -64h128zM128 -256l-128 128v64h128l64 -64h128l64 64v64h-256l-128 128v320l128 128h384v-704l-128 -128h-256z" />
    <glyph glyph-name="h" unicode="h" 
d="M0 0v768h128v-192h256l128 -128v-448h-128v384l-64 64h-128l-64 -64v-384h-128z" />
    <glyph glyph-name="i" unicode="i" horiz-adv-x="281" 
d="M0 0v576h128v-576h-128zM0 640v128h128v-128h-128z" />
    <glyph glyph-name="j" unicode="j" horiz-adv-x="537" 
d="M96 0l-96 96v96h96l64 -64h64l32 32v416h128v-480l-96 -96h-192zM256 640v128h128v-128h-128z" />
    <glyph glyph-name="k" unicode="k" horiz-adv-x="601" 
d="M0 0v768h128v-384l192 192h128v-64l-224 -224l31 -32h1l192 -192v-64h-128l-192 192v-192h-128z" />
    <glyph glyph-name="l" unicode="l" horiz-adv-x="409" 
d="M0 0v128h64v512h-64v128h192v-640h64v-128h-256z" />
    <glyph glyph-name="m" unicode="m" horiz-adv-x="793" 
d="M0 0v576h288l32 -32l32 32h224l64 -64v-512h-128v416l-32 32h-64l-32 -32v-416h-128v416l-32 32h-64l-32 -32v-416h-128z" />
    <glyph glyph-name="n" unicode="n" 
d="M0 0v576h384l128 -128v-448h-128v384l-64 64h-192v-448h-128z" />
    <glyph glyph-name="o" unicode="o" 
d="M320 128l64 64v192l-64 64h-128l-64 -64v-192l64 -64h128zM128 0l-128 128v320l128 128h256l128 -128v-320l-128 -128h-256z" />
    <glyph glyph-name="p" unicode="p" 
d="M320 128l64 64v192l-64 64h-128l-64 -64v-192l64 -64h128zM0 -192v768h384l128 -128v-320l-128 -128h-256v-192h-128z" />
    <glyph glyph-name="q" unicode="q" 
d="M320 128l64 64v192l-64 64h-128l-64 -64v-192l64 -64h128zM384 -192v192h-256l-128 128v320l128 128h384v-768h-128z" />
    <glyph glyph-name="r" unicode="r" horiz-adv-x="601" 
d="M0 0v576h352l96 -96v-96h-128v32l-32 32h-128l-32 -32v-416h-128z" />
    <glyph glyph-name="s" unicode="s" horiz-adv-x="601" 
d="M64 0l-64 64v96h96l32 -32h160l32 32v32l-32 32h-192l-96 96v160l96 96h288l64 -64v-96h-96l-32 32h-160l-32 -32v-32l32 -32h192l96 -96v-160l-96 -96h-288z" />
    <glyph glyph-name="t" unicode="t" horiz-adv-x="537" 
d="M224 0l-96 96v352h-128v128h128v192h128v-192h128v-128h-128v-288l32 -32h96v-128h-160z" />
    <glyph glyph-name="u" unicode="u" 
d="M128 0l-128 128v448h128v-384l64 -64h128l64 64v384h128v-576h-384z" />
    <glyph glyph-name="v" unicode="v" 
d="M192 0l-192 192v384h128v-320l128 -128l128 128v320h128v-384l-192 -192h-128z" />
    <glyph glyph-name="w" unicode="w" horiz-adv-x="793" 
d="M64 0l-64 64v512h128v-416l32 -32h64l32 32v416h128v-416l32 -32h64l32 32v416h128v-576h-288l-32 32l-32 -32h-224z" />
    <glyph glyph-name="x" unicode="x" 
d="M0 0v128l128 128v0l32 32l-160 160v128h128v-64l128 -128l128 128v64h128v-128l-128 -128h-1l-31 -32l160 -160v-128h-128v64l-128 128l-128 -128v-64h-128z" />
    <glyph glyph-name="y" unicode="y" 
d="M128 -256l-128 128v64h128l64 -64h128l64 64v64h-256l-128 128v448h128v-384l64 -64h128l64 64v384h128v-704l-128 -128h-256z" />
    <glyph glyph-name="z" unicode="z" 
d="M0 0v128l320 320h-320v128h512v-128l-320 -320h320v-128h-512z" />
    <glyph glyph-name="braceleft" unicode="{" horiz-adv-x="473" 
d="M128 0l-64 64v192l-64 64v128l64 64v192l64 64h128l64 -64v-64h-128v-192l-64 -64l64 -64v-192h128v-64l-64 -64h-128z" />
    <glyph glyph-name="bar" unicode="|" horiz-adv-x="281" 
d="M0 0v320h128v-320h-128zM0 448v320h128v-320h-128z" />
    <glyph glyph-name="braceright" unicode="}" horiz-adv-x="473" 
d="M64 0l-64 64v64h128v192l64 64l-64 64v192h-128v64l64 64h128l64 -64v-192l64 -64v-128l-64 -64v-192l-64 -64h-128z" />
    <glyph glyph-name="asciitilde" unicode="~" 
d="M0 320v128l64 64h192l64 -64h64l64 64h64v-128l-64 -64h-192l-64 64h-64l-64 -64h-64z" />
    <glyph glyph-name="uni00A0" unicode="&#xa0;" horiz-adv-x="217" 
 />
    <glyph glyph-name="exclamdown" unicode="&#xa1;" horiz-adv-x="281" 
d="M0 0v576h128v-576h-128zM0 640v128h128v-128h-128z" />
    <glyph glyph-name="cent" unicode="&#xa2;" 
d="M192 192v384l-64 -64v-256l64 -64v0zM192 0v64h-64l-128 128v384l128 128h64v64h128v-64h64l128 -128v-64h-128l-64 64v-384l64 64h128v-64l-128 -128h-64v-64h-128z" />
    <glyph glyph-name="sterling" unicode="&#xa3;" horiz-adv-x="601" 
d="M0 0v64l64 64v192h-64v128h64v192l128 128h128l64 -64v-64h-128l-64 -64v-128h64v-128h-64v-192h256v-128h-448z" />
    <glyph glyph-name="currency" unicode="&#xa4;" horiz-adv-x="601" 
d="M320 320v128h-128v-128h128zM64 192v64v0l32 32l-32 32v128v0l32 32l-32 32v64h64v-1l32 -31l32 32h128v-1l32 -31l32 32h64v-64h-1l-31 -32l32 -32v-128h-1l-31 -32l32 -32v-64h-64v0l-32 32l-32 -32h-128v0l-32 32l-32 -32h-64z" />
    <glyph glyph-name="yen" unicode="&#xa5;" 
d="M192 0v192h-192v128h192v64h-192v128h128l-128 128v128h64l192 -192l192 192h64v-128l-128 -128h128v-128h-192v-64h192v-128h-192v-192h-128z" />
    <glyph glyph-name="brokenbar" unicode="&#xa6;" horiz-adv-x="281" 
d="M0 0v320h128v-320h-128zM0 448v320h128v-320h-128z" />
    <glyph glyph-name="section" unicode="&#xa7;" 
d="M320 352v64h-128v-64h128zM128 0l-128 128v64h128l64 -64h128l64 64l-64 64h-192l-128 128l64 64l-64 64v128l128 128h256l128 -128v-64h-128l-64 64h-128l-64 -64l64 -64h192l128 -128l-64 -64l64 -64v-128l-128 -128h-256z" />
    <glyph glyph-name="dieresis" unicode="&#xa8;" horiz-adv-x="601" 
d="M64 640v128h128v-128h-128zM320 640v128h128v-128h-128z" />
    <glyph glyph-name="copyright" unicode="&#xa9;" horiz-adv-x="921" 
d="M320 160l-96 96v256l96 96h128l96 -96v-32h-96l-32 32h-64l-32 -32v-192l32 -32h64l32 32h96v-32l-96 -96h-128zM512 128l128 128v256l-128 128h-256l-128 -128v-256l128 -128h256zM192 0l-192 192v384l192 192h384l192 -192v-384l-192 -192h-384z" />
    <glyph glyph-name="ordfeminine" unicode="&#xaa;" horiz-adv-x="345" 
d="M128 576v32h-64v-32h64zM32 512l-32 32v96l32 32h96v32h-128v32l32 32h128l32 -32v-224h-160z" />
    <glyph glyph-name="guillemotleft" unicode="&#xab;" horiz-adv-x="793" 
d="M256 128l-256 256l256 256h64v-128l-128 -128l128 -128v-128h-64zM576 128l-256 256l256 256h64v-128l-128 -128l128 -128v-128h-64z" />
    <glyph glyph-name="logicalnot" unicode="&#xac;" 
d="M384 192v128h-384v128h512v-256h-128z" />
    <glyph glyph-name="uni00AD" unicode="&#xad;" horiz-adv-x="409" 
d="M64 320v128h192v-128h-192z" />
    <glyph glyph-name="registered" unicode="&#xae;" horiz-adv-x="921" 
d="M416 448l32 32l-32 32h-64v-64h64zM256 192v416h192l96 -96v-64l-48 -48l48 -48v-160h-96v128l-32 32h-64v-160h-96zM512 128l128 128v256l-128 128h-256l-128 -128v-256l128 -128h256zM192 0l-192 192v384l192 192h384l192 -192v-384l-192 -192h-384z" />
    <glyph glyph-name="macron" unicode="&#xaf;" 
d="M0 640v128h512v-128h-512z" />
    <glyph glyph-name="degree" unicode="&#xb0;" horiz-adv-x="409" 
d="M160 640l32 32v64l-32 32h-64l-32 -32v-64l32 -32h64zM96 592l-32 16l-32 32l-16 32v64l16 32l32 32l32 16h64l32 -16l32 -32l16 -32v-64l-16 -32l-32 -32l-32 -16h-64z" />
    <glyph glyph-name="plusminus" unicode="&#xb1;" horiz-adv-x="921" 
d="M0 0v128h768v-128h-768zM320 192v256h-320v128h320v256h128v-256h320v-128h-320v-256h-128z" />
    <glyph glyph-name="uni00B2" unicode="&#xb2;" horiz-adv-x="345" 
d="M0 512v96l64 64h32l32 32h-128v32l32 32h128l32 -32v-64l-64 -64h-32l-32 -32h128v-64h-192z" />
    <glyph glyph-name="uni00B3" unicode="&#xb3;" horiz-adv-x="345" 
d="M32 512l-32 32v32h128v32h-64v64h64v32h-128v32l32 32h128l32 -32v-64l-32 -32l32 -32v-64l-32 -32h-128z" />
    <glyph glyph-name="acute" unicode="&#xb4;" horiz-adv-x="409" 
d="M0 512v64l192 192h64v-128l-128 -128h-128z" />
    <glyph glyph-name="mu" unicode="&#xb5;" 
d="M0 -128v640h128v-320l64 -64h128l64 64v320h128v-384l-128 -128h-256v-128h-128z" />
    <glyph glyph-name="paragraph" unicode="&#xb6;" horiz-adv-x="729" 
d="M256 0v320h-128l-128 128v192l128 128h448v-64h-64v-704h-64v704h-128v-704h-64z" />
    <glyph glyph-name="periodcentered" unicode="&#xb7;" horiz-adv-x="409" 
d="M64 320v128h128v-128h-128z" />
    <glyph glyph-name="cedilla" unicode="&#xb8;" horiz-adv-x="409" 
d="M64 -128l64 64v0l32 32l-32 32h-64v64h128l64 -64v-64l-64 -64h-128z" />
    <glyph glyph-name="uni00B9" unicode="&#xb9;" horiz-adv-x="281" 
d="M64 512v192h-64v64h128v-256h-64z" />
    <glyph glyph-name="ordmasculine" unicode="&#xba;" horiz-adv-x="345" 
d="M128 576v128h-64v-128h64zM64 512l-64 64v128l64 64h64l64 -64v-128l-64 -64h-64z" />
    <glyph glyph-name="guillemotright" unicode="&#xbb;" horiz-adv-x="793" 
d="M0 128v128l128 128l-128 128v128h64l256 -256l-256 -256h-64zM320 128v128l128 128l-128 128v128h64l256 -256l-256 -256h-64z" />
    <glyph glyph-name="onequarter" unicode="&#xbc;" horiz-adv-x="729" 
d="M512 192v64l-64 -64h64zM512 64v64h-128v96l96 96h96v-256h-64zM64 448v192h-64v64h128v-256h-64zM0 64v128l512 512h64v-128l-512 -512h-64z" />
    <glyph glyph-name="onehalf" unicode="&#xbd;" horiz-adv-x="729" 
d="M384 64v96l64 64h32l32 32h-128v32l32 32h128l32 -32v-64l-64 -64h-32l-32 -32h128v-64h-192zM64 448v192h-64v64h128v-256h-64zM0 64v128l512 512h64v-128l-512 -512h-64z" />
    <glyph glyph-name="threequarters" unicode="&#xbe;" horiz-adv-x="729" 
d="M512 192v64l-64 -64h64zM512 64v64h-128v96l96 96h96v-256h-64zM32 448l-32 32v32h128v32h-64v64h64v32h-128v32l32 32h128l32 -32v-64l-32 -32l32 -32v-64l-32 -32h-128zM0 64v128l512 512h64v-128l-512 -512h-64z" />
    <glyph glyph-name="questiondown" unicode="&#xbf;" 
d="M128 0l-128 128v192l128 128h64v128h128v-256h-128l-64 -64v-64l64 -64h128l64 64v64h128v-128l-128 -128h-256zM192 640v128h128v-128h-128z" />
    <glyph glyph-name="Agrave" unicode="&#xc0;" 
d="M384 384v128l-128 128l-128 -128v-128h256zM0 0v576l192 192h64l-128 64l64 32l192 -96l-43 -22l171 -170v-576h-128v256h-256v-256h-128z" />
    <glyph glyph-name="Aacute" unicode="&#xc1;" 
d="M384 384v128l-128 128l-128 -128v-128h256zM0 0v576l170 170l-42 22l192 96l64 -32l-128 -64h64l192 -192v-576h-128v256h-256v-256h-128z" />
    <glyph glyph-name="Acircumflex" unicode="&#xc2;" 
d="M384 384v128l-128 128l-128 -128v-128h256zM0 0v576l192 192h128l192 -192v-576h-128v256h-256v-256h-128zM128 736l-64 32l192 96l192 -96l-64 -32l-128 64l-128 -64v0z" />
    <glyph glyph-name="Atilde" unicode="&#xc3;" 
d="M384 384v128l-128 128l-128 -128v-128h256zM0 0v576l192 192h64l-64 32h-64l-64 -32l-64 32l128 64h64l128 -64h64l64 32l64 -32l-128 -64h-32l160 -160v-576h-128v256h-256v-256h-128z" />
    <glyph glyph-name="Adieresis" unicode="&#xc4;" 
d="M384 384v128l-128 128l-128 -128v-128h256zM0 0v576l192 192h128l192 -192v-576h-128v256h-256v-256h-128zM96 736l-64 64l64 64l64 -64l-64 -64v0zM416 736l-64 64l64 64l64 -64l-64 -64v0z" />
    <glyph glyph-name="Aring" unicode="&#xc5;" 
d="M384 384v128l-128 128l-128 -128v-128h256zM288 784l32 16l-32 16h-64l-32 -16l32 -16h64zM0 0v576l170 170l-42 22v64l64 32h128l64 -32v-64l-43 -22l171 -170v-576h-128v256h-256v-256h-128z" />
    <glyph glyph-name="AE" unicode="&#xc6;" horiz-adv-x="921" 
d="M320 384v256h-64l-128 -128v-128h192zM0 0v576l192 192h576v-128h-320v-192h256v-128h-256v-192h320v-128h-448v256h-192v-256h-128z" />
    <glyph glyph-name="Ccedilla" unicode="&#xc7;" 
d="M128 -128l64 64v0l32 32l-32 32h-64l-128 128v512l128 128h256l128 -128v-64h-128l-64 64h-128l-64 -64v-384l64 -64h128l64 64h128v-64l-128 -128h-64v-64l-64 -64h-128z" />
    <glyph glyph-name="Egrave" unicode="&#xc8;" horiz-adv-x="601" 
d="M0 0v768h256l-128 64l64 32l192 -96h64v-128h-320v-192h256v-128h-256v-192h320v-128h-448z" />
    <glyph glyph-name="Eacute" unicode="&#xc9;" horiz-adv-x="601" 
d="M0 0v768h64l192 96l64 -32l-128 -64h256v-128h-320v-192h256v-128h-256v-192h320v-128h-448z" />
    <glyph glyph-name="Ecircumflex" unicode="&#xca;" horiz-adv-x="601" 
d="M288 768l-64 32l-64 -32h128zM0 0v768h96l-32 16l160 80l160 -80l-32 -16h96v-128h-320v-192h256v-128h-256v-192h320v-128h-448z" />
    <glyph glyph-name="Edieresis" unicode="&#xcb;" horiz-adv-x="601" 
d="M0 0v768h64l-32 32l64 64l64 -64l-32 -32h192l-32 32l64 64l64 -64l-32 -32h64v-128h-320v-192h256v-128h-256v-192h320v-128h-448z" />
    <glyph glyph-name="Igrave" unicode="&#xcc;" horiz-adv-x="281" 
d="M0 0v768h64l-128 64l64 32l192 -96l-64 -32v-736h-128z" />
    <glyph glyph-name="Iacute" unicode="&#xcd;" horiz-adv-x="281" 
d="M0 0v736l-64 32l192 96l64 -32l-128 -64h64v-768h-128z" />
    <glyph glyph-name="Icircumflex" unicode="&#xce;" horiz-adv-x="281" 
d="M0 0v768h128v-768h-128zM0 768l-64 32l128 64l128 -64l-64 -32l-64 32l-64 -32v0z" />
    <glyph glyph-name="Idieresis" unicode="&#xcf;" horiz-adv-x="281" 
d="M0 0v768h128v-768h-128zM-32 736l-64 64l64 64l64 -64l-64 -64v0zM160 736l-64 64l64 64l64 -64l-64 -64v0z" />
    <glyph glyph-name="Eth" unicode="&#xd0;" horiz-adv-x="793" 
d="M448 128l64 64v384l-64 64h-192v-192h128v-128h-128v-192h192zM128 0v320h-128v128h128v320h384l128 -128v-512l-128 -128h-384z" />
    <glyph glyph-name="Ntilde" unicode="&#xd1;" 
d="M0 0v768h128l256 -256v224h-64l-128 64h-64l-64 -32l-64 32l128 64h64l128 -64h64l64 32l64 -32l-64 -32h64v-768h-128v320l-256 256v-576h-128z" />
    <glyph glyph-name="Ograve" unicode="&#xd2;" horiz-adv-x="857" 
d="M448 128l128 128v256l-128 128h-192l-128 -128v-256l128 -128h192zM192 0l-192 192v384l192 192h128l-128 64l64 32l192 -96h64l192 -192v-384l-192 -192h-320z" />
    <glyph glyph-name="Oacute" unicode="&#xd3;" horiz-adv-x="857" 
d="M448 128l128 128v256l-128 128h-192l-128 -128v-256l128 -128h192zM192 0l-192 192v384l192 192h64l192 96l64 -32l-128 -64h128l192 -192v-384l-192 -192h-320z" />
    <glyph glyph-name="Ocircumflex" unicode="&#xd4;" horiz-adv-x="857" 
d="M448 128l128 128v256l-128 128h-192l-128 -128v-256l128 -128h192zM416 768l-64 32l-64 -32h128zM192 0l-192 192v384l192 192h32l-32 16l160 80l160 -80l-32 -16h32l192 -192v-384l-192 -192h-320z" />
    <glyph glyph-name="Otilde" unicode="&#xd5;" horiz-adv-x="857" 
d="M448 128l128 128v256l-128 128h-192l-128 -128v-256l128 -128h192zM192 0l-192 192v384l192 192h160l-64 32h-96l-64 -32l-64 32l128 64h96l128 -64h96l64 32l64 -32l-107 -54l171 -170v-384l-192 -192h-320z" />
    <glyph glyph-name="Odieresis" unicode="&#xd6;" horiz-adv-x="857" 
d="M448 128l128 128v256l-128 128h-192l-128 -128v-256l128 -128h192zM192 0l-192 192v384l192 192h320l192 -192v-384l-192 -192h-320zM96 736l-64 64l64 64l64 -64l-64 -64v0zM608 736l-64 64l64 64l64 -64l-64 -64v0z" />
    <glyph glyph-name="multiply" unicode="&#xd7;" horiz-adv-x="921" 
d="M64 32l-32 32v64l256 256l-256 256v64l32 32h64l256 -256l256 256h64l32 -32v-64l-256 -256l256 -256v-64l-32 -32h-64l-256 256l-256 -256h-64z" />
    <glyph glyph-name="Oslash" unicode="&#xd8;" horiz-adv-x="857" 
d="M448 128l128 128v256l-320 -320h-1l-31 -32l32 -32h192zM128 256l320 320v0l32 32l-32 32h-192l-128 -128v-256v0zM0 0v128v0l32 32l-32 32v384l192 192h320l64 -64l64 64h64v-128h-1l-31 -32l32 -32v-384l-192 -192h-320l-64 64l-64 -64h-64z" />
    <glyph glyph-name="Ugrave" unicode="&#xd9;" 
d="M128 0l-128 128v640h128v-576l64 -64h128l64 64v576h128v-640l-128 -128h-256zM320 736l-192 96l64 32l192 -96l-64 -32v0z" />
    <glyph glyph-name="Uacute" unicode="&#xda;" 
d="M128 0l-128 128v640h128v-576l64 -64h128l64 64v576h128v-640l-128 -128h-256zM192 736l-64 32l192 96l64 -32l-192 -96v0z" />
    <glyph glyph-name="Ucircumflex" unicode="&#xdb;" 
d="M128 0l-128 128v640h128v-576l64 -64h128l64 64v576h128v-640l-128 -128h-256zM192 768l-64 32l128 64l128 -64l-64 -32l-64 32l-64 -32v0z" />
    <glyph glyph-name="Udieresis" unicode="&#xdc;" 
d="M128 0l-128 128v640h64l-32 32l64 64l64 -64l-32 -32v-576l64 -64h128l64 64v576l-32 32l64 64l64 -64l-32 -32h64v-640l-128 -128h-256z" />
    <glyph glyph-name="Yacute" unicode="&#xdd;" 
d="M192 0v256l-192 192v320h128v-256l128 -128l128 128v256h128v-320l-192 -192v-256h-128zM192 736l-64 32l192 96l64 -32l-192 -96v0z" />
    <glyph glyph-name="Thorn" unicode="&#xde;" horiz-adv-x="601" 
d="M256 256l64 64v128l-64 64h-128v-256h128zM0 0v768h128v-128h192l128 -128v-256l-128 -128h-192v-128h-128z" />
    <glyph glyph-name="germandbls" unicode="&#xdf;" horiz-adv-x="601" 
d="M0 0v704l64 64h256l64 -64v-192l-64 -64h-1l-31 -32l160 -160v-192l-64 -64h-192v128h64l64 64l-128 128v192l64 64v64h-128v-640h-128z" />
    <glyph glyph-name="agrave" unicode="&#xe0;" 
d="M352 128l32 32v64h-224l-32 -32v-32l32 -32h192zM96 0l-96 96v160l96 96h288v64l-32 32h-192l-32 -32h-128v64l96 96h320l96 -96v-480h-416zM192 608l-64 32l192 96l64 -32l-192 -96v0z" />
    <glyph glyph-name="aacute" unicode="&#xe1;" 
d="M352 128l32 32v64h-224l-32 -32v-32l32 -32h192zM96 0l-96 96v160l96 96h288v64l-32 32h-192l-32 -32h-128v64l96 96h320l96 -96v-480h-416zM320 608l-192 96l64 32l192 -96l-64 -32v0z" />
    <glyph glyph-name="acircumflex" unicode="&#xe2;" 
d="M352 128l32 32v64h-224l-32 -32v-32l32 -32h192zM96 0l-96 96v160l96 96h288v64l-32 32h-192l-32 -32h-128v64l96 96h320l96 -96v-480h-416zM128 608l-64 32l192 96l192 -96l-64 -32l-128 64l-128 -64v0z" />
    <glyph glyph-name="atilde" unicode="&#xe3;" 
d="M352 128l32 32v64h-224l-32 -32v-32l32 -32h192zM96 0l-96 96v160l96 96h288v64l-32 32h-192l-32 -32h-128v64l96 96h320l96 -96v-480h-416zM320 608l-128 64h-64l-64 -32l-64 32l128 64h64l128 -64h64l64 32l64 -32l-128 -64h-64z" />
    <glyph glyph-name="adieresis" unicode="&#xe4;" 
d="M352 128l32 32v64h-224l-32 -32v-32l32 -32h192zM96 0l-96 96v160l96 96h288v64l-32 32h-192l-32 -32h-128v64l96 96h320l96 -96v-480h-416zM96 608l-64 64l64 64l64 -64l-64 -64v0zM416 608l-64 64l64 64l64 -64l-64 -64v0z" />
    <glyph glyph-name="aring" unicode="&#xe5;" 
d="M352 128l32 32v64h-224l-32 -32v-32l32 -32h192zM96 0l-96 96v160l96 96h288v64l-32 32h-192l-32 -32h-128v64l96 96h320l96 -96v-480h-416zM288 656l32 16l-32 16h-64l-32 -16l32 -16h64zM192 608l-64 32v64l64 32h128l64 -32v-64l-64 -32h-128z" />
    <glyph glyph-name="ae" unicode="&#xe6;" horiz-adv-x="921" 
d="M288 128l32 32v64h-160l-32 -32v-32l32 -32h128zM640 352v64l-32 32h-128l-32 -32v-64h192zM96 0l-96 96v160l96 96h224v64l-32 32h-128l-32 -32h-128v64l96 96h256l32 -32l32 32h256l96 -96v-192l-64 -64h-256v-64l32 -32h128l32 32h128v-64l-96 -96h-256l-32 32
l-32 -32h-256z" />
    <glyph glyph-name="ccedilla" unicode="&#xe7;" 
d="M128 -128l64 64v0l32 32l-32 32h-64l-128 128v320l128 128h256l128 -128v-64h-128l-64 64h-128l-64 -64v-192l64 -64h128l64 64h128v-64l-128 -128h-64v-64l-64 -64h-128z" />
    <glyph glyph-name="egrave" unicode="&#xe8;" 
d="M384 352v64l-32 32h-192l-32 -32v-64h256zM96 0l-96 96v384l96 96h320l96 -96v-192l-64 -64h-320v-64l32 -32h192l32 32h128v-64l-96 -96h-320zM320 608l-192 96l64 32l192 -96l-64 -32v0z" />
    <glyph glyph-name="eacute" unicode="&#xe9;" 
d="M384 352v64l-32 32h-192l-32 -32v-64h256zM96 0l-96 96v384l96 96h320l96 -96v-192l-64 -64h-320v-64l32 -32h192l32 32h128v-64l-96 -96h-320zM192 608l-64 32l192 96l64 -32l-192 -96v0z" />
    <glyph glyph-name="ecircumflex" unicode="&#xea;" 
d="M384 352v64l-32 32h-192l-32 -32v-64h256zM96 0l-96 96v384l96 96h320l96 -96v-192l-64 -64h-320v-64l32 -32h192l32 32h128v-64l-96 -96h-320zM128 608l-64 32l192 96l192 -96l-64 -32l-128 64l-128 -64v0z" />
    <glyph glyph-name="edieresis" unicode="&#xeb;" 
d="M384 352v64l-32 32h-192l-32 -32v-64h256zM96 0l-96 96v384l96 96h320l96 -96v-192l-64 -64h-320v-64l32 -32h192l32 32h128v-64l-96 -96h-320zM96 608l-64 64l64 64l64 -64l-64 -64v0zM416 608l-64 64l64 64l64 -64l-64 -64v0z" />
    <glyph glyph-name="igrave" unicode="&#xec;" horiz-adv-x="281" 
d="M0 0v576h128v-576h-128zM128 608l-192 96l64 32l192 -96l-64 -32v0z" />
    <glyph glyph-name="iacute" unicode="&#xed;" horiz-adv-x="281" 
d="M0 0v576h128v-576h-128zM0 608l-64 32l192 96l64 -32l-192 -96v0z" />
    <glyph glyph-name="icircumflex" unicode="&#xee;" horiz-adv-x="281" 
d="M0 0v576h128v-576h-128zM0 640l-64 32l128 64l128 -64l-64 -32l-64 32l-64 -32v0z" />
    <glyph glyph-name="idieresis" unicode="&#xef;" horiz-adv-x="281" 
d="M0 0v576h128v-576h-128zM-32 608l-64 64l64 64l64 -64l-64 -64v0zM160 608l-64 64l64 64l64 -64l-64 -64v0z" />
    <glyph glyph-name="eth" unicode="&#xf0;" 
d="M320 128l64 64v192l-64 64h-128l-64 -64v-192l64 -64h128zM128 0l-128 128v320l128 128h256l-64 64v0l-32 32l-64 -64l-64 64l32 32h-192v128h320l32 32l64 -64l-32 -32l128 -128v-512l-128 -128h-256z" />
    <glyph glyph-name="ntilde" unicode="&#xf1;" 
d="M0 0v576h384l128 -128v-448h-128v384l-64 64h-192v-448h-128zM320 608l-128 64h-64l-64 -32l-64 32l128 64h64l128 -64h64l64 32l64 -32l-128 -64h-64z" />
    <glyph glyph-name="ograve" unicode="&#xf2;" 
d="M320 128l64 64v192l-64 64h-128l-64 -64v-192l64 -64h128zM128 0l-128 128v320l128 128h256l128 -128v-320l-128 -128h-256zM320 608l-192 96l64 32l192 -96l-64 -32v0z" />
    <glyph glyph-name="oacute" unicode="&#xf3;" 
d="M320 128l64 64v192l-64 64h-128l-64 -64v-192l64 -64h128zM128 0l-128 128v320l128 128h256l128 -128v-320l-128 -128h-256zM192 608l-64 32l192 96l64 -32l-192 -96v0z" />
    <glyph glyph-name="ocircumflex" unicode="&#xf4;" 
d="M320 128l64 64v192l-64 64h-128l-64 -64v-192l64 -64h128zM128 0l-128 128v320l128 128h256l128 -128v-320l-128 -128h-256zM128 608l-64 32l192 96l192 -96l-64 -32l-128 64l-128 -64v0z" />
    <glyph glyph-name="otilde" unicode="&#xf5;" 
d="M320 128l64 64v192l-64 64h-128l-64 -64v-192l64 -64h128zM128 0l-128 128v320l128 128h256l128 -128v-320l-128 -128h-256zM320 608l-128 64h-64l-64 -32l-64 32l128 64h64l128 -64h64l64 32l64 -32l-128 -64h-64z" />
    <glyph glyph-name="odieresis" unicode="&#xf6;" 
d="M320 128l64 64v192l-64 64h-128l-64 -64v-192l64 -64h128zM128 0l-128 128v320l128 128h256l128 -128v-320l-128 -128h-256zM96 608l-64 64l64 64l64 -64l-64 -64v0zM416 608l-64 64l64 64l64 -64l-64 -64v0z" />
    <glyph glyph-name="divide" unicode="&#xf7;" horiz-adv-x="921" 
d="M352 16l-32 16l-32 32l-16 32v64l16 32l32 32l32 16h64l32 -16l32 -32l16 -32v-64l-16 -32l-32 -32l-32 -16h-64zM0 320v128h768v-128h-768zM352 528l-32 16l-32 32l-16 32v64l16 32l32 32l32 16h64l32 -16l32 -32l16 -32v-64l-16 -32l-32 -32l-32 -16h-64z" />
    <glyph glyph-name="oslash" unicode="&#xf8;" 
d="M320 128l64 64v128l-192 -192h128zM128 256l192 192h-128l-64 -64v-128v0zM0 0v448l128 128h256v-1l32 -31l32 32h64v-448l-128 -128h-256v0l-32 32l-32 -32h-64z" />
    <glyph glyph-name="ugrave" unicode="&#xf9;" 
d="M128 0l-128 128v448h128v-384l64 -64h128l64 64v384h128v-576h-384zM320 608l-192 96l64 32l192 -96l-64 -32v0z" />
    <glyph glyph-name="uacute" unicode="&#xfa;" 
d="M128 0l-128 128v448h128v-384l64 -64h128l64 64v384h128v-576h-384zM192 608l-64 32l192 96l64 -32l-192 -96v0z" />
    <glyph glyph-name="ucircumflex" unicode="&#xfb;" 
d="M128 0l-128 128v448h128v-384l64 -64h128l64 64v384h128v-576h-384zM128 608l-64 32l192 96l192 -96l-64 -32l-128 64l-128 -64v0z" />
    <glyph glyph-name="udieresis" unicode="&#xfc;" 
d="M128 0l-128 128v448h128v-384l64 -64h128l64 64v384h128v-576h-384zM96 608l-64 64l64 64l64 -64l-64 -64v0zM416 608l-64 64l64 64l64 -64l-64 -64v0z" />
    <glyph glyph-name="yacute" unicode="&#xfd;" 
d="M128 -256l-128 128v64h128l64 -64h128l64 64v96l-32 -32h-224l-128 128v448h128v-384l64 -64h128l64 64v384h128v-704l-128 -128h-256zM192 608l-64 32l192 96l64 -32l-192 -96v0z" />
    <glyph glyph-name="thorn" unicode="&#xfe;" horiz-adv-x="601" 
d="M256 256l64 64v128l-64 64h-128v-256h128zM0 0v768h128v-128h192l128 -128v-256l-128 -128h-192v-128h-128z" />
    <glyph glyph-name="ydieresis" unicode="&#xff;" 
d="M128 -256l-128 128v64h128l64 -64h128l64 64v96l-32 -32h-224l-128 128v448h128v-384l64 -64h128l64 64v384h128v-704l-128 -128h-256zM96 608l-64 64l64 64l64 -64l-64 -64v0zM416 608l-64 64l64 64l64 -64l-64 -64v0z" />
    <glyph glyph-name="Uring" unicode="&#x16e;" 
d="M128 0l-128 128v640h128v-576l64 -64h128l64 64v576h128v-640l-128 -128h-256zM288 784l32 16l-32 16h-64l-32 -16l32 -16h64zM192 736l-64 32v64l64 32h128l64 -32v-64l-64 -32h-128z" />
    <glyph glyph-name="uring" unicode="&#x16f;" 
d="M128 0l-128 128v448h128v-384l64 -64h128l64 64v384h128v-576h-384zM288 656l32 16l-32 16h-64l-32 -16l32 -16h64zM192 608l-64 32v64l64 32h128l64 -32v-64l-64 -32h-128z" />
    <glyph glyph-name="Ydieresis" unicode="&#x178;" 
d="M192 0v256l-192 192v320h64l-32 32l64 64l64 -64l-32 -32v-256l128 -128l128 128v256l-32 32l64 64l64 -64l-32 -32h64v-320l-192 -192v-256h-128z" />
    <glyph glyph-name="uni0400" unicode="&#x400;" horiz-adv-x="601" 
d="M0 0v768h256l-128 64l64 32l192 -96h64v-128h-320v-192h256v-128h-256v-192h320v-128h-448z" />
    <glyph glyph-name="uni0401" unicode="&#x401;" horiz-adv-x="601" 
d="M0 0v768h64l-32 32l64 64l64 -64l-32 -32h192l-32 32l64 64l64 -64l-32 -32h64v-128h-320v-192h256v-128h-256v-192h320v-128h-448z" />
    <glyph glyph-name="uni0402" unicode="&#x402;" horiz-adv-x="857" 
d="M192 0v640h-192v128h512v-128h-192v-64h256l128 -128v-320l-128 -128h-128v64l128 128v192l-64 64h-128l-64 -64v-384h-128z" />
    <glyph glyph-name="uni0403" unicode="&#x403;" horiz-adv-x="601" 
d="M0 0v768h128l192 96l64 -32l-128 -64h192v-128h-320v-640h-128z" />
    <glyph glyph-name="uni0404" unicode="&#x404;" horiz-adv-x="601" 
d="M128 0l-128 128v512l128 128h320v-128h-256l-64 -64v-128h256v-128h-256v-128l64 -64h256v-128h-320z" />
    <glyph glyph-name="uni0405" unicode="&#x405;" 
d="M128 0l-128 128v64h128l64 -64h128l64 64v64l-64 64h-192l-128 128v192l128 128h256l128 -128v-64h-128l-64 64h-128l-64 -64v-64l64 -64h192l128 -128v-192l-128 -128h-256z" />
    <glyph glyph-name="uni0406" unicode="&#x406;" horiz-adv-x="281" 
d="M0 0v768h128v-768h-128z" />
    <glyph glyph-name="uni0407" unicode="&#x407;" horiz-adv-x="281" 
d="M0 0v768h128v-768h-128zM-32 736l-64 64l64 64l64 -64l-64 -64v0zM160 736l-64 64l64 64l64 -64l-64 -64v0z" />
    <glyph glyph-name="uni0408" unicode="&#x408;" 
d="M128 0l-128 128v192h128v-128l64 -64h128l64 64v576h128v-640l-128 -128h-256z" />
    <glyph glyph-name="uni0409" unicode="&#x409;" horiz-adv-x="1113" 
d="M768 128l64 64v64l-64 64h-192v-192h192zM0 0v64l64 64v640h512v-320h256l128 -128v-192l-128 -128h-384v640h-256v-576l-64 -64h-128z" />
    <glyph glyph-name="uni040A" unicode="&#x40a;" horiz-adv-x="1049" 
d="M704 128l64 64v64l-64 64h-192v-192h192zM0 0v768h128v-320h256v320h128v-320h256l128 -128v-192l-128 -128h-384v320h-256v-320h-128z" />
    <glyph glyph-name="uni040B" unicode="&#x40b;" horiz-adv-x="857" 
d="M192 0v640h-192v128h512v-128h-192v-64h256l128 -128v-448h-128v384l-64 64h-128l-64 -64v-384h-128z" />
    <glyph glyph-name="uni040C" unicode="&#x40c;" 
d="M0 0v768h128v-256l256 256h128v-64l-256 -256h-1l-31 -32l288 -288v-128h-64l-320 320v-320h-128zM192 736l-64 32l192 96l64 -32l-192 -96v0z" />
    <glyph glyph-name="uni040D" unicode="&#x40d;" 
d="M0 0v768h128v-256l256 256h128v-768h-128v576l-256 -256v-320h-128zM320 736l-192 96l64 32l192 -96l-64 -32v0z" />
    <glyph glyph-name="uni040E" unicode="&#x40e;" 
d="M128 0l-128 128v64h128l64 -64h128l64 64v96l-32 -32h-224l-128 128v384h128v-320l64 -64h128l64 64v320h128v-640l-128 -128h-256zM192 736l-64 32l-32 64l32 32l64 -32l32 -64h64l32 64l64 32l32 -32l-32 -64l-64 -32h-128z" />
    <glyph glyph-name="uni040F" unicode="&#x40f;" 
d="M192 -128v128h-192v768h128v-640h256v640h128v-768h-192v-128h-128z" />
    <glyph glyph-name="uni0410" unicode="&#x410;" 
d="M384 384v128l-128 128l-128 -128v-128h256zM0 0v576l192 192h128l192 -192v-576h-128v256h-256v-256h-128z" />
    <glyph glyph-name="uni0411" unicode="&#x411;" 
d="M320 128l64 64v64l-64 64h-192v-192h192zM0 0v768h512v-128h-384v-192h256l128 -128v-192l-128 -128h-384z" />
    <glyph glyph-name="uni0412" unicode="&#x412;" 
d="M320 128l64 64v64l-64 64h-192v-192h192zM320 448l64 64v64l-64 64h-192v-192h192zM0 0v768h384l128 -128v-192l-64 -64l64 -64v-192l-128 -128h-384z" />
    <glyph glyph-name="uni0413" unicode="&#x413;" 
d="M0 0v768h512v-128h-384v-640h-128z" />
    <glyph glyph-name="uni0414" unicode="&#x414;" horiz-adv-x="921" 
d="M512 64v576h-256v-384l-96 -192h352zM0 -192v256h32l96 192v512h512v-704h128v-256h-128v128h-512v-128h-128z" />
    <glyph glyph-name="uni0415" unicode="&#x415;" horiz-adv-x="601" 
d="M0 0v768h448v-128h-320v-192h256v-128h-256v-192h320v-128h-448z" />
    <glyph glyph-name="uni0416" unicode="&#x416;" horiz-adv-x="921" 
d="M0 0v64l128 128l64 128l64 64l-64 64l-64 128l-128 128v64h128l64 -64l64 -128l64 -64v256h128v-256l64 64l64 128l64 64h128v-64l-128 -128l-64 -128l-64 -64l64 -64l64 -128l128 -128v-64h-128l-64 64l-64 128l-64 64v-256h-128v256l-64 -64l-64 -128l-64 -64h-128z
" />
    <glyph glyph-name="uni0417" unicode="&#x417;" 
d="M128 0l-128 128v64h128l64 -64h128l64 64v64l-64 64h-128v128h128l64 64v64l-64 64h-128l-64 -64h-128v64l128 128h256l128 -128v-192l-64 -64l64 -64v-192l-128 -128h-256z" />
    <glyph glyph-name="uni0418" unicode="&#x418;" 
d="M0 0v768h128v-256l256 256h128v-768h-128v576l-256 -256v-320h-128z" />
    <glyph glyph-name="uni0419" unicode="&#x419;" 
d="M0 0v768h128v-256l256 256h128v-768h-128v576l-256 -256v-320h-128zM192 736l-64 32l-32 64l32 32l64 -32l32 -64h64l32 64l64 32l32 -32l-32 -64l-64 -32h-128z" />
    <glyph glyph-name="uni041A" unicode="&#x41a;" 
d="M0 0v768h128v-256l256 256h128v-64l-256 -256h-1l-31 -32l288 -288v-128h-64l-320 320v-320h-128z" />
    <glyph glyph-name="uni041B" unicode="&#x41b;" horiz-adv-x="729" 
d="M0 0v64l64 64v640h512v-768h-128v640h-256v-576l-64 -64h-128z" />
    <glyph glyph-name="uni041C" unicode="&#x41c;" horiz-adv-x="793" 
d="M0 0v768h128l192 -192l192 192h128v-768h-128v576l-192 -192l-192 192v-576h-128z" />
    <glyph glyph-name="uni041D" unicode="&#x41d;" 
d="M0 0v768h128v-320h256v320h128v-768h-128v320h-256v-320h-128z" />
    <glyph glyph-name="uni041E" unicode="&#x41e;" horiz-adv-x="857" 
d="M448 128l128 128v256l-128 128h-192l-128 -128v-256l128 -128h192zM192 0l-192 192v384l192 192h320l192 -192v-384l-192 -192h-320z" />
    <glyph glyph-name="uni041F" unicode="&#x41f;" 
d="M0 0v768h512v-768h-128v640h-256v-640h-128z" />
    <glyph glyph-name="uni0420" unicode="&#x420;" 
d="M320 448l64 64v64l-64 64h-192v-192h192zM0 0v768h384l128 -128v-192l-128 -128h-256v-320h-128z" />
    <glyph glyph-name="uni0421" unicode="&#x421;" 
d="M128 0l-128 128v512l128 128h256l128 -128v-64h-128l-64 64h-128l-64 -64v-384l64 -64h128l64 64h128v-64l-128 -128h-256z" />
    <glyph glyph-name="uni0422" unicode="&#x422;" 
d="M192 0v640h-192v128h512v-128h-192v-640h-128z" />
    <glyph glyph-name="uni0423" unicode="&#x423;" 
d="M128 0l-128 128v64h128l64 -64h128l64 64v96l-32 -32h-224l-128 128v384h128v-320l64 -64h128l64 64v320h128v-640l-128 -128h-256z" />
    <glyph glyph-name="uni0424" unicode="&#x424;" horiz-adv-x="793" 
d="M256 192v384h-64l-64 -64v-256l64 -64h64zM448 192l64 64v256l-64 64h-64v-384h64zM256 0v64h-128l-128 128v384l128 128h128v64h128v-64h128l128 -128v-384l-128 -128h-128v-64h-128z" />
    <glyph glyph-name="uni0425" unicode="&#x425;" 
d="M0 0v256l128 128l-128 128v256h128v-192l128 -128l128 128v192h128v-256l-128 -128l128 -128v-256h-128v192l-128 128l-128 -128v-192h-128z" />
    <glyph glyph-name="uni0426" unicode="&#x426;" horiz-adv-x="793" 
d="M512 -128v128h-512v768h128v-640h256v640h128v-640h128v-256h-128z" />
    <glyph glyph-name="uni0427" unicode="&#x427;" 
d="M384 0v320h-256l-128 128v320h128v-256l64 -64h128l64 64v256h128v-768h-128z" />
    <glyph glyph-name="uni0428" unicode="&#x428;" horiz-adv-x="793" 
d="M0 0v768h128v-640h128v640h128v-640h128v640h128v-768h-640z" />
    <glyph glyph-name="uni0429" unicode="&#x429;" horiz-adv-x="921" 
d="M640 -128v128h-640v768h128v-640h128v640h128v-640h128v640h128v-640h128v-256h-128z" />
    <glyph glyph-name="uni042A" unicode="&#x42a;" horiz-adv-x="921" 
d="M576 128l64 64v64l-64 64h-192v-192h192zM256 0v640h-256v128h384v-320h256l128 -128v-192l-128 -128h-384z" />
    <glyph glyph-name="uni042B" unicode="&#x42b;" horiz-adv-x="857" 
d="M320 128l64 64v64l-64 64h-192v-192h192zM0 0v768h128v-320h256l128 -128v-192l-128 -128h-384zM576 0v768h128v-768h-128z" />
    <glyph glyph-name="uni042C" unicode="&#x42c;" 
d="M320 128l64 64v64l-64 64h-192v-192h192zM0 0v768h128v-320h256l128 -128v-192l-128 -128h-384z" />
    <glyph glyph-name="uni042D" unicode="&#x42d;" horiz-adv-x="601" 
d="M0 0v128h256l64 64v128h-256v128h256v128l-64 64h-256v128h320l128 -128v-512l-128 -128h-320z" />
    <glyph glyph-name="uni042E" unicode="&#x42e;" horiz-adv-x="1049" 
d="M640 128l128 128v256l-128 128h-128l-128 -128v-256l128 -128h128zM0 0v768h128v-320h128v128l192 192h256l192 -192v-384l-192 -192h-256l-192 192v128h-128v-320h-128z" />
    <glyph glyph-name="uni042F" unicode="&#x42f;" 
d="M384 448v192h-192l-64 -64v-64l64 -64h192zM0 0v320l64 64l-64 64v192l128 128h384v-768h-128v320h-192l-64 -64v-256h-128z" />
    <glyph glyph-name="uni0430" unicode="&#x430;" 
d="M352 128l32 32v64h-224l-32 -32v-32l32 -32h192zM96 0l-96 96v160l96 96h288v64l-32 32h-192l-32 -32h-128v64l96 96h320l96 -96v-480h-416z" />
    <glyph glyph-name="uni0431" unicode="&#x431;" 
d="M320 128l64 64v192l-64 64h-128l-64 -64v-192l64 -64h128zM128 0l-128 128v512l192 192h320v-128h-256l-128 -128h256l128 -128v-320l-128 -128h-256z" />
    <glyph glyph-name="uni0432" unicode="&#x432;" horiz-adv-x="601" 
d="M256 128l64 64l-64 64h-128v-128h128zM256 384l64 64l-64 64h-128v-128h128zM0 0v640h320l128 -128v-128l-64 -64l64 -64v-128l-128 -128h-320z" />
    <glyph glyph-name="uni0433" unicode="&#x433;" horiz-adv-x="537" 
d="M0 0v640h384v-128h-256v-512h-128z" />
    <glyph glyph-name="uni0434" unicode="&#x434;" horiz-adv-x="793" 
d="M384 64v448h-128v-320l-64 -128h192zM0 -192v256h64l64 128v448h384v-576h128v-256h-128v128h-384v-128h-128z" />
    <glyph glyph-name="uni0435" unicode="&#x435;" 
d="M384 352v64l-32 32h-192l-32 -32v-64h256zM96 0l-96 96v384l96 96h320l96 -96v-192l-64 -64h-320v-64l32 -32h192l32 32h128v-64l-96 -96h-320z" />
    <glyph glyph-name="uni0436" unicode="&#x436;" horiz-adv-x="793" 
d="M0 0v64l96 192l64 64l-64 64l-96 192v64h128v-64l64 -128l64 -64v256h128v-256l64 64l64 128v64h128v-64l-96 -192l-64 -64l64 -64l96 -192v-64h-128v64l-64 128l-64 64v-256h-128v256l-64 -64l-64 -128v-64h-128z" />
    <glyph glyph-name="uni0437" unicode="&#x437;" horiz-adv-x="537" 
d="M128 0l-128 128v64h128l64 -64l64 64l-64 64h-64v128h64l64 64l-64 64l-64 -64h-128v64l128 128h128l128 -128v-128l-64 -64l64 -64v-128l-128 -128h-128z" />
    <glyph glyph-name="uni0438" unicode="&#x438;" horiz-adv-x="537" 
d="M0 0v640h128v-128l128 128h128v-640h-128v448l-128 -128v-320h-128z" />
    <glyph glyph-name="uni0439" unicode="&#x439;" horiz-adv-x="537" 
d="M128 512l96 96h-96v-96v0zM0 0v640h64l-32 64l32 32l64 -32l32 -64h64l32 64l64 32l32 -32l-32 -64h64v-640h-128v448l-128 -128v-320h-128z" />
    <glyph glyph-name="uni043A" unicode="&#x43a;" horiz-adv-x="537" 
d="M0 0v640h128v-128l128 128h128v-64l-192 -192h-1l-31 -32l224 -224v-128h-64l-192 192v-192h-128z" />
    <glyph glyph-name="uni043B" unicode="&#x43b;" horiz-adv-x="601" 
d="M0 0v64l64 64v512h384v-640h-128v512h-128v-448l-64 -64h-128z" />
    <glyph glyph-name="uni043C" unicode="&#x43c;" 
d="M0 0v640h128l128 -128l128 128h128v-640h-128v448l-128 -128l-128 128v-448h-128z" />
    <glyph glyph-name="uni043D" unicode="&#x43d;" horiz-adv-x="537" 
d="M0 0v640h128v-256h128v256h128v-640h-128v256h-128v-256h-128z" />
    <glyph glyph-name="uni043E" unicode="&#x43e;" horiz-adv-x="729" 
d="M384 128l64 64v256l-64 64h-192l-64 -64v-256l64 -64h192zM128 0l-128 128v384l128 128h320l128 -128v-384l-128 -128h-320z" />
    <glyph glyph-name="uni043F" unicode="&#x43f;" horiz-adv-x="537" 
d="M0 0v640h384v-640h-128v512h-128v-512h-128z" />
    <glyph glyph-name="uni0440" unicode="&#x440;" 
d="M320 128l64 64v192l-64 64h-128l-64 -64v-192l64 -64h128zM0 -192v768h384l128 -128v-320l-128 -128h-256v-192h-128z" />
    <glyph glyph-name="uni0441" unicode="&#x441;" 
d="M128 0l-128 128v320l128 128h256l128 -128v-64h-128l-64 64h-128l-64 -64v-192l64 -64h128l64 64h128v-64l-128 -128h-256z" />
    <glyph glyph-name="uni0442" unicode="&#x442;" horiz-adv-x="537" 
d="M128 0v512h-128v128h384v-128h-128v-512h-128z" />
    <glyph glyph-name="uni0443" unicode="&#x443;" horiz-adv-x="537" 
d="M128 -128l-128 128v64h128l64 -64l64 64v96l-32 -32h-96l-128 128v384h128v-320l64 -64l64 64v320h128v-640l-128 -128h-128z" />
    <glyph glyph-name="uni0444" unicode="&#x444;" 
d="M192 192v256l-64 -64v-128l64 -64v0zM320 192l64 64v128l-64 64v-256v0zM192 0v64h-64l-128 128v256l128 128h64v64h128v-64h64l128 -128v-256l-128 -128h-64v-64h-128z" />
    <glyph glyph-name="uni0445" unicode="&#x445;" 
d="M0 0v128l128 128v0l32 32l-160 160v128h128v-64l128 -128l128 128v64h128v-128l-128 -128h-1l-31 -32l160 -160v-128h-128v64l-128 128l-128 -128v-64h-128z" />
    <glyph glyph-name="uni1E9E" unicode="&#x1e9e;" horiz-adv-x="601" 
d="M0 0v704l64 64h256l64 -64v-192l-64 -64h-1l-31 -32l160 -160v-192l-64 -64h-192v128h64l64 64l-128 128v192l64 64v64h-128v-640h-128z" />
    <glyph glyph-name="emdash" unicode="&#x2014;" 
d="M0 320v128h512v-128h-512z" />
    <glyph glyph-name="quoteleft" unicode="&#x2018;" horiz-adv-x="281" 
d="M0 512v128l128 128v-256h-128z" />
    <glyph glyph-name="quoteright" unicode="&#x2019;" horiz-adv-x="281" 
d="M0 512v256h128v-128l-128 -128v0z" />
    <glyph glyph-name="quotesinglbase" unicode="&#x201a;" horiz-adv-x="281" 
d="M0 0v256h128v-128l-128 -128v0z" />
    <glyph glyph-name="quotereversed" unicode="&#x201b;" horiz-adv-x="281" 
d="M128 512l-128 128v128h128v-256v0z" />
    <glyph glyph-name="quotedblleft" unicode="&#x201c;" horiz-adv-x="473" 
d="M0 512v128l128 128v-256h-128zM192 512v128l128 128v-256h-128z" />
    <glyph glyph-name="quotedblright" unicode="&#x201d;" horiz-adv-x="473" 
d="M0 512v256h128v-128l-128 -128v0zM192 512v256h128v-128l-128 -128v0z" />
    <glyph glyph-name="quotedblbase" unicode="&#x201e;" horiz-adv-x="473" 
d="M0 0v256h128v-128l-128 -128v0zM192 0v256h128v-128l-128 -128v0z" />
    <glyph glyph-name="dagger" unicode="&#x2020;" horiz-adv-x="921" 
d="M0 0v128h768v-128h-768zM320 448v64h-128v192h-64v-256h192zM640 448v64h-128v192h-64v-256h192zM0 192v576h256v-192h64v192h256v-192h64v192h128v-576h-768z" />
    <glyph glyph-name="bullet" unicode="&#x2022;" horiz-adv-x="473" 
d="M64 256l-64 64v128l64 64h128l64 -64v-128l-64 -64h-128z" />
    <glyph glyph-name="ellipsis" unicode="&#x2026;" horiz-adv-x="793" 
d="M0 0v128h128v-128h-128zM256 0v128h128v-128h-128zM512 0v128h128v-128h-128z" />
    <glyph glyph-name="guilsinglleft" unicode="&#x2039;" horiz-adv-x="473" 
d="M256 128l-256 256l256 256h64v-128l-128 -128l128 -128v-128h-64z" />
    <glyph glyph-name="guilsinglright" unicode="&#x203a;" horiz-adv-x="473" 
d="M0 128v128l128 128l-128 128v128h64l256 -256l-256 -256h-64z" />
    <glyph glyph-name="Euro" unicode="&#x20ac;" 
d="M128 0l-128 128v512l128 128h256l128 -128v-64h-128l-64 64h-128l-64 -64h192v-128h-192v-64h192v-128h-192v-64l64 -64h128l64 64h128v-64l-128 -128h-256z" />
    <glyph glyph-name="trademark" unicode="&#x2122;" horiz-adv-x="793" 
d="M96 448v256h-96v64h256v-64h-96v-256h-64zM320 448v320h64l64 -64v-1l32 -31l96 96h64v-320h-64v224l-96 -96l-96 96v-224h-64z" />
    <glyph glyph-name="uni30A2" unicode="&#x30a2;" horiz-adv-x="793" 
d="M128 0v128l128 128v320h128v-384l-192 -192h-64zM448 384v128l64 64v64h-512v128h640v-256l-128 -128h-64z" />
    <glyph glyph-name="uni30A4" unicode="&#x30a4;" horiz-adv-x="729" 
d="M256 0v384l-64 -64h-192v128h128l320 320h128v-64l-192 -192v-512h-128z" />
    <glyph glyph-name="uni30A6" unicode="&#x30a6;" horiz-adv-x="793" 
d="M192 0v128h128l192 192v192h-384v-128h-128v256h256v128h128v-128h256v-384l-256 -256h-192z" />
    <glyph glyph-name="uni30A8" unicode="&#x30a8;" horiz-adv-x="921" 
d="M0 0v128h320v512h-256v128h640v-128h-256v-512h320v-128h-768z" />
    <glyph glyph-name="uni30AA" unicode="&#x30aa;" horiz-adv-x="921" 
d="M256 0v128h192v320l-256 -256h-192v128h128l192 192h-320v128h448v128h128v-128h192v-128h-192v-448l-64 -64h-256z" />
    <glyph glyph-name="uni30AB" unicode="&#x30ab;" horiz-adv-x="793" 
d="M0 0v128h128l64 64v320h-192v128h192v128h128v-128h320v-576l-64 -64h-192v128h128v384h-192v-384l-128 -128h-192z" />
    <glyph glyph-name="uni30AC" unicode="&#x30ac;" horiz-adv-x="793" 
d="M0 0v128h128l64 64v320h-192v128h192v128h128v-128h320v-576l-64 -64h-192v128h128v384h-192v-384l-128 -128h-192zM544 704l-48 96l32 64l48 -96l-32 -64v0zM640 704l-48 96l32 64l48 -96l-32 -64v0z" />
    <glyph glyph-name="uni30AF" unicode="&#x30af;" horiz-adv-x="921" 
d="M256 0v128h192l192 192v192h-448l-128 -128h-64v128l256 256h128v-64l-64 -64h448v-384l-256 -256h-256z" />
    <glyph glyph-name="uniFB00" unicode="&#xfb00;" horiz-adv-x="1049" 
d="M64 0v320h-64v128h64v224l96 96h192l96 -96v-96h-128v32l-32 32h-64l-32 -32v-160h320v224l96 96h192l96 -96v-96h-128v32l-32 32h-64l-32 -32v-160h192v-128h-192v-320h-128v320h-320v-320h-128z" />
    <glyph glyph-name="uniFB01" unicode="&#xfb01;" horiz-adv-x="729" 
d="M64 0v320h-64v128h64v224l96 96h224v-128h-160l-32 -32v-160h384v-448h-128v320h-256v-320h-128zM448 640v128h128v-128h-128z" />
    <glyph glyph-name="uniFB02" unicode="&#xfb02;" horiz-adv-x="793" 
d="M64 0v320h-64v128h64v224l96 96h416v-640h64v-128h-256v128h64v512h-224l-32 -32v-160h192v-128h-192v-320h-128z" />
    <glyph glyph-name="uniFB03" unicode="&#xfb03;" horiz-adv-x="1177" 
d="M64 0v320h-64v128h64v224l96 96h192l96 -96v-96h-128v32l-32 32h-64l-32 -32v-160h320v224l96 96h224v-128h-160l-32 -32v-160h384v-448h-128v320h-256v-320h-128v320h-320v-320h-128zM896 640v128h128v-128h-128z" />
    <glyph glyph-name="uniFB04" unicode="&#xfb04;" horiz-adv-x="1241" 
d="M64 0v320h-64v128h64v224l96 96h192l96 -96v-96h-128v32l-32 32h-64l-32 -32v-160h320v224l96 96h416v-640h64v-128h-256v128h64v512h-224l-32 -32v-160h192v-128h-192v-320h-128v320h-320v-320h-128z" />
    <glyph glyph-name="uniFB06" unicode="&#xfb06;" horiz-adv-x="921" 
d="M64 0l-64 64v96h96l32 -32h160l32 32v32l-32 32h-192l-96 96v160l96 96h416v192h128v-192h128v-128h-128v-288l32 -32h96v-128h-160l-96 96v352h-352l-32 -32v-32l32 -32h192l96 -96v-160l-96 -96h-288z" />
  </font>
</defs>
</svg>
