<?xml version="1.0" encoding="UTF-8"?><svg id="Layer_1" xmlns="http://www.w3.org/2000/svg" viewBox="0 0 263.17 72.47" preserveAspectRatio="none"><defs><style>.cls-1{fill:#baeafe;}.cls-2{fill:#a8e4fe;}.cls-3{fill:#aee6fe;}</style></defs><path class="cls-1" d="M256.46,17.01c1.03,.7,2.06,1.39,3.5,2.36-6.07,7.42-12.03,14.56-17.84,21.83-4.22,5.28-8.76,10.39-12.16,16.16-3.05,5.19-7.86,5.9-13.67,6.21-9.98,.53-19.84,1.69-29.79,2.39-6.97,.5-13.65,2.06-21.01,1.18-6-.72-12,.12-18.02,.19-4.95,.06-9.91,.07-14.88,.02-9.94-.1-19.88-.28-29.82-.38-6.93-.07-13.88-.3-20.76-.07-16.93,.57-34.22-1.84-51.01,.13-6.53,.77-13.44,.16-20.19-.06-1.41-.05-3.23-.9-4.27-1.9-.73-.7-1.04-2.75-.5-3.43,4.5-5.61,9.32-10.99,13.88-16.55,3.55-4.33,6.88-8.83,10.28-13.28,3.98-5.21,7.88-10.48,11.98-15.6,.57-.71,2.09-.73,3.18-1.07,1.49,4.11,4.49,4.99,8.59,4.65,12.9-1.09,26.03-.04,39.15,.96,10.08,.77,20.16,.98,30.1,.87,16.8-.19,33.75,1.22,50.49,.87,17.25-.36,34.68,.37,51.65-2.08,8.16-1.18,16.65-2.66,25.5,.42,3.79,1.32,3.3-3.07,5.64-3.83Z"/><path class="cls-2" d="M256.46,17.01c-.02,3.58-1.51,6.16-5.7,7.31-.21-.91-.41-1.75-.78-3.29-3.63,0-7.47-.07-11.3,.03-9.33,.24-18.58,.73-27.53,2.74-3.26,.73-7.04,.08-10.57,.14-7.4,.13-14.78,.35-22.18,.45-3.89,.05-7.8-.01-11.71-.17-10.69-.45-21.4-1.15-32.08-1.42-8.32-.21-16.58,.19-24.89,.12-5.32-.04-10.69-.16-16.03-.72-7.89-.83-15.72-.14-23.44-1-6.92-.76-13.2,.35-19.81,.29-4.8-.04-6.3-2.04-5.1-6.35,1.44,.13,2.88,.26,4.31,.39,1.82-.03,3.81,.81,5.44-.28,1.79,.14,3.59,.29,5.38,.43,2.18-.02,4.53,1.06,6.52-.17l4.3,.34c.87,.1,1.55-.22,2.2-.63,1.07,.08,2.15,.16,3.22,.25,2.53-.07,5.23,1.22,7.61-.02,2.88,.27,5.76,.54,8.64,.81,4.68-.06,9.51,1.98,14.09,.61,1.08,.1,2.16,.19,3.24,.29,2.52-.12,5.24,1.23,7.59-.07,1.8,.16,3.6,.33,5.4,.49,1.82-.04,3.82,.82,5.43-.31,1.44,.13,2.88,.26,4.32,.39,2.17-.09,4.53,1.03,6.51-.21,1.44,.12,2.87,.24,4.31,.37,2.17-.04,4.53,1.06,6.52-.19,2.52,.25,5.04,.49,7.56,.74,2.88-.09,5.94,1.36,8.69,.09,2.52,.23,5.04,.46,7.56,.69,1.82-.04,3.84,.85,5.42-.36,.72,.06,1.43,.11,2.15,.17,1.19,.12,2.36,.18,3.26-.58,.72,.06,1.43,.11,2.15,.17,1.18,.12,2.35,.19,3.27-.53,1.44,.13,2.87,.25,4.31,.38,1.49,.05,3.08,.54,4.36-.36,2.15,.17,4.31,.35,6.46,.52,1.19,.13,2.36,.19,3.27-.56,.71,.05,1.43,.09,2.14,.14,3.46,.01,6.8-.33,9.78-1.76,1.07,.07,2.14,.14,3.22,.21,.86,.09,1.55-.24,2.2-.63,1.07,.08,2.15,.15,3.22,.23,1.18,.11,2.35,.17,3.27-.54,.72,.06,1.44,.12,2.16,.18,1.48-.02,3.09,.5,4.34-.46,1.07,.08,2.15,.15,3.22,.23,1.18,.11,2.35,.18,3.27-.54,3.6,.66,7.21,1.32,10.81,1.98Z"/><path class="cls-1" d="M107.06,16.87c-.33,.51-.68,1.5-1,1.45-4.37-.6-8.73-1.35-13.09-2.06,2.55-.06,5.08-.24,7.64-.14,2.14,.08,4.3,.49,6.45,.75Z"/><path class="cls-1" d="M220.75,16.35c-2.59,2.4-6.38,3.08-9.78,1.76,3.26-.59,6.52-1.17,9.78-1.76Z"/><path class="cls-1" d="M166.61,18.43c-2.53,3.18-5.64,1.26-8.69-.09,2.9,.03,5.79,.06,8.69,.09Z"/><path class="cls-1" d="M84.33,15.46c-2.17,2.83-4.86,1.62-7.61,.02,2.54,0,5.07-.01,7.61-.02Z"/><path class="cls-1" d="M117.89,17.09c-2.13,2.91-4.85,1.63-7.59,.07,2.53-.02,5.06-.05,7.59-.07Z"/><path class="cls-1" d="M67,15.52c-1.73,2.91-4.09,1.73-6.52,.17,2.17-.06,4.35-.11,6.52-.17Z"/><path class="cls-1" d="M139.54,17.44c-1.65,3.2-4.13,1.43-6.51,.21,2.17-.07,4.34-.14,6.51-.21Z"/><path class="cls-1" d="M150.36,17.61c-1.71,2.92-4.09,1.73-6.52,.19,2.17-.06,4.34-.13,6.52-.19Z"/><path class="cls-1" d="M55.1,15.26c-1.33,2.68-3.31,1.89-5.44,.28,1.81-.09,3.62-.19,5.44-.28Z"/><path class="cls-1" d="M128.71,17.27c-1.31,2.72-3.29,1.91-5.43,.31,1.81-.1,3.62-.21,5.43-.31Z"/><path class="cls-1" d="M179.59,18.76c-1.23,2.99-3.29,1.83-5.42,.36,1.81-.12,3.61-.24,5.42-.36Z"/><path class="cls-1" d="M239.15,15.35c-.83,2.68-2.52,1.81-4.34,.46,1.45-.15,2.89-.3,4.34-.46Z"/><path class="cls-1" d="M199.1,18c-.9,2.64-2.57,1.77-4.36,.36,1.45-.12,2.91-.24,4.36-.36Z"/><path class="cls-1" d="M232.65,15.62c-.5,2.06-1.55,2.39-3.27,.54,1.09-.18,2.18-.36,3.27-.54Z"/><path class="cls-1" d="M208.82,17.97c-.48,2.09-1.52,2.44-3.27,.56,1.09-.19,2.18-.37,3.27-.56Z"/><path class="cls-1" d="M190.42,17.99c-.51,2.07-1.55,2.4-3.27,.53,1.09-.18,2.18-.35,3.27-.53Z"/><path class="cls-1" d="M185,18.35c-.47,2.1-1.5,2.46-3.26,.58,1.09-.19,2.18-.38,3.26-.58Z"/><path class="cls-1" d="M245.64,15.03c-.5,2.06-1.55,2.39-3.27,.54,1.09-.18,2.18-.36,3.27-.54Z"/><path class="cls-1" d="M226.16,15.93c-.24,1.33-.6,2.37-2.2,.63,.73-.21,1.46-.42,2.2-.63Z"/><path class="cls-1" d="M73.5,15.23c-.27,1.25-.55,2.49-2.2,.63,.73-.21,1.47-.42,2.2-.63Z"/><path class="cls-3" d="M221.7,46.13c.63,.72,.77,.84,.86,.98,.83,1.43,1.64,2.86,2.46,4.28,1.47-.85,3.18-1.49,4.36-2.61,2.35-2.23,4.38-4.74,6.59-7.1,.27-.29,.82-.36,2.09,.01-1.1,1.8-2.1,3.67-3.34,5.39-1.68,2.33-3.98,4.32-5.23,6.86-2.16,4.39-6.04,6.3-10.99,6.7-9.77,.79-19.61,1.23-29.39,1.98-7.14,.55-14.19,1.52-21.34,2.01-6.12,.42-12.3,.56-18.49,.55-10.46-.02-20.94-.25-31.41-.42-7.46-.12-14.94-.37-22.38-.39-11.69-.03-23.33,.82-35.04-.1-10.63-.84-20.88,.36-31.4-.11-5.32-.24-10.59,.12-15.9,.16-.65,0-1.36-.35-2.39-.63,2.03-4.15,4.06-7.75,9.79-7.68,1.16,.01,2.31-.67,3.31-1.24,3.11-1.75,6.1-2.74,9.75,.3,1.53,1.28,3.36,1.12,4.79-.24,2.69-2.55,5.37-5.11,8.25-7.48,3.67-3.03,6.18-2.62,9.77,1.27,.48,.52,1.01,1.24,1.61,1.41,6.9,1.96,13.83,5.24,20.69,2.07,2.74-1.27,5.43-1.1,8.71,.11,3.58,1.32,7.32,1.3,10.73-.68,3.13-1.82,6.6-2.21,11.03-.96,8.21,2.32,16.68,3.44,25.04,5.03,6.02,1.14,11.1-.74,16.18-2.69,3.62-1.39,7.24-2.81,11.02-3.86,2.39-.66,4.94-.51,6.37,2.53,1.05,2.22,3.34,2.47,5.18,2.08,2.67-.56,5.2-1.56,7.65-2.61,3.08-1.32,5.95-2.99,9.03-4.32,5.12-2.21,10.71-2.11,16.59-1.33,5.15,.68,10.32,.52,15.42,.73Z"/></svg>