<svg xmlns="http://www.w3.org/2000/svg" xmlns:xlink="http://www.w3.org/1999/xlink" viewBox="0 0 873 1337"><defs><linearGradient id="linear-gradient" x1="617.89" y1="584.55" x2="454.94" y2="1149.09" gradientUnits="userSpaceOnUse"><stop offset="0" stop-color="#facd00"/><stop offset="1" stop-color="#f7941d"/></linearGradient><linearGradient id="linear-gradient-2" x1="450.52" y1="749.17" x2="409.04" y2="916.81" gradientUnits="userSpaceOnUse"><stop offset="0" stop-color="#c60034"/><stop offset=".23" stop-color="#c30134"/><stop offset=".43" stop-color="#b80333"/><stop offset=".61" stop-color="#a70732"/><stop offset=".78" stop-color="#8f0c30"/><stop offset=".94" stop-color="#70132d"/><stop offset="1" stop-color="#63162c"/></linearGradient><linearGradient id="linear-gradient-3" x1="583.23" y1="782.01" x2="541.75" y2="949.64" gradientUnits="userSpaceOnUse"><stop offset="0" stop-color="#c60034"/><stop offset=".23" stop-color="#c30134"/><stop offset=".43" stop-color="#b80333"/><stop offset=".61" stop-color="#a70732"/><stop offset=".78" stop-color="#8f0c30"/><stop offset=".94" stop-color="#70132d"/><stop offset="1" stop-color="#63162c"/></linearGradient><linearGradient id="linear-gradient-4" x1="451.93" y1="1008.55" x2="440.56" y2="1146.81" xlink:href="#linear-gradient-3"/><linearGradient id="linear-gradient-5" x1="182.3" y1="1066.48" x2="311.67" y2="1066.48" gradientUnits="userSpaceOnUse"><stop offset="0" stop-color="#f2f2f2"/><stop offset=".89" stop-color="#ccc"/></linearGradient><linearGradient id="linear-gradient-6" x1="535.4" y1="1019.52" x2="521.67" y2="1136.41" xlink:href="#linear-gradient-5"/><linearGradient id="linear-gradient-7" x1="274.07" y1="720.98" x2="272.47" y2="939.32" gradientUnits="userSpaceOnUse"><stop offset="0" stop-color="#e8648d"/><stop offset=".23" stop-color="#e7618a"/><stop offset=".42" stop-color="#e35681"/><stop offset=".6" stop-color="#dd4572"/><stop offset=".77" stop-color="#d52d5c"/><stop offset=".94" stop-color="#cb0e40"/><stop offset="1" stop-color="#c60034"/></linearGradient><linearGradient id="linear-gradient-8" x1="331.88" y1="721.4" x2="330.28" y2="939.75" xlink:href="#linear-gradient-7"/><linearGradient id="linear-gradient-9" x1="389.7" y1="721.83" x2="388.09" y2="940.17" xlink:href="#linear-gradient-7"/><linearGradient id="linear-gradient-10" x1="447.51" y1="722.25" x2="445.9" y2="940.6" xlink:href="#linear-gradient-7"/><linearGradient id="linear-gradient-11" x1="446.43" y1="754.13" x2="449.05" y2="800.44" gradientUnits="userSpaceOnUse"><stop offset="0" stop-color="#f7941d"/><stop offset=".66" stop-color="#fdd787"/><stop offset=".89" stop-color="#ffefad" stop-opacity="0"/></linearGradient><linearGradient id="linear-gradient-12" x1="386.62" y1="757.51" x2="389.24" y2="803.83" xlink:href="#linear-gradient-11"/><linearGradient id="linear-gradient-13" x1="263.68" y1="764.47" x2="266.3" y2="810.79" xlink:href="#linear-gradient-11"/><linearGradient id="linear-gradient-14" x1="324.71" y1="761.02" x2="327.33" y2="807.33" xlink:href="#linear-gradient-11"/><linearGradient id="linear-gradient-15" x1="678.51" y1="758.38" x2="586.65" y2="1096.48" gradientUnits="userSpaceOnUse"><stop offset="0" stop-color="#facd00"/><stop offset=".29" stop-color="#faca02"/><stop offset=".54" stop-color="#f9bf07"/><stop offset=".77" stop-color="#f8ae10"/><stop offset=".98" stop-color="#f7961c"/><stop offset="1" stop-color="#f7941d"/></linearGradient><linearGradient id="linear-gradient-16" x1="829.47" y1="499.46" x2="684.03" y2="589.84" gradientUnits="userSpaceOnUse"><stop offset="0" stop-color="#ffefad"/><stop offset="1" stop-color="#f7941d"/></linearGradient><linearGradient id="linear-gradient-17" x1="556.16" y1="385.33" x2="455.54" y2="866.08" xlink:href="#linear-gradient-16"/><linearGradient id="linear-gradient-18" x1="640.72" y1="413.88" x2="553.84" y2="505.43" gradientUnits="userSpaceOnUse"><stop offset="0" stop-color="#f7941d"/><stop offset=".48" stop-color="#fdd787"/><stop offset=".89" stop-color="#ffefad" stop-opacity="0"/></linearGradient><linearGradient id="linear-gradient-19" x1="318.04" y1="492.88" x2="456.3" y2="558.99" xlink:href="#linear-gradient-11"/><linearGradient id="linear-gradient-20" x1="474.85" y1="464.21" x2="550.13" y2="777.9" gradientUnits="userSpaceOnUse"><stop offset="0" stop-color="#f7941d"/><stop offset=".08" stop-color="#dd7e20"/><stop offset=".21" stop-color="#b85e23"/><stop offset=".34" stop-color="#994427"/><stop offset=".48" stop-color="#813029"/><stop offset=".63" stop-color="#70212b"/><stop offset=".79" stop-color="#66192c"/><stop offset="1" stop-color="#63162c"/></linearGradient><linearGradient id="linear-gradient-21" x1="735.31" y1="345.54" x2="753.39" y2="345.54" gradientUnits="userSpaceOnUse"><stop offset="0" stop-color="#43ace0"/><stop offset=".26" stop-color="#41a9dd"/><stop offset=".47" stop-color="#3d9ed4"/><stop offset=".67" stop-color="#358dc5"/><stop offset=".86" stop-color="#2975af"/><stop offset="1" stop-color="#1f5f9c"/></linearGradient><linearGradient id="linear-gradient-22" x1="598.37" y1="278.28" x2="628.09" y2="278.28" xlink:href="#linear-gradient-21"/><linearGradient id="linear-gradient-23" x1="693.2" y1="249.19" x2="727.4" y2="249.19" xlink:href="#linear-gradient-21"/><linearGradient id="linear-gradient-24" x1="98.2" y1="462.97" x2="360.97" y2="647.35" gradientUnits="userSpaceOnUse"><stop offset="0" stop-color="#43ace0"/><stop offset=".05" stop-color="#5ca1d3"/><stop offset=".14" stop-color="#8291c1"/><stop offset=".23" stop-color="#a183b1"/><stop offset=".33" stop-color="#bb78a4"/><stop offset=".45" stop-color="#cf6f99"/><stop offset=".57" stop-color="#dd6992"/><stop offset=".73" stop-color="#e6658e"/><stop offset="1" stop-color="#e8648d"/></linearGradient><linearGradient id="linear-gradient-25" x1="318.62" y1="1025.01" x2="309.3" y2="1165.25" xlink:href="#linear-gradient-3"/><linearGradient id="linear-gradient-26" x1="539.56" y1="1040.3" x2="530.25" y2="1180.53" gradientUnits="userSpaceOnUse"><stop offset="0" stop-color="#c60034"/><stop offset=".23" stop-color="#c30134"/><stop offset=".43" stop-color="#b80333"/><stop offset=".61" stop-color="#a70732"/><stop offset=".78" stop-color="#8f0c30"/><stop offset=".94" stop-color="#70132d"/><stop offset="1" stop-color="#63162c"/></linearGradient><linearGradient id="linear-gradient-27" x1="294.23" y1="1096.4" x2="288.95" y2="1257.43" xlink:href="#linear-gradient-20"/><linearGradient id="linear-gradient-28" x1="532.34" y1="1147.6" x2="532.34" y2="1249.23" xlink:href="#linear-gradient-20"/><linearGradient id="linear-gradient-29" x1="423.23" y1="1120.03" x2="401.2" y2="1209.07" xlink:href="#linear-gradient-21"/><clipPath id="clip-path"><path class="cls-1" d="M249 1031.14l-39.17-110a27.73 27.73 0 006.71 10.29 47 47 0 0012.56 8.7 83.7 83.7 0 0018.42 6.32 135.77 135.77 0 0023.9 3.08l31.86 115.95a90.55 90.55 0 01-20-4.23 67.72 67.72 0 01-16-7.73 51.25 51.25 0 01-11.46-10.34 41.45 41.45 0 01-6.82-12.04z"/></clipPath><clipPath id="clip-path-2"><path class="cls-1" d="M514 900.81l-6.51 64.39q-2.7 26.64-5.38 53.27a49.17 49.17 0 01-8.93 23.25 71.06 71.06 0 01-21.18 19.46 100.34 100.34 0 01-31.08 12.31 117.53 117.53 0 01-36.79 2.09l-9.76-120.5a197.39 197.39 0 0045.53-3.23 155.23 155.23 0 0038.36-12.27c10.76-5.2 19.46-11.37 25.61-18.14 5.88-6.51 9.37-13.44 10.13-20.63z"/></clipPath><style>.cls-1,.cls-7{fill:none}.cls-3{fill:#f7941d}.cls-6{fill:#63162c}.cls-7{stroke:#000;stroke-miterlimit:10;stroke-width:10px}.cls-9{fill:#facd00}.cls-14{isolation:isolate}.cls-16{fill:#ffefad}.cls-18{fill:#fff}.cls-21,.cls-39{fill:#c60034}.cls-37{fill:#a2ddf4}.cls-39{font-size:44.21px;font-family:SuperMario,Super Mario}</style></defs><g id="Mario"><g id="Mario-2" data-name="Mario"><g id="Shirt"><path fill="url(#linear-gradient)" d="M776.42 118.69L654.09 1205.71l-431.25.96 291.52-628 262.06-459.98z"/><path class="cls-3" d="M533.07 628.64l-47.61 142.77c21.17 4.37 43.92 1.65 67-5.93l37.74-152.1c-18.86 4.43-38.34 9.52-57.13 15.26zM490.12 647.58l-46.2 94.78c6.21 6.55 3.4 12 10.22 16.32l48.32-119.78c-7.52 2.78-5.46 5.67-12.34 8.68zM633.88 604l-27.37 136c37.89-22.76 74.12-54 103.11-83.64l1.7-65.47s-33.26 4.38-77.44 13.11z"/><path d="M761.05 165.88l-115.9 1029.85-406.63.91 284.74-613.38 237.79-417.38m15.37-47.19l-262.06 460-291.52 628 431.25-1 122.33-1087z"/></g><g id="Susps"><path fill="url(#linear-gradient-2)" d="M600.18 427.39l-270.55 811.36-72.1 7.34 299.74-743.06"/><path fill="url(#linear-gradient-3)" d="M707.44 238.28l-197.56 982.11-72.1 7.34 226.76-913.8"/><path class="cls-6" d="M502.46 638.9l-48.32 119.78a92.15 92.15 0 0031.32 12.73l47.61-142.77c-10.5 3.22-20.77 6.64-30.61 10.26zM590.23 613.38l-37.74 152.1c18-5.89 36.19-14.72 54-25.44l27.37-136c-13.7 2.65-28.47 5.78-43.63 9.34z"/><path class="cls-7" d="M600.18 427.39l-270.55 811.36-72.1 7.34 299.74-743.06M707.44 238.28l-197.56 982.11-72.1 7.34 226.76-913.8"/><path d="M761.05 165.88l-115.92 1030-415.69 9.74 293.8-622.36 237.81-417.38m15.37-47.19l-262.06 460L213.49 1216l440.6-10.31 122.33-1087z"/><path class="cls-7" d="M257.53 1246.09l299.74-743.06M600.18 427.39l-270.55 811.36M437.78 1227.74l226.76-913.81M707.44 238.28l-197.56 982.11"/></g><g id="Pants"><path fill="url(#linear-gradient-4)" d="M374 934l303.52 20.35-23.43 251.36L213 1225.02 374 934z"/><path class="cls-6" d="M251.82 1076l32 55.39c7.11 2.78 15.27.69 19.09-4.48 29.67 10.1 65 13.47 102 8a239.17 239.17 0 0043.51-10.59c4.59 10 26.35 21.27 42.32 7.11l6.54-2.89a17.87 17.87 0 018.32-1.49l45 6.58a17.9 17.9 0 0012-3.67l46.86-36 11.24 3.83 52.86-121.34z"/><path d="M363.8 944.39l302.8 19.28-21.6 232.24-420.1 9.38 138.9-260.9M358 934l-150 281.66 446.09-10 23.43-251.36L358 934z" id="Pants-2" data-name="Pants"/><circle class="cls-9" cx="538" cy="955" r="33"/><path d="M538 927a28 28 0 11-28 28 28 28 0 0128-28m0-10a38 38 0 1038 38 38 38 0 00-38-38z"/></g><g id="Hand_back_" data-name="Hand (back)"><path d="M209.54 1015.8l-22.93 20.09c-3.89 3.4-5.28 8.21-3.61 12.51l2.86 7.39c2.42 6.25 10.49 9.59 18.29 7.56l1.56-.4c9-2.34 18 2.48 18.91 10.1l2.3 20.19c.59 5.11 5 9.25 11 10.38L292.9 1121c8.53 1.59 17.21-3.24 18.77-10.45l-20.28-27.8a10.49 10.49 0 00-3-9.71l-56.29-57c-5.57-5.72-16.19-5.81-22.56-.24z" fill="url(#linear-gradient-5)"/><path d="M221 1021.68a5.86 5.86 0 014 1.32l56.29 57c.36.35.32.51.31.56l-.95 4.39 2.64 3.63 16.06 22a8.22 8.22 0 01-3.18.65c-.32 0-.65 0-1-.06L241 1094.08l-.58-.18-.6-.11c-2.1-.39-2.9-1.44-2.93-1.69l-2.3-20.19c-1.27-11.15-11.69-19.56-24.23-19.56a28.23 28.23 0 00-7.13.92l-1.56.4a8.34 8.34 0 01-2.1.27c-2.56 0-4.13-1.16-4.36-1.76l-2.86-7.39c-.07-.19.19-.78.88-1.38l22.93-20.08a7.45 7.45 0 014.84-1.65m0-10a17.42 17.42 0 00-11.43 4.12l-22.93 20.09c-3.89 3.4-5.28 8.21-3.61 12.51l2.86 7.39c1.94 5 7.52 8.15 13.68 8.15a18.45 18.45 0 004.61-.59l1.56-.4a18.55 18.55 0 014.62-.6c7.26 0 13.58 4.39 14.29 10.7l2.3 20.19c.59 5.11 5 9.25 11 10.38L292.9 1121a17.53 17.53 0 003.29.31c7.36 0 14.12-4.48 15.48-10.76l-20.28-27.8a10.49 10.49 0 00-3-9.71l-56.29-57a15.63 15.63 0 00-11.17-4.32z"/></g><g id="Hand"><path d="M560.86 1116.4a17.85 17.85 0 01-12 3.67l-44.95-6.58a17.86 17.86 0 00-8.32 1.5l-6.54 2.89c-16.71 14.81-39.77 1.81-42.86-8.5l-1.31-4.39a17.85 17.85 0 014.17-17.45l104.52-109.76a17.87 17.87 0 0130.12 7.38l26.77 93.1z" fill="url(#linear-gradient-6)"/><path d="M566.45 982.22a7.86 7.86 0 017.63 5.71l24.92 86.55-44.21 34a7.87 7.87 0 01-4.8 1.64h-.14l-44.45-6.51-.42-.06h-2.12a27.75 27.75 0 00-11.28 2.38l-6.53 2.9-1.43.62-1.16 1a15.72 15.72 0 01-10.7 4.15c-8.1 0-15.15-5.66-16-8l-1.32-4.39a7.9 7.9 0 011.85-7.69l104.5-109.76a7.65 7.65 0 015.64-2.45m0-10a17.63 17.63 0 00-12.88 5.56l-104.49 109.67a17.85 17.85 0 00-4.17 17.45l1.31 4.39c2.09 7 13.31 15.17 25.53 15.17a25.64 25.64 0 0017.33-6.67l6.54-2.89a17.84 17.84 0 017.23-1.53h1.09l44.95 6.58h1.09a17.9 17.9 0 0010.9-3.71l49.6-38.14-26.77-93.1a17.81 17.81 0 00-17.24-12.94z"/></g><g id="Plate"><ellipse cx="382.31" cy="1010.1" rx="167.93" ry="116.49" transform="rotate(-8.35 382.267 1010.071)" fill="#7f7f7f"/><path d="M400.33 902.27c35.63 0 69.2 8.68 94.53 24.43 12.3 7.65 22.3 16.71 29.74 26.92a75.1 75.1 0 0114 33.55c4 27.44-7.92 55.81-33.64 79.88-26.72 25-64.77 42.19-107.15 48.41a231.23 231.23 0 01-33.48 2.47c-35.64 0-69.21-8.68-94.53-24.43-12.3-7.65-22.31-16.7-29.74-26.92a75.1 75.1 0 01-14-33.55c-4-27.44 7.92-55.81 33.64-79.88 26.71-25 64.77-42.19 107.15-48.41a231.23 231.23 0 0133.48-2.47m0-10a240.63 240.63 0 00-34.93 2.58c-91.76 13.47-158.58 76-149.23 139.64 8.13 55.43 71.34 93.44 148.13 93.44a240.63 240.63 0 0034.93-2.58c91.76-13.47 158.57-76 149.23-139.63-8.13-55.44-71.34-93.45-148.13-93.45z"/></g><g id="Cake"><path d="M519 899l-2.14-12.42-4.14-24-2.86-16.58c-1.95-11.37-13.76-17.65-23.56-21.38-14.24-5.4-29.75-7.39-44.9-7.73-4.8-.11-9.6 0-14.4.12l-19.7.39-25 .5-21.66.43-10.18.2a181.23 181.23 0 00-44.65 6.49 138.92 138.92 0 00-21.94 8 71.61 71.61 0 00-17.94 11.39c-3.09 2.81-5.85 6-8.71 9.06l-15.85 16.82-15.67 16.62c-3.29 3.49-6.77 6.91-9.71 10.7-4.13 5.34-7.41 11.69-7.83 18.54a24.52 24.52 0 001.67 10.21l3.72 9.79 7.07 18.66 8.69 22.92 8.75 23.09 7.05 18.6 3.78 9.95c3.89 10.28 11.59 18.25 21.08 23.59 9.2 5.18 19.56 7.83 30 8.91l10.59 1.1 19.67 2 24.4 2.54 24.49 2.55 20.43 2.13 11.72 1.22a117.22 117.22 0 0028.14-.28c15.13-2.09 30-7.34 42.47-16.34 11.26-8.15 20.53-19.78 23.39-33.65.65-3.13.93-6.36 1.32-9.53l2-16.71 2.84-23.24 3-24.89 2.71-22.21L519 912c.12-1 .27-2 .37-3a2.46 2.46 0 000-.76 17.46 17.46 0 010-3.39A29 29 0 00519 899zm-4.33 20zm-286.92 24" stroke-width="20" stroke="#000" stroke-miterlimit="10" fill="none"/><g class="cls-14"><g clip-path="url(#clip-path)"><path class="cls-16" d="M271.41 949.57l31.86 115.95a90.55 90.55 0 01-20-4.23 67.72 67.72 0 01-16-7.73 51.25 51.25 0 01-11.46-10.34 41.45 41.45 0 01-6.82-12.08l-39.17-110a27.73 27.73 0 006.71 10.29 47 47 0 0012.56 8.7 83.7 83.7 0 0018.42 6.32 135.77 135.77 0 0023.9 3.08"/></g><path class="cls-16" d="M394.33 955.08l9.77 120.5-100.83-10.06-31.86-115.95 122.92 5.51z"/><g clip-path="url(#clip-path-2)"><path class="cls-16" d="M514 900.81l-11.89 117.66a49.17 49.17 0 01-8.93 23.25 71.06 71.06 0 01-21.18 19.46 100.34 100.34 0 01-31.08 12.31 117.53 117.53 0 01-36.79 2.09l-9.76-120.5a197.39 197.39 0 0045.53-3.23 155.23 155.23 0 0038.36-12.27c10.76-5.2 19.46-11.37 25.61-18.14 5.91-6.51 9.4-13.49 10.12-20.63"/></g><path class="cls-18" d="M427.11 815.61a183.79 183.79 0 0128.72 1.62 127.33 127.33 0 0124.59 5.77c7.43 2.64 13.71 5.92 18.34 9.73 4.82 4 7.88 8.54 8.57 13.57l6.52 48.05c1 7.64-1.16 15.24-6.23 22.4-5.28 7.49-13.63 14.42-24.47 20.32C472 943.13 458.4 948 443.2 951.19a197.47 197.47 0 01-48.86 3.89l-122.93-5.51c-14.81-.67-27.39-3.22-37.33-7.18-9.62-3.84-16.64-8.93-20.87-14.81a23.78 23.78 0 01-4.34-18.58c1.12-6.31 4.65-12.87 10.63-19.4l38.59-42.1c4.13-4.51 9.88-8.67 16.69-12.35a131.83 131.83 0 0122.56-9.37 185.31 185.31 0 0126-6.18 193.81 193.81 0 0127.78-2.56z"/></g><path d="M501.74 968a76 76 0 01-21.63 24.29 102.48 102.48 0 01-33.72 16.17 122.37 122.37 0 01-41.36 4l-116.09-8.22a97.44 97.44 0 01-23.47-4.49 75.92 75.92 0 01-18.85-9.07 60.7 60.7 0 01-13.68-12.48 51.94 51.94 0 01-8.32-14.74l8.94 24.61a55.93 55.93 0 006.61 12.71c.57.81 1.14 1.62 1.75 2.4a62.62 62.62 0 0013.5 12.83 74.37 74.37 0 0018.4 9.37 91.21 91.21 0 0022.77 4.73l112.16 9.2a112 112 0 0039.83-3.78 95.42 95.42 0 0032.42-16.14c.59-.46 1.15-.94 1.72-1.41a74.8 74.8 0 0019.12-23.13 62.69 62.69 0 007.19-28.68l.13-26.33a59 59 0 01-7.42 28.16z" fill="#ea983e"/></g><g id="Candles"><path d="M279.87 894.81a12.5 12.5 0 01-12.31-10.42l-13.41-79.71a12.5 12.5 0 1124.65-4.15l13.41 79.71a12.5 12.5 0 01-10.21 14.4 12.36 12.36 0 01-2.13.17z" fill="url(#linear-gradient-7)"/><path class="cls-21" d="M279.87 898.8a16.52 16.52 0 01-9.16-3.13A16.18 16.18 0 01265 888a19.29 19.29 0 01-.9-4.32l-.46-3.73-.92-7.46-3.59-29.84q-1.83-14.91-4-29.78l-1.1-7.43a13.19 13.19 0 01.66-7.43 11.69 11.69 0 011.9-3.23 12.07 12.07 0 012.75-2.54 12.54 12.54 0 017.07-2.17 12.69 12.69 0 0111.75 7.95 18.8 18.8 0 01.93 3.65l.69 3.7 1.41 7.37 3 14.72 3.11 14.7 6.36 29.37 1.57 7.35c.06.33.13.58.19 1l.18 1.17c.06.39.06.79.09 1.18a9.61 9.61 0 010 1.2 15 15 0 01-.92 4.68 15.21 15.21 0 01-2.27 4.24 16 16 0 01-12.67 6.45zm0-8a7.92 7.92 0 011.28-.12 4.34 4.34 0 00.63-.09 3.2 3.2 0 00.63-.13 8.4 8.4 0 002.38-1 8.52 8.52 0 002-1.69 8.15 8.15 0 001.44-2.25A8 8 0 00289 883a8.92 8.92 0 00.08-1.37v-.69c0-.24-.07-.6-.1-.9l-.92-7.45-3.61-29.84-1.87-14.91-2-14.88-1.08-7.43-.56-3.71a18.53 18.53 0 00-.81-3.63 13.38 13.38 0 00-1.81-3.24 12.86 12.86 0 00-2.7-2.56 12.34 12.34 0 00-14.08 0 12.18 12.18 0 00-4.54 5.8 12.52 12.52 0 00-.46 7.32l1.39 7.38q2.85 14.73 6 29.43l6.38 29.37 1.49 7.31.79 3.67a13.33 13.33 0 00.84 3 9 9 0 003.48 4 8.73 8.73 0 004.96 1.15z"/><path d="M334.85 896.23a12.49 12.49 0 01-12.43-11.35L314.69 801a12.5 12.5 0 0124.89-2.29l7.73 83.87a12.49 12.49 0 01-11.31 13.6 11.37 11.37 0 01-1.15.05z" fill="url(#linear-gradient-8)"/><path class="cls-21" d="M334.85 900.23a16.31 16.31 0 01-9.38-3.3 16 16 0 01-5.65-8 16.57 16.57 0 01-.56-2.39l-.13-1.21c0-.39 0-.66-.06-1l-.19-3.86-.38-7.71-1.43-30.87q-.76-15.43-1.79-30.84l-.56-7.7a38.13 38.13 0 01-.19-3.87 12.61 12.61 0 015.37-9.85 12.35 12.35 0 013.45-1.71 13.21 13.21 0 013.8-.58 12.65 12.65 0 0111.85 8.39 14.62 14.62 0 01.79 3.8l.42 3.83.87 7.67 1.92 15.33 2 15.32 4.22 30.61 1 7.65.26 1.92.07.49.05.61a12.1 12.1 0 01.06 1.21A15.74 15.74 0 01350 889a16.2 16.2 0 01-15.1 11.21zm0-8a13.6 13.6 0 002.62-.32 8.68 8.68 0 002.44-1.07 8.82 8.82 0 003.45-4.14 8.94 8.94 0 00.64-2.7 5.56 5.56 0 000-.71v-.82l-.09-1.93-.39-7.72-1.44-30.87-.8-15.42-1-15.42-.54-7.7-.3-3.85a13.61 13.61 0 00-.66-3.75 11.56 11.56 0 00-1.77-3.39 12 12 0 00-2.71-2.7 13.29 13.29 0 00-3.42-1.74 13.57 13.57 0 00-3.79-.6 12.47 12.47 0 00-7.23 2.32 12.33 12.33 0 00-5.15 9.83 38.24 38.24 0 00.31 3.83l.86 7.67q1.79 15.33 3.88 30.64l4.23 30.61 1 7.66.52 3.83c0 .3.08.67.13.92l.14.69a10 10 0 00.43 1.34 8.82 8.82 0 003.47 4.17 8.63 8.63 0 005.17 1.35z"/><path d="M389.84 897.66a12.51 12.51 0 01-12.5-12.21l-2-88a12.5 12.5 0 1125-.59l2 88a12.5 12.5 0 01-12.21 12.79z" fill="url(#linear-gradient-9)"/><path class="cls-21" d="M389.84 901.66a16.37 16.37 0 01-9.64-3.48 16.07 16.07 0 01-5.6-8.37c-.1-.41-.21-.82-.29-1.23l-.18-1.25c-.06-.42-.06-.84-.08-1.26V885l.07-4 .15-8 .66-31.86.23-15.92c0-5.31.1-10.62.07-15.92v-12a14.27 14.27 0 01.6-4 12.64 12.64 0 014.59-6.39 13.11 13.11 0 013.53-1.81 13.41 13.41 0 013.92-.6 12.45 12.45 0 017.46 2.41 13.18 13.18 0 012.81 2.82 12.83 12.83 0 011.76 3.58 14.29 14.29 0 01.62 3.95l.16 4 .33 7.95c.24 5.3.55 10.6.82 15.9l1 15.9 2.13 31.79.52 8 .25 4a16.28 16.28 0 01-.55 5 16.11 16.11 0 01-5.61 8.37 16.81 16.81 0 01-4.52 2.51 17.23 17.23 0 01-5.21.98zm0-8a10.71 10.71 0 002.7-.31 9.13 9.13 0 002.5-1.15 8.87 8.87 0 003.44-4.39A10.07 10.07 0 00399 885l.08-4 .14-8 .66-31.85.23-15.93c0-5.31.09-10.61.08-15.92v-12a12.48 12.48 0 00-2.21-7.45 12.68 12.68 0 00-2.75-2.82 12.38 12.38 0 00-7.4-2.48 12.59 12.59 0 00-3.9.63 12.88 12.88 0 00-3.5 1.84 12.5 12.5 0 00-4.46 6.37c-.83 2.54-.39 5.23-.34 7.87l.33 7.95c.22 5.3.54 10.6.81 15.9l1 15.9 2.14 31.79.51 8 .26 4v.5c0 .15 0 .25.05.38s.05.48.11.72l.15.71.23.68a8.76 8.76 0 003.44 4.4 8.62 8.62 0 005.18 1.47z"/><path d="M444.83 899.08h-.5a12.51 12.51 0 01-12-13l3.67-92.19a12.5 12.5 0 1125 1l-3.63 92.19a12.51 12.51 0 01-12.54 12z" fill="url(#linear-gradient-10)"/><path class="cls-21" d="M444.83 903.08a16.21 16.21 0 01-15.45-12.46l-.24-1.29c-.07-.43-.09-.87-.13-1.31a8 8 0 010-1.3v-.65-.53l.33-4.1.65-8.21 2.69-32.79L434 824l1.1-16.41.46-8.21.24-4.1a20.16 20.16 0 01.51-4.09 12.69 12.69 0 014.51-6.75 12.74 12.74 0 0115.33 0 12.7 12.7 0 014.53 6.74 14.52 14.52 0 01.42 4.1l-.09 4.11-.18 8.22c-.12 5.48-.13 11-.2 16.45v16.45l.1 32.91v12.34a20 20 0 01-.41 4.81 16.13 16.13 0 01-5.5 8.81 16.5 16.5 0 01-9.99 3.7zm0-8a8.82 8.82 0 005.36-1.56 9.08 9.08 0 003.39-4.66 14.6 14.6 0 00.5-3.34l.32-4.1.66-8.2 2.69-32.8L459 824c.36-5.47.78-10.94 1.09-16.41l.47-8.21.23-4.11a12.76 12.76 0 00-.33-4 12.58 12.58 0 00-4.4-6.72 12.35 12.35 0 00-7.61-2.63 12.44 12.44 0 00-12 9.37 16.15 16.15 0 00-.4 4.05l-.09 4.11-.18 8.22-.2 16.45v16.45l.1 32.91v13.18a4.54 4.54 0 00.07.75c.05.25.07.5.12.74l.19.72a8.85 8.85 0 006 5.86 10.12 10.12 0 002.77.35z"/><path d="M462.1 783.72c.26 7.2-5.79 13.25-13.5 13.52s-14.18-5.33-14.43-12.53 4.79-41.33 12.51-41.61 15.17 33.43 15.42 40.62z" fill="url(#linear-gradient-11)"/><path d="M402.1 783.72c.26 7.2-5.79 13.25-13.5 13.52s-14.18-5.33-14.43-12.53 4.79-41.33 12.51-41.61 15.17 33.43 15.42 40.62z" fill="url(#linear-gradient-12)"/><path d="M279.1 789.72c.26 7.2-5.79 13.25-13.5 13.52s-14.18-5.33-14.43-12.53 4.79-41.33 12.51-41.61 15.17 33.43 15.42 40.62z" fill="url(#linear-gradient-13)"/><path d="M340.1 785.72c.26 7.2-5.79 13.25-13.5 13.52s-14.18-5.33-14.43-12.53 4.79-41.33 12.51-41.61 15.17 33.43 15.42 40.62z" fill="url(#linear-gradient-14)"/></g><g id="Thumb"><path class="cls-18" d="M583 965.61l-37 35.25a57.72 57.72 0 01-28.58 15.25c-.33.06-.67.1-1 .13l-14.64 1.16a8.37 8.37 0 00-7.78 8.23v.1l.48 22.23c.06 5.29 4.29 8.78 8.51 7l52.85-20.65"/><path d="M586.48 969.23q-9 9.12-18.08 18l-9.12 8.93-9.19 8.87a64.15 64.15 0 01-23.65 14.67 53.7 53.7 0 01-6.84 1.9l-.87.19c-.12 0-.36.06-.58.09l-.65.09-.63.07h-.4l-.8.06-3.18.22-6.37.44-3.19.22-.72.06h-.27a3.18 3.18 0 00-.51.13 2.78 2.78 0 00-1.54 1.33 2.39 2.39 0 00-.26.9v2.85l.05 12.77v6.96a2.12 2.12 0 000 .37 5.48 5.48 0 00.11.65 2.66 2.66 0 00.45.91 1.3 1.3 0 00.36.33.35.35 0 00.28 0h.26l.75-.27 1.51-.54 3-1.09c8-2.85 16.13-5.56 24.31-8 4.09-1.25 8.2-2.44 12.34-3.54s8.29-2.17 12.52-3.06l.43 1.1c-3.71 2.22-7.48 4.24-11.27 6.23s-7.6 3.91-11.45 5.76c-7.67 3.72-15.43 7.21-23.26 10.54l-2.94 1.24-1.46.62-.74.31-.59.22-.66.23a10.68 10.68 0 01-6 0 11.13 11.13 0 01-4.93-3.1 12.69 12.69 0 01-2.74-4.58 15.31 15.31 0 01-.59-2.45 10.32 10.32 0 01-.13-1.22v-1.01l-.25-6.38-.5-12.77-.06-1.59v-1.94a13.41 13.41 0 011.27-5.24 14.15 14.15 0 017.61-7.13 15.17 15.17 0 012.55-.74c.44-.09.88-.14 1.32-.19l.86-.08 3.18-.28 6.36-.57 3.18-.28.79-.07H516.24a.54.54 0 00.22 0l.69-.15a43.72 43.72 0 005.45-1.53 55.25 55.25 0 0019.41-12l9.3-8.75 9.37-8.68q9.32-8.77 18.9-17.26z"/></g><g id="Arm"><path d="M707.6 658.55l4.23 167.26a351.48 351.48 0 01-37.46 141.28l-64.76 117.1L558.23 980s77.53-69 83.54-227.11" fill="url(#linear-gradient-15)"/><path d="M719.73 628.41l-1.55 120-.78 60-.19 15-.05 3.75-.24 3.83c-.18 2.55-.27 5.13-.53 7.64-.78 10.11-2.11 20.17-3.78 30.17a358.61 358.61 0 01-15.12 58.84q-5.09 14.32-11.3 28.22c-1.07 2.31-2.1 4.61-3.19 6.91l-3.37 6.9c-.55 1.17-1.18 2.23-1.78 3.33l-1.85 3.26-3.63 6.57-58.09 105-4.63 8.37-4.23-8.58-51.35-104.15-1.66-3.37 2.82-2.58c.35-.3.84-.75 1.27-1.14l1.32-1.27c.89-.86 1.76-1.74 2.63-2.63 1.73-1.79 3.43-3.64 5.09-5.53q5-5.66 9.58-11.71a265.92 265.92 0 0017-25.25 327.25 327.25 0 0026.06-55.32 392.31 392.31 0 0016.33-59.27 467.38 467.38 0 007.59-61.24 467.14 467.14 0 01-5.1 61.66 396.18 396.18 0 01-14.06 60.46 332.73 332.73 0 01-24.27 57.42 277.15 277.15 0 01-16.45 26.71q-4.52 6.44-9.5 12.6-2.49 3.07-5.14 6.06c-.89 1-1.79 2-2.72 2.95s-1.82 1.9-3 3l1.16-6 51.38 104.18-8.86-.21 58-104.89 3.63-6.55 1.83-3.25c.59-1.09 1.25-2.19 1.75-3.28l3.22-6.57 3.09-6.71q6-13.49 11-27.43a348.39 348.39 0 0014.7-57.19c1.62-9.72 2.92-19.5 3.67-29.32.26-2.47.34-4.88.51-7.32l.23-3.65.05-3.75.19-15 .78-59.94 1.55-119.88z"/></g><g id="Ear"><path class="cls-3" d="M783 615.75l41.82-45.09a29.87 29.87 0 001.91-38.36L793 487.72a29.88 29.88 0 00-39.08-7.64l-99.53 59.13c-22 13.07-18.47 45.94 5.8 54l91.47 30.53a29.89 29.89 0 0031.34-7.99z"/><path d="M783 597.05L824.8 552c9.86-10.63 10.67-9 1.91-20.51L793 486.87a29.88 29.88 0 00-39.08-7.64l-99.53 59.13c-22 13.07-18.47 28.09 5.8 36.19l91.47 30.52a29.87 29.87 0 0031.34-8.02z" fill="url(#linear-gradient-16)"/><path class="cls-7" d="M783 615.75l41.82-45.09a29.87 29.87 0 001.91-38.36L793 487.72a29.88 29.88 0 00-39.08-7.64l-99.53 59.13c-22 13.07-18.47 45.94 5.8 54l91.47 30.53a29.89 29.89 0 0031.34-7.99z"/><path class="cls-16" d="M753 588.36a12.2 12.2 0 0012.81-3.27l23.4-25.24a12.18 12.18 0 00.78-15.66l-19.5-25.75a12.19 12.19 0 00-15.95-3.12"/><path class="cls-3" d="M753 588.36a12.2 12.2 0 0012.81-3.27l23.4-25.24a12.18 12.18 0 00.78-15.66l-19.5-25.75a12.19 12.19 0 00-15.95-3.12"/><path d="M753 588.36a13.82 13.82 0 006.81-.93 12 12 0 002.77-1.63 9 9 0 001.18-1 7.29 7.29 0 00.53-.58l.53-.65c3.07-3.72 6.1-7.47 9.2-11.16s6.17-7.41 9.36-11l2.39-2.7.6-.68a6.9 6.9 0 00.52-.61 9.74 9.74 0 00.77-1.05 8.93 8.93 0 00-.25-9.77l-4.19-5.72c-2.82-3.9-5.57-7.86-8.28-11.84l-4-6-2-3a11.67 11.67 0 00-1.94-2.34 12.44 12.44 0 00-12.41-2.32 11.27 11.27 0 017-2.89 12.93 12.93 0 017.79 2.09 15.32 15.32 0 013.09 2.8l2.35 2.75 4.68 5.51q4.65 5.53 9.15 11.18l2.23 2.84L792 541l.55.72.28.35.33.47a15.44 15.44 0 012.85 8.68 15.68 15.68 0 01-2.53 8.77 18 18 0 01-1.42 1.81c-.28.32-.47.51-.68.73l-.63.65-2.52 2.58c-3.35 3.46-6.81 6.81-10.28 10.16s-7 6.67-10.44 10c-.21.2-.44.42-.71.65a9.73 9.73 0 01-.79.65 12 12 0 01-1.72 1.11 12.16 12.16 0 01-3.79 1.29 10.9 10.9 0 01-7.5-1.26z"/></g><g id="Head"><path d="M689.51 640.29L550.1 731.63a81.71 81.71 0 01-89.38.1l-128.61-83.85c-44.33-28.9-47.18-73.18-8.63-109.43l458.19-430.84-53 491.62c-2.61 24.31-18.67 27.66-39.16 41.06z" fill="url(#linear-gradient-17)"/><path d="M738.91 504.31c4.66-52.34-78.16-91.58-112.82-104.71S565 378.45 508.84 377.11c-18.58-.45-35.72 15.4-25.32 13.95s172.63 3.09 255.39 113.25z" fill="url(#linear-gradient-18)"/><path class="cls-3" d="M516.47 596a791.87 791.87 0 00156.92-31.62s23.13 88.09-39.29 101.15c-27.51 5.76-59.06-4.22-59.06-4.22S566.59 715 515 708.78s-47.07-45.51-47.07-45.51-47 28.54-67.82.5C384 642.06 382 628.6 382 628.6s-40.77-2.61-52.72-13.74c0 0-10.49-7.06-4.05-21.75"/><path d="M692.6 645c-20.52 13.33-41 26.74-61.54 40l-61.68 39.8-15.38 9.96c-1.24.82-2.67 1.69-4 2.53s-2.8 1.62-4.25 2.35a83.3 83.3 0 01-8.83 4 86.11 86.11 0 01-74.48-6.11c-1.39-.79-2.74-1.69-4.07-2.54l-3.83-2.53-7.65-5.06-15.3-10.13-61.29-40.55-30.63-20.22-7.67-5c-2.55-1.66-5.22-3.45-7.71-5.33a93.38 93.38 0 01-14-12.79 71.24 71.24 0 01-10.7-15.82 58.84 58.84 0 01-5.57-18.42 57.82 57.82 0 01.77-19.24 68.9 68.9 0 016.54-18A89.87 89.87 0 01312 546.17q3-3.63 6.35-7c1.1-1.11 2.24-2.21 3.36-3.28l3.34-3.14 26.7-25.18Q458.51 406.85 565.2 306t213-202l9.8-9.27-1.41 13.45-14.38 137.74-14.66 137.75-14.79 137.73-7.44 68.87-.92 8.61-.12 1.09-.16 1.18c-.09.79-.21 1.58-.36 2.38s-.29 1.59-.47 2.39-.38 1.59-.6 2.39a37.63 37.63 0 01-3.94 9.31 36.65 36.65 0 01-6.35 7.92c-4.84 4.6-10.18 7.74-15.2 10.7s-9.95 5.76-14.6 8.76zm-6.18-9.43c5-3.29 10.17-6.21 15.08-9.07s9.56-5.73 13.1-9.12a25.52 25.52 0 007.22-12.13c.16-.6.33-1.19.45-1.81s.27-1.22.37-1.86.22-1.25.29-1.9l.12-1 .12-1.06.93-8.61 7.41-68.87 14.89-137.67 15-137.71 15.3-137.69 8.4 4.18q-107.55 99.93-214.76 200.23T356 512.17l-26.77 25.1-3.35 3.14c-1.1 1-2.17 2.06-3.22 3.12-2.09 2.11-4.11 4.3-6 6.57a83.56 83.56 0 00-9.94 14.62 63 63 0 00-6 16.38 51.1 51.1 0 004.3 33.79 64.88 64.88 0 009.84 14.45A87.24 87.24 0 00328 641.25c2.39 1.8 4.81 3.41 7.4 5.08l7.7 5 30.86 19.86 61.78 39.65 15.44 9.91 7.72 5 3.86 2.48c1.26.77 2.46 1.56 3.74 2.26a77.19 77.19 0 0067 4.6 71.45 71.45 0 007.83-3.67c1.28-.66 2.51-1.41 3.75-2.14s2.41-1.52 3.71-2.4L564 716.67 625.16 676c20.37-13.53 40.84-26.94 61.26-40.42z"/></g><g id="Nose_and_stache" data-name="Nose and stache"><path d="M454.79 503.63c-35.11-26.13-114.26-105-147.89-76.32-30.85 26.32-29.9 91.93-12.45 124.43 19.86 37 81.67 36.48 164.9 37.53" fill="url(#linear-gradient-19)"/><path d="M519.08 584.43A792.12 792.12 0 00676 552.8s23.12 88.1-39.3 101.2c-27.51 5.76-59.06-4.22-59.06-4.22s-8.45 53.66-60.06 47.49-47.07-45.52-47.07-45.52-47 28.55-67.81.5c-16.08-21.7-18.06-35.16-18.06-35.16s-40.77-2.61-52.72-13.75c0 0-10.49-7-4.05-21.75" fill="url(#linear-gradient-20)"/><ellipse class="cls-16" cx="414.63" cy="480.7" rx="10.79" ry="40.75" transform="rotate(-53.43 414.663 480.713)"/><path d="M447.44 498.4c-6.05-4.13-11.93-8.46-17.73-12.85l-17.35-13.15c-11.57-8.69-23.2-17.24-35.26-24.91-6-3.8-12.14-7.44-18.39-10.63a106.85 106.85 0 00-19.08-7.75 54.18 54.18 0 00-9.55-1.86 30.32 30.32 0 00-9 .36c-.71.1-1.37.34-2.05.5s-1.33.41-1.95.71a19.42 19.42 0 00-3.6 1.92 36.07 36.07 0 00-6.55 6.19 61.87 61.87 0 00-9.84 16.71 94.31 94.31 0 00-5.39 19.41 131.32 131.32 0 00-1.7 20.43c-.11 6.87.14 13.75.69 20.62 1.2 13.68 3.73 27.6 10.7 39.24a43.06 43.06 0 0031.21 22.28 198.51 198.51 0 0021 2.73l21.63 2q21.57 1.81 43.2 2.45a782.34 782.34 0 0086.48-2.19A788.85 788.85 0 00674.52 548l5.13-1.59 1.21 5.22c3.45 14.83 5 30.36 2.95 45.84a85 85 0 01-6.16 22.67 66.9 66.9 0 01-13.16 19.89 62.82 62.82 0 01-19.63 13.69 74.41 74.41 0 01-22.9 6 101.06 101.06 0 01-23.27-.4 141.65 141.65 0 01-22.47-4.81l6.34-3.85a61.7 61.7 0 01-7.48 19.76 62.89 62.89 0 01-13.69 16A68.8 68.8 0 01523 702.17a59.51 59.51 0 01-21-1.95 49.39 49.39 0 01-19-10.15 48.51 48.51 0 01-12.62-17.48 64.65 64.65 0 01-4.83-20.5l7.53 3.92a116.79 116.79 0 01-28.1 12.4 66.91 66.91 0 01-15.69 2.47 46.4 46.4 0 01-16.29-2.25 39.81 39.81 0 01-14.36-8.55 48.44 48.44 0 01-9.85-13 72.43 72.43 0 01-5.74-14.71 109.3 109.3 0 01-3-15.12l6 4.23a68.79 68.79 0 01-11.29 1.31 109.24 109.24 0 01-11-.08 84.81 84.81 0 01-21.94-3.94 44.19 44.19 0 01-10.65-5.14 25.78 25.78 0 01-8.69-9.47 23.49 23.49 0 01-2.39-12.92 37.93 37.93 0 013.17-11.66l9.16 4a37.13 37.13 0 00-1.56 4.3 23.24 23.24 0 00-.8 4.21 13.39 13.39 0 001.31 7.48c2.23 4.45 7.68 7.72 13.65 9.72a75.65 75.65 0 0019.31 3.43 98.13 98.13 0 0010 .07 60.73 60.73 0 009.56-1.08l5.33-1.15.71 5.38c1.23 9.33 3.49 18.53 7.67 26.43a38.44 38.44 0 007.8 10.39 29.86 29.86 0 0010.77 6.41c8 2.73 17.3 2 26.12-.38A107.26 107.26 0 00468 647.41l6.88-4.06.66 8a54.74 54.74 0 004 17.3 38.57 38.57 0 0010 13.9 39.69 39.69 0 0015.15 8.07 49.43 49.43 0 0017.55 1.6A58.88 58.88 0 00555 678.81a52.86 52.86 0 0011.52-13.48 51.58 51.58 0 006.25-16.53l1-5.41 5.29 1.56a132.46 132.46 0 0020.87 4.47 91.58 91.58 0 0021 .38 64.68 64.68 0 0019.85-5.17 52.72 52.72 0 0016.52-11.53 57.24 57.24 0 0011.19-16.92 75.55 75.55 0 005.41-20c1.85-13.9.47-28.3-2.77-42.23l6.34 3.64a798.82 798.82 0 01-171.8 33 794.71 794.71 0 01-87.57 2.22q-21.92-.64-43.75-2.49l-10.91-1-10.82-1.06a185.12 185.12 0 01-22.12-3.15 75 75 0 01-11.18-3.39 52.21 52.21 0 01-10.54-5.7c-6.65-4.6-11.88-10.78-16.12-17.2-1.08-1.62-2.08-3.24-3.06-4.9s-1.93-3.41-2.8-5.14c-1.72-3.48-3.24-7-4.6-10.63a123.86 123.86 0 01-6-22.13 115.48 115.48 0 01-1.73-22.82 135.87 135.87 0 012.53-22.88 108.6 108.6 0 016.8-22.32 72.49 72.49 0 0112.83-20.24 49 49 0 019.62-8.3 33.92 33.92 0 0112.56-4.68 43 43 0 0112.71-.09 61.34 61.34 0 0111.69 2.76A117.38 117.38 0 01364 427a213.34 213.34 0 0118.73 12.11c12 8.61 23.28 17.93 34.29 27.47s21.7 19.39 32.79 28.58z"/></g><g id="Shade"><path class="cls-9" d="M739.4 498.81C676 406.7 599.17 290.84 527.77 203.56a32.24 32.24 0 00-38.59-8.79l-67.54 31.56c-13.18 6.16-27.33 21.39-15.58 34.37l14.17 81.21c-7.25 12.8 7.47 21.29 18.4 25.19q25.2 7.33 50.81 15.43c82.52-23.29 167.92 14 250 116.28"/><path class="cls-3" d="M481.82 381.75q-21.49-6.75-42.65-12.95a27 27 0 01-17.56-20.8l-11.9-68.18a27.05 27.05 0 0115.2-29.16l56.69-26.5a27.06 27.06 0 0132.4 7.38c59.94 73.27 95.19 115 151.75 190 0 0-72.73-48.65-117.78-47.16-45.33 1.48-66.15 7.37-66.15 7.37z"/><path class="cls-3" d="M426.59 250.38l56.69-26.5a27.06 27.06 0 0132.4 7.38c59.94 73.27 167.18 198.5 185.08 226.81"/><path d="M426.59 250.38c12.34-7.21 24.88-14 37.46-20.7l9.46-5q2.36-1.24 4.74-2.46l2.37-1.22 1.21-.61 1.38-.63a30.62 30.62 0 0124-.36 32.13 32.13 0 0110.4 6.82l1.07 1.14c.34.37.75.8 1 1.11l1.72 2 3.45 4.08c4.55 5.46 9.07 11 13.45 16.57s8.7 11.27 13 16.95 8.61 11.34 12.85 17.07c8.48 11.46 15.91 23.77 24.64 35 4.36 5.63 8.94 11.08 13.4 16.63l13.44 16.59c8.91 11.09 17.82 22.19 26.55 33.44 2.2 2.79 4.35 5.63 6.52 8.45l3.24 4.24 3.19 4.28 3.18 4.28 3.1 4.35c2.11 2.86 4 5.86 6 8.82-2-3-3.91-6-6-8.82l-3.1-4.35-3.18-4.28-3.13-4.21-3.24-4.24c-2.17-2.82-4.32-5.66-6.52-8.45-8.73-11.25-17.64-22.35-26.55-33.44l-13.49-16.59c-4.5-5.51-8.92-11.09-13.57-16.48-9.27-10.81-19.9-20.5-29.49-31-4.8-5.26-9.5-10.61-14.26-15.91s-9.48-10.64-14.1-16.05-9.17-10.89-13.63-16.44l-3.32-4.18-1.66-2.1-1.44-1.74a22.94 22.94 0 00-7.08-5.2 22.56 22.56 0 00-8.64-2.12 23.59 23.59 0 00-4.52.17 24.24 24.24 0 00-4.42 1.11l-19.57 8.06c-13.21 5.32-26.5 10.58-39.91 15.42z"/><path class="cls-7" d="M739.4 498.81C676 406.7 599.17 290.84 527.77 203.56a32.24 32.24 0 00-38.59-8.79l-67.54 31.56a32.24 32.24 0 00-18.1 34.74l14.17 81.21a32.24 32.24 0 0020.92 24.82q25.2 7.33 50.81 15.43c82.52-23.29 167.92 14 250 116.28"/><path class="cls-1" d="M483.51 381.5q-21.5-6.79-42.66-12.95a27 27 0 01-17.56-20.83l-11.9-68.18a27.05 27.05 0 0115.2-29.16l56.69-26.5a27.06 27.06 0 0132.4 7.38c59.94 73.27 95.19 115 151.76 190 0 0-72.74-48.66-117.79-47.17-45.32 1.53-66.14 7.41-66.14 7.41z"/></g><g id="Brows_and_burns" data-name="Brows and burns"><path class="cls-6" d="M735.82 491.6l-6.11 71.63a7.28 7.28 0 01-8.22 6.6l-20.57-2.76a7.28 7.28 0 01-6.07-9.1L715 482.85a7.28 7.28 0 0112-3.39l6.56 6.25a7.3 7.3 0 012.26 5.89z"/><path class="cls-7" d="M735.82 491.6l-6.11 71.63a7.28 7.28 0 01-8.22 6.6l-20.57-2.76a7.28 7.28 0 01-6.07-9.1L715 482.85a7.28 7.28 0 0112-3.39l6.56 6.25a7.3 7.3 0 012.26 5.89z"/><rect class="cls-6" x="529.31" y="415.42" width="85.03" height="24.66" rx="12.02" transform="rotate(21.65 571.826 427.772)"/><path d="M594.87 452.32c-15.57-5.65-31.35-10.79-47-16.22-2-.66-3.9-1.38-5.86-2.07l-2.92-1-1.47-.53-.36-.13-.48-.19-1-.44a16.72 16.72 0 01-9.08-18.15 15 15 0 01.56-2.12l.34-1c.1-.25.16-.44.33-.82a16.47 16.47 0 015.32-6.87 17 17 0 018-3.31 16.8 16.8 0 018.57 1.09c15.31 6.33 30.4 13.19 45.52 20l5.67 2.55 2.83 1.27c1 .42 1.84.78 3 1.4a14.49 14.49 0 017.47 12 13.68 13.68 0 01-.31 3.61 16.93 16.93 0 01-1.16 3.31 14.41 14.41 0 01-4.44 5.52 15.09 15.09 0 01-3.06 1.78 16.79 16.79 0 01-3.42 1 14.29 14.29 0 01-7.05-.68zm1.48-3.73a10.34 10.34 0 005.1.79 9.38 9.38 0 004.84-2 9.55 9.55 0 003.07-4.2c.08-.18.17-.45.26-.68l.19-.64a7.79 7.79 0 00.29-1.27 9.61 9.61 0 00-5.53-10.34c-.67-.28-1.72-.65-2.69-1l-2.94-1-5.87-2c-15.67-5.41-31.35-10.78-46.83-16.67a7.86 7.86 0 00-3.62-.36 7.15 7.15 0 00-3.32 1.45 7.42 7.42 0 00-2.18 2.84c-.06.09-.17.39-.27.62l-.16.47a6.48 6.48 0 00-.37 2.68 7.73 7.73 0 001.07 3.48 7.42 7.42 0 002.66 2.56l.43.21.23.12.35.15 1.43.63 2.84 1.24c1.9.84 3.8 1.65 5.69 2.51 15.12 6.82 30.12 13.82 45.33 20.41z"/><rect class="cls-6" x="437.04" y="403.11" width="69.38" height="20.45" rx="10.22" transform="rotate(-12.34 471.668 413.299)"/><path d="M498.81 422.66c-13.31 2.32-26.78 3.95-40.16 6l-5 .83-2.5.42a16.18 16.18 0 01-2.77.33 11.86 11.86 0 01-9.87-4.95 11.73 11.73 0 01-1.46-10.86 11.89 11.89 0 013.19-4.7 12.2 12.2 0 015.07-2.69c13.12-3.26 26.1-7.11 39.11-10.83 1.63-.47 3.25-.94 4.88-1.38l2.45-.68a16.36 16.36 0 013.19-.62 14.68 14.68 0 0112.87 5.73 15.09 15.09 0 012.93 6.83 14.47 14.47 0 01-.82 7.45 14.83 14.83 0 01-4.41 6 15.21 15.21 0 01-6.7 3.12zm-2-9.14a5.89 5.89 0 002.28-1.39 6.19 6.19 0 001.69-4.7 5.86 5.86 0 00-.78-2.49 5.76 5.76 0 00-4.64-2.68 28.06 28.06 0 00-4.31.56c-1.67.27-3.34.53-5 .78-13.37 2.06-26.78 4-40 6.49a8.94 8.94 0 00-3.91 1.78 9.26 9.26 0 00-2.56 3.52 8.68 8.68 0 004.42 11.15 8.56 8.56 0 004.25.73 36.14 36.14 0 004.68-1.11l4.89-1.34c13-3.7 25.92-7.82 38.99-11.3z"/></g><g id="Cone"><path class="cls-9" d="M777.86 116.76l-41.75 371.36-143.02-201.59 184.77-169.77z"/><path class="cls-16" d="M776.42 118.69l-140.9 226.93-36.07-50.88 176.97-176.05z"/><path d="M750 323.49c-5.42 1.26-17 17.09-14.24 32.93 1.48 8.47 7.09 14.52 11.28 9.27 1.08-1.36 4.36-5.48 6.23-32 .73-10.69-1.69-10.4-3.27-10.2z" fill="url(#linear-gradient-21)"/><path d="M622.92 261.29c-5.23 1.76-32.19 20.77-22.44 30.86 12.52 13 32.69-14.14 26.43-29.49-.83-1.57-2.09-2.01-3.99-1.37z" fill="url(#linear-gradient-22)"/><path class="cls-37" d="M683.63 304.39a24.2 24.2 0 00-30.94 8.54c-11.36 18 9.31 38 28.64 33.92 18.67-3.92 23.28-30.85 2.3-42.46zM729.7 397.34c-9.38-1.29-17.25 8.6-19.44 18.91-4.43 20.8 13.25 32 25.63 21.37 11.97-10.27 10.18-36.89-6.19-40.28zM760.46 240.33c-3.79.81-12.9 21.32-10.31 36.37 1.07 6.21 3.75 9.29 6 6.85 2.65-2.92 9.11-43.33 4.31-43.22zM656.32 236.11c9.19 4.55 34.19-21.51 30.74-32.05-.23-.43-.65-.88-1.9-.51-4.16 1.24-36.78 28.63-28.84 32.56z"/><path d="M720.89 228.94c-6.95-3.44-17.64 3.79-23.25 12.71-10.84 17.21.07 30.67 12.32 28.43 15.91-2.92 23.98-33.29 10.93-41.14z" fill="url(#linear-gradient-23)"/><path class="cls-37" d="M740.35 188.57c1.8.41 7.9 1.16 10.93-6.77 1.74-4.55 2.34-16.7-1.1-19-.48-.24-2-1-6.72 2.23-14.84 9.97-12.46 21.36-3.11 23.54z"/><text class="cls-39" transform="translate(658.65 334.37)">M</text><text class="cls-39" transform="matrix(.25 .04 -.15 .99 750.84 274.46)">M</text><text class="cls-39" transform="matrix(.64 .38 -.51 .86 695.74 254.41)">M</text><text transform="matrix(.14204 .1262 -.66419 .74757 659.92 228.81)" font-size="51.28" font-family="SuperMario,Super Mario" fill="#c60034">M</text><text transform="matrix(.34 .23 -.55 .83 601.84 285.18)" font-size="50.19" font-family="SuperMario,Super Mario" fill="#c60034">M</text><text transform="matrix(.49118 .28921 -.50739 .86172 733.32 181.6)" font-size="31.22" font-family="SuperMario,Super Mario" fill="#c60034">M</text><text class="cls-39" transform="rotate(-10.84 2643.394 -3545.5)">M</text><text class="cls-39" transform="rotate(14.24 -1059.084 3116.305) scale(.5 1)">M</text></g><g id="Tooter"><path d="M383.57 620.55S-9 617 163 414.71c-46.62 1.38-53.16 6.36-85.22-11.46-37.05 44.99-30.54 250.93 305.79 217.3z" fill="url(#linear-gradient-24)"/><path d="M80.67 415c15.34 7.77 26.21 10.39 41.19 10.39 5.5 0 11.62-.32 18.71-.7l4.12-.22c-29.6 43.52-36.81 81.6-21.39 113.37 10.35 21.33 30.9 39.39 61.09 53.69a296.56 296.56 0 0044.22 16.4c-28.08-5.34-52.84-13.6-74.06-24.72-32.84-17.21-56.49-40.75-70.29-70a129.67 129.67 0 01-12.49-62.82c.81-13.84 4-26.49 8.9-35.41m-2.94-11.76c-34.22 41.62-31.2 221 235.72 221 21.61 0 44.93-1.18 70.12-3.7 0 0-378.57-2.55-220.62-205.84-18.76.56-31 1.69-41.09 1.69-14.93 0-25-2.5-44.13-13.15z"/></g><g id="Shoes"><path d="M342.34 1131.69l-120.18 116.24c-3.07-.76-6.16-1.56-9.25-2.57-1.54-.53-3.09-1-4.61-1.66l-2.32-.91-2.28-1a49.34 49.34 0 01-16.93-12.55 41.06 41.06 0 01-9.16-20.23 41.92 41.92 0 01-.53-5.43c0-.9-.08-1.8-.08-2.7l.14-2.67a52.7 52.7 0 01.56-5.32c.1-.88.33-1.75.51-2.61l.58-2.6a58.72 58.72 0 018.89-18.77 70.94 70.94 0 0113.73-14.44 98.66 98.66 0 0116.16-10.47 130.49 130.49 0 0117.23-7.4c11.68-4.12 32.54-7.61 36.55-8.61 8-2 35.29-1.25 35.29-1.25a150.8 150.8 0 00-18 .49 122.18 122.18 0 00-17.76 3 141.62 141.62 0 00-17.12 5.23 123.58 123.58 0 00-16.14 7.32 95.57 95.57 0 00-26.71 21.44c-7.18 8.45-12.16 18-14.08 27.58a49.57 49.57 0 00-.78 7.26v1.82l.08 1.79a33.18 33.18 0 00.31 3.51 11.68 11.68 0 00.27 1.69c.11.56.19 1.13.32 1.68a29.53 29.53 0 00.94 3.21 30.19 30.19 0 002.83 6.12c.33.48.64 1 .94 1.47a17.72 17.72 0 001.06 1.44c.68 1 1.52 1.89 2.33 2.83.39.48.89.89 1.33 1.34s.89.92 1.4 1.33c1 .83 1.95 1.74 3.05 2.51l1.61 1.22 1.71 1.13c1.12.79 2.36 1.45 3.56 2.15s2.49 1.31 3.75 2 2.6 1.16 3.9 1.76"/><path d="M421.38 1201c0 41-51.24 50.66-114.45 50.66S192.48 1242 192.48 1201s51.24-74.33 114.45-74.33 114.45 33.26 114.45 74.33z" fill="url(#linear-gradient-25)"/><path d="M538.62 1133.49c7.15.2 14.28.74 21.39 1.52s14.18 2 21.19 3.44A185.13 185.13 0 01602 1144a164.58 164.58 0 0120.08 7.94 129.89 129.89 0 0118.83 10.87 96.31 96.31 0 0116.52 14.45 71.41 71.41 0 0112.27 18.6 59.15 59.15 0 014.92 22.12 50 50 0 01-1.19 11.51l-.31 1.44c-.11.48-.29.94-.43 1.41l-.91 2.81a48.43 48.43 0 01-2.54 5.35c-3.81 7-9.77 12.47-16.12 16.7a91.75 91.75 0 01-20.43 9.48 162 162 0 01-21.4 5.42m18.59-14.27a83.31 83.31 0 0018.64-7.92c5.61-3.49 10.63-7.84 13.86-13.37a38.8 38.8 0 002.2-4.25l.81-2.27a11.79 11.79 0 00.39-1.14l.3-1.17a43 43 0 001.32-9.73 52.53 52.53 0 00-3.65-19.63 67.9 67.9 0 00-10.47-17.54c-8.73-10.75-20.19-19.39-32.57-26.17a167.76 167.76 0 00-39.7-15.29c-6.93-1.7-14-3-21-4s-14.21-1.47-21.35-1.76-14.3-.08-21.43.33z"/><path d="M667 1218c0 46.7-62.34 54.22-139.24 54.22s-139.23-7.52-139.23-54.22 62.34-84.55 139.23-84.55S667 1171.27 667 1218z" fill="url(#linear-gradient-26)"/><path d="M404.38 1212c0 41-51 50.66-113.94 50.66S176.51 1253 176.51 1212s51-74.33 113.93-74.33 113.94 33.26 113.94 74.33z" fill="url(#linear-gradient-27)"/><path d="M661.16 1238.83c0 43.21-57.67 50.17-128.82 50.17s-128.81-7-128.81-50.17 57.67-78.22 128.81-78.22 128.82 35.02 128.82 78.22z" fill="url(#linear-gradient-28)"/><path class="cls-7" d="M404.38 1212c0 41-51 50.66-113.94 50.66S176.51 1253 176.51 1212s51-74.33 113.93-74.33 113.94 33.26 113.94 74.33z"/><path class="cls-7" d="M661.16 1238.83c0 43.21-57.67 50.17-128.82 50.17s-128.81-7-128.81-50.17 57.67-78.22 128.81-78.22 128.82 35.02 128.82 78.22z"/><path fill="url(#linear-gradient-29)" stroke-width="10" stroke="#000" stroke-miterlimit="10" d="M415.43 1118.1L409 1211"/></g><path d="M520.63 510.51c4-25 18.34-43.57 32-41.39s21.61 24.26 17.62 49.3" stroke-linecap="round" stroke-width="10" stroke="#000" stroke-miterlimit="10" fill="none"/><path d="M446.11 495a90.58 90.58 0 019.08-26.35 47.69 47.69 0 018.68-11.7 24 24 0 016.57-4.55 16.77 16.77 0 014.26-1.27 14.55 14.55 0 014.74.11 14.4 14.4 0 014.46 1.76 17 17 0 013.54 2.85 25.22 25.22 0 014.56 6.85 49.63 49.63 0 013.85 14.48 93.87 93.87 0 01-1.25 28.71 6 6 0 11-11.8-2.21 2.88 2.88 0 01.09-.4 83.12 83.12 0 002.91-25.15 40.58 40.58 0 00-2.21-11.83 16.79 16.79 0 00-2.53-4.64 8.59 8.59 0 00-1.61-1.54 6.69 6.69 0 00-1.75-.88 6.55 6.55 0 00-2-.19 8.6 8.6 0 00-2.26.49 17 17 0 00-4.72 2.84 41.13 41.13 0 00-8.07 9.49A85.16 85.16 0 00450.38 496a2.19 2.19 0 01-4.26-1z"/><circle class="cls-18" cx="132.07" cy="353.87" r="11.76"/><circle class="cls-18" cx="119.37" cy="364.4" r="11.06"/><circle class="cls-18" cx="138.93" cy="369.05" r="11.06"/><path class="cls-18" d="M121.09 394.93l.92-13.99.91-13.98 6.28 1.95 6.27 1.96-7.19 12.02-7.19 12.04z"/></g></g></svg>