<svg xmlns="http://www.w3.org/2000/svg" viewBox="0 0 4022.62 1721.41"><defs><linearGradient id="linear-gradient" x1="1950.1" y1="291.35" x2="2017.26" y2="1773.65" gradientUnits="userSpaceOnUse"><stop offset=".34" stop-color="#f4ba00"/><stop offset=".36" stop-color="#f4b504"/><stop offset=".47" stop-color="#f6a312"/><stop offset=".59" stop-color="#f7981a"/><stop offset=".71" stop-color="#f7941d"/></linearGradient><style>.cls-3{fill:#63162c;stroke-width:7.63px;stroke:#000;stroke-miterlimit:10}</style></defs><g id="Main_logo" data-name="Main logo"><path id="Shadow" opacity=".27" d="M3951.51 1245.64l-210.85-782.71-182.88-23.21-54.9-7.02-56.16 62.11-5.13-15.12-44.23.37-38.43-64.01-198.52-12.78-64.72-4.1-68.52 75.78-22.28 59.73-95 254.83L2753 885l-7.93-266.86 41.17-139.3-182.96-23.2-54.9-7.03-56.13 62.09-5.09-15.1-54 30.73-28.72-94.37-198.52-12.77-64.73-4.11-68.52 75.79-22.28 59.73-3.11 8.36-172.31-92.05-74.27-39.76-68.52 75.79-42.96 69.17-12.74 20.48-52.6 179.62-200.4-109.61 93.07-247.06-316.66 106.11-88.61 29.75 45.53-60.33-170.97 90.02 139.47-223.71-373.48-205.26-74.05-40.7-68.52 75.79-43.78 68.91-457.94 721.65-23.82 37.56 16.81 42.52 124.09 314.02 24.54 62.19 66.11-2.79 349.94-14.59-8.07 102.99-7.27 93.01 93.88 6.71 361.57 25.81 85.14 6.05 68.52-75.78 7.6-84.2 11.65-128.96 48.45-5.05 18.72-1.93-12.35 74.92 105.94 3.89 303.88 10.95 103.37 3.79 68.52-75.78-9.14-65.83 242.7 102.79 94.6 40.08 68.52-75.78 25.2-97 11.16-38.25 27.39 40.15 77.25-70.08 10.3 165.75 5.84 94.47 94.27-7.29 287.44-22.36 95.75-7.45 68.36-75.61 88.41 37.45 94.6 40.09 68.52-75.78 25.2-97.01 11.17-38.25 27.38 40.16 77.26-70.08 10.29 165.74 5.84 94.47 94.27-7.29 287.45-22.36 95.75-7.45 68.51-75.78-17.54-94.96z"/><path id="Fill" fill="url(#linear-gradient)" d="M3933.19 1303.72l-20.64-101.5-130.44-706.79-12.46-67.59-68.38-8.74-182.88-23.21-54.9-7.02-.26-.03-49.76 64.67-31.19-77.26-62.77-4.03-198.52-12.78-65.09-4.13-11.84 3.67-56.74 72.33-.04.06-22.31 59.81-94.37 253.13-42.98-232.96-12.47-67.6-68.3-8.74-182.96-23.2-54.9-7.02-.25-.04-55.75 61.65-25.14-74.24-62.83-4.03-198.52-12.77-65.1-4.13-11.84 3.67-56.73 72.33-25.28 67.69-171.79-91.78-74.62-39.94-116.99 187.93-50.69-142-31.33-85.43-.16-.45-401.69 134.59-87.08 29.24 107.06-141.78-94.17-51.69-373.47-205.26-74.47-40.92-35.01 55.11L67.67 934.17l-23.82 37.56-.14.21 141 356.8 25.84 58.88 417.66-16.74-11.03 105.42-6.3 81.5 539.31 47.63 69.79-72.76 19.26-223.24 66.11-7.86-12.34 80.83 512.96 20.66 72.91-69.77-12.1-68.55 335.79 139.66 69.27-65.47-.05-7.44.53.23 25.34-97.55 10.88-37.24 27.1 39.76 76.91-69.77 10.23 164.71 4.91 89.56 478.13-36.74 69.26-72.49 181.98 76.52 69.34-63.52-.12-9.38.54.22 25.34-97.55 10.87-37.23 27.11 36.75 74.91-71.76 12.23 169.72 7.94 88.56 476.07-34.75 71.9-65.82z"/><g id="Sides"><path class="cls-3" d="M3691.63 505.31l-68.52 75.78-182.96-23.27 68.52-75.78 182.96 23.27zM3411.22 464.28l-68.51 75.78 21.3-32.86 68.52-75.78-21.31 32.86zM3380.95 688.71l-62.52 56.78-71.48-210.76 68.51-75.78 65.49 229.76zM3315.46 458.95l-68.51 75.78-198.46-12.78 68.52-75.78 198.45 12.78zM3032.46 412.31l-68.52 75.78 22.28-59.74 55.52-70.78-9.28 54.74z"/><path class="cls-3" d="M3822.07 1212.04l-68.52 75.78-130.44-706.73 68.52-75.78 130.44 706.73zM3936.11 1300l-76.52 69.79-95.75 7.45 68.52-75.79M3357.25 1140.97l-68.51 75.78-59.87-87.78 68.52-75.79 59.86 87.79zM3434.51 1070.89l-68.52 75.78-77.25 70.08 68.51-75.78 77.26-70.08z"/><path class="cls-3" d="M3832.36 1301.45l-68.52 75.79-287.45 22.36 68.52-75.79 287.45-22.36zM3444.8 1236.63l-68.52 75.78-10.29-165.74 68.52-75.78 10.29 165.74zM2737.14 521.23l-68.52 75.78-182.96-23.27 68.52-75.78 182.96 23.27zM2882.28 815.17l-68.52 75.78 150.18-402.86 68.52-75.78-150.18 402.86zM3544.91 1323.81l-68.52 75.79-87.27 3.29 61.52-71.78 94.27-7.3z"/><path class="cls-3" d="M3450.64 1331.11l-66.52 68.78-7.84-87.48 68.52-75.78 5.84 94.48zM2456.73 480.2l-68.52 75.78 21.37-32.86 68.52-75.79-21.37 32.87zM3162.92 1189.44l-68.52 75.78 92.23-355.25 56.52-80.78-80.23 360.25zM2821.52 978.33l-68.52 75.78-84.38-457.1 68.52-75.78 84.38 457.1zM3228.99 1321.85l-72.52 65.78-94.61-40.08 61.52-69.79M2426.04 705.59l-62.1 55.82-71.49-210.77 68.52-75.78 65.07 230.73z"/><path class="cls-3" d="M2837.62 1065.5l-68.52 75.78-16.1-87.17 68.52-75.78 16.1 87.17zM2360.97 474.86l-68.52 75.78-198.46-12.77 68.52-75.78 198.46 12.77zM3130.38 1271.76l-68.52 75.79-177.66-75.25 68.51-75.78 177.67 75.24zM2844.41 1102.61l-68.52 75.78-6.79-37.11 68.52-75.78 6.79 37.11zM2077.97 428.22l-68.52 75.79 22.28-59.74 55.51-70.78-9.27 54.73zM2854.04 1154.74l-68.52 75.78-9.63-52.13 68.52-75.78 9.63 52.13zM2867.57 1227.95l-68.52 75.78-13.53-73.21 68.52-75.78 13.53 73.21zM2039.88 530.3l-68.51 75.78 38.08-102.07 68.52-75.79-38.09 102.08z"/><path class="cls-3" d="M2973.61 1309.92l-68.52 75.78-95.75 7.45 68.52-75.78 95.75-7.45zM2056.29 639.27l-68.52 75.78-7.01-3.72 68.52-75.78 7.01 3.72z"/><path class="cls-3" d="M2049.28 635.55l-68.52 75.78-40.51-21.67 68.52-75.78 40.51 21.67zM2041.96 655.12l-68.51 75.78 14.32-15.85 68.52-75.78-14.33 15.85zM2008.77 613.88l-68.52 75.78-214.97-114.95 68.52-75.78 214.97 114.95zM2480.01 1086.81l-68.52 75.78-77.25 70.08 68.52-75.79 77.25-70.07z"/><path class="cls-3" d="M2402.76 1156.88l-68.52 75.79-59.86-87.79 68.52-75.78 59.86 87.78zM2877.86 1317.37l-68.52 75.78-287.44 22.36 68.52-75.78 287.44-22.36zM2490.31 1252.55l-68.52 75.78-10.3-165.74 68.52-75.78 10.3 165.74z"/><path class="cls-3" d="M2590.42 1339.73l-68.52 75.78-90.27 4.3 64.52-72.79 94.27-7.29zM2496.15 1347.02l-69.52 67.79-4.84-86.48 68.52-75.78 5.84 94.47zM2208.49 1205.36l-68.52 75.78 92.16-355.25 56.52-80.78-80.16 360.25zM1617.71 791.67l-63.79 27.88-115.32-289.73 68.51-75.78 110.6 337.63zM2274.49 1337.77l-72.52 65.78-94.6-40.09 68.52-75.78M1736.9 992.51l-68.51 75.79 222.4-246.03 68.52-75.78-222.41 246.02z"/><path class="cls-3" d="M2175.89 1287.68l-68.52 75.78-278.9-118.12 68.52-75.78 278.9 118.12z"/><path class="cls-3" d="M1896.99 1169.56l-68.52 75.78-47.85-20.27 68.52-75.78 47.85 20.27zM1507.11 454.04l-68.51 75.78-316.67 106.1 68.52-75.78 316.66-106.1zM1043.17 388.94l-68.52 75.79-373.48-205.26 68.52-75.78 373.48 205.25zM1356.83 836.17l-68.52 75.78-16.86 1.49 68.52-75.78 16.86-1.49zM1770.4 1233.13l-68.52 75.78-33.49-240.61 63.51-77.79 38.5 242.62z"/><path class="cls-3" d="M1338.99 854.38l3.15 26.57-54.96 61.9 1.13-30.9M1287.31 912.95l-67.37 5.05 68.52-75.78 58.37-6.05-59.52 76.78z"/><path class="cls-3" d="M1346.83 836.17l5.41 92.69-68.51 75.78 4.58-92.69 58.52-75.78zM1288.46 842.22L1219.94 918l-117.21 9.79 63.51-74.78 122.22-10.79zM1166.24 853.01l-68.51 69.78.03-162.28 68.52-75.78-.04 168.28z"/><path class="cls-3" d="M1166.28 684.73l-68.52 75.78L805.4 749.5l68.52-75.78 292.36 11.01zM1341.61 1145.7l-68.52 75.79 10.64-216.85 68.51-75.78-10.63 216.84zM1881.81 1333.51l-76.52 68.78-103.37-3.8-303.88-10.95 68.52-75.78M1372.97 1232.95l-68.51 75.79-18.73 1.92 68.52-75.78 18.72-1.93z"/><path class="cls-3" d="M1360.62 1307.87l105.94 3.89-68.52 75.78-105.94-3.88 12.36-74.92 68.51-75.79-12.35 74.92M1716.56 1320.76l-68.52 75.78M1360.62 1307.87l-68.52 75.79M1354.25 1234.88l-68.52 75.78-110.7 11.54 68.51-75.78 110.71-11.54zM643.22 918.61l-68.51 75.78 399.94-529.66 68.52-75.79-399.95 529.67z"/><path class="cls-3" d="M849.04 898.68l-75.52 62.78-198.81 32.93 68.51-75.78 205.82-19.93zM1136.03 1433.38l-68.52 75.78 24.22-268.76 55.52-72.78-11.22 265.76zM1219.03 1539.87l-69.52 64.78-85.14-6.05 61.52-67.78 93.14 9.05zM593.04 133.74L135.11 855.4l-68.52 75.78 569.56-873.4M684.71 1397.29l-68.52 75.79 8.07-102.99 68.52-75.78-8.07 102.98zM111.3 892.95l-68.52 75.78 23.81-37.55 68.52-75.78-23.81 37.55z"/><path class="cls-3" d="M128.1 935.48l-68.52 75.78-16.8-42.53 68.52-75.78 16.8 42.53zM771.32 1497.01l361.57 25.81-68.52 75.78-454.45-39.52 6.27-86 68.52-75.79-7.27 93.01 93.88 6.71zM677.44 1490.3l-67.52 68.78M807.76 1500.3l-67.52 68.78M692.78 1294.31l-68.52 75.78-349.94 14.59 68.52-75.78 349.94-14.59zM252.19 1249.49l-68.52 75.78-124.09-314.01 68.52-75.78 124.09 314.01zM276.73 1311.68l-67.52 71.78-25.54-58.19 68.52-75.78 24.54 62.19z"/><path class="cls-3" d="M342.84 1308.9l-68.52 75.78-58.11 1.78 60.52-74.78 66.11-2.78zM3729.58 1159.83l68.52-75.78M3713.91 1085.1l68.52-75.78M1685.13 1169.56l68.52-75.78M1497.89 681.86l68.52-56.85"/></g><path d="M3910.57 1199.05l17.54 95-95.75 7.46-287.45 22.35-94.27 7.3-5.84-94.48-10.29-165.74-77.26 70.06-59.86-87.78-47.21 161.65-25.2 97-94.6-40.09-177.67-75.25 3.36 18.46 17.54 95-95.75 7.45-287.44 22.36-94.27 7.29-5.84-94.47-10.31-165.81-77.25 70.07-59.86-87.78-47.21 161.66-25.2 97-94.6-40.09L1897 1169.56l-47.85-20.27 10.44 74.74 14.23 102.48-103.37-3.8-303.88-11-105.94-3.89L1373 1233l-18.72 1.93-110.71 11.54-17.91 198.25-7.6 84.2-85.14-6-361.6-25.92-93.88-6.71 7.27-93 8.07-103-349.94 14.61-66.11 2.78-24.54-62.19-124.09-314L111.29 893l23.82-37.55 457.94-721.71 43.78-68.91 74.06 40.7 373.47 205.25 93.64 51.41-62.16 82.28-45.53 60.33 88.61-29.75 316.68-106.11 84.57-28.33L1591.5 426l52 141.56 73.32-117.87 43-69.17 74.18 39.79 205.85 110L2078 428.22l22.28-59.73 64.73 4.1 198.52 12.78 62.5 4 20.18 59.63 10.52 31.19 21.37-32.87 29.34-45.32 54.89 7 183 23.2 67.94 8.7 12.4 67.24 56.65 307 150.18-402.86 22.28-59.74 64.73 4.11 198.49 12.8 62.42 4 20.23 59.63 10.58 31.19 21.31-32.86 29.4-45.32 54.9 7 182.89 23.2 68 8.69 12.4 67.24zM1166.24 853V684.72l-282.36-11L852 885.68l-208.78 32.93 400-529.67-373.53-205.26-458 721.66 124.09 314 454.83-19-16.15 207.17 361.54 25.87 24.22-268.76 181.36-18.91 5.22-309.54zm1701.33 375l-13.57-73.26-9.63-52.13-6.79-37.11-16.1-87.17-84.38-457.1-183-23.27-121.64 187.67L2361 474.86l-198.46-12.77L2121 573.64l-15.62 41.79-23.92 64.34-43.27 116-108.63 291.45 279 118.12 92.16-355.25 116.15 170.51 141.13-128 22.2 358.72zm954.5-15.92l-130.44-706.77-183-23.27L3387 669.71 3315.46 459 3117 446.17l-202.52 543.4-30.41 81.55 49.38 21.11 229.46 97.21 92.23-355.25 116.14 170.51 141.13-128 22.2 357.72zM1736.9 992.51l222.41-246 82.69-91.39 14.32-15.85-7-3.72-40.51-21.67-215-114.95-169.93 273.28L1507.11 454l-316.66 106.1 27.16 36.91 38.66 52.53 72.73 98.78 31.17 42.42 41.28 56 42.3 57.52 61.38 83.38-38.63 234.48 303.89 11-33.5-240.61" fill="#c60034" stroke-width="20" stroke="#000" stroke-miterlimit="10" id="Outline"/></g></svg>