<svg xmlns="http://www.w3.org/2000/svg" viewBox="0 0 4022.62 1893.54"><defs><linearGradient id="linear-gradient" x1="2399.17" y1="939.98" x2="2505.58" y2="1806.55" gradientTransform="rotate(.12 2404.557 2776.33)" gradientUnits="userSpaceOnUse"><stop offset="0" stop-color="#43ace0"/><stop offset="1" stop-color="#1f5f9c"/></linearGradient><linearGradient id="linear-gradient-2" x1="1950.1" y1="291.35" x2="2017.26" y2="1773.65" gradientUnits="userSpaceOnUse"><stop offset=".34" stop-color="#f4ba00"/><stop offset=".36" stop-color="#f4b504"/><stop offset=".47" stop-color="#f6a312"/><stop offset=".59" stop-color="#f7981a"/><stop offset=".71" stop-color="#f7941d"/></linearGradient><clipPath id="clip-path"><path d="M1083.48 1817.57l48.22-.74 2715.52-41.63-.44-15.26h.28l15.25-.25-25.2-864.42-15.53.25-.44-15.36-2763.74 42.36.44 15.35-15.49.25 25.17 864.42h.27l15.24-.25zm2714.8-163.38l15.51-.25 1.8 61.48-15.52.23.44 15.37-62 1-.44-15.38-15.51.23-1.8-61.48 15.53-.25-.46-15.35 62-1 .44 15.41M3715 926.8l62-1 .46 15.39L3793 941l1.8 61.5-15.53.21.46 15.39-62 .95-.45-15.38-15.5.23-1.78-61.5 15.51-.23-.51-15.37m-2527.63 767.4l15.51-.23 1.8 61.46-15.55.24.46 15.37-62 .94-.42-15.37-15.53.23-1.79-61.47 15.54-.25-.44-15.37 62-1 .46 15.41m-98.31-711.81l15.51-.25-.44-15.33 62-1 .46 15.37 15.51-.21 1.78 61.48-15 .21h-.51l.44 15.35-62 1-.46-15.39-15.49.23-1.8-61.47" fill="none"/></clipPath><style>.cls-2{isolation:isolate}.cls-3{fill:gray}.cls-4{fill:#676767}.cls-5{fill:#bcbcbc}.cls-10,.cls-13{fill:#63162c}.cls-10,.cls-12{stroke:#000;stroke-miterlimit:10}.cls-10{stroke-width:7.63px}.cls-12{fill:#fab500;stroke-width:30px}.cls-14{fill:#f4ba00}</style></defs><g id="Main_logo" data-name="Main logo"><g class="cls-2" id="Semisolid"><path d="M3821.62 895.49l-4.19 7.89-.44-15.37 4.18-7.89.45 15.37z"/><path d="M3837.12 895.25l-4.18 7.89-15.51.24 4.19-7.89 15.5-.24z"/><path class="cls-3" d="M3777.53 941.22l-4.19 7.88-.45-15.38 4.19-7.89.45 15.39z"/><path class="cls-3" d="M3793.03 940.98l-4.19 7.89-15.5.23 4.19-7.88 15.5-.24zM3777.08 925.83l-4.19 7.89-62.03.95 4.19-7.89 62.03-.95z"/><path d="M3762.47 956.79l-4.18 7.89-.45-15.38 4.18-7.88.45 15.37zM3777.98 956.56l-4.18 7.89-15.51.23 4.18-7.88 15.51-.24z"/><path d="M3762.02 941.42l-4.18 7.88-31.02.48 4.19-7.89 31.01-.47zM3778.41 971.93l-4.18 7.89-.43-15.37 4.18-7.89.43 15.37z"/><path class="cls-4" d="M3762.47 956.79l-4.18 7.89-15.51.23 4.18-7.88 15.51-.24z"/><path d="M3715.51 942.12l-4.18 7.89-.44-15.37 4.19-7.89.43 15.37z"/><path class="cls-4" d="M3762.92 972.15l-4.18 7.89-.45-15.36 4.18-7.88.45 15.35zM3731.45 957.25l-4.18 7.89-.45-15.36 4.19-7.89.44 15.36z"/><path d="M3731.47 957.26l-4.18 7.89h-.02l4.18-7.89h.02zM3731.47 957.26h-.02v-.01h.02v.01z"/><path d="M3731.45 957.26l-4.18 7.89v-.01l4.18-7.89v.01z"/><path class="cls-3" d="M3715.49 942.15l-4.18 7.89-15.52.24 4.19-7.89 15.51-.24z"/><path d="M3778.86 987.29l-4.18 7.89-.45-15.36 4.18-7.89.45 15.36zM3762.92 972.15l-4.18 7.89-15.51.24 4.18-7.89 15.51-.24z"/><path d="M3747.41 972.39l-4.18 7.89-.45-15.37 4.18-7.88.45 15.36zM3731.45 957.25l-4.18 7.89-15.49.24 4.18-7.89 15.49-.24z"/><path class="cls-3" d="M3794.82 1002.47l-4.18 7.88-1.8-61.48 4.19-7.89 1.79 61.49z"/><path class="cls-4" d="M3778.86 987.29l-4.18 7.89-15.5.23 4.19-7.88 15.49-.24z"/><path d="M3763.35 987.53l-4.18 7.88v-.01l4.18-7.88v.01zM3763.35 987.52h.02v.01h-.02v-.01z"/><path d="M3763.37 987.53l-4.19 7.88h-.01l4.18-7.88h.02z"/><path class="cls-4" d="M3747.41 972.39l-4.18 7.89-15.51.23 4.18-7.88 15.51-.24z"/><path d="M3794.85 1002.44l-4.18 7.89-15.52.24 4.18-7.89 15.52-.24z"/><path class="cls-4" d="M3747.86 987.75l-4.18 7.89-.45-15.36 4.18-7.89.45 15.36zM3716.39 972.86l-4.18 7.88-.43-15.36 4.18-7.89.43 15.37z"/><path d="M3763.82 1002.89l-4.19 7.89-.45-15.37 4.19-7.88.45 15.36zM3747.86 987.75l-4.18 7.89-15.51.24 4.18-7.89 15.51-.24z"/><path d="M3732.35 987.99l-4.18 7.89-.45-15.37 4.18-7.88.45 15.36z"/><path d="M3747.41 972.39l.45 15.36-15.51.24-.45-15.36 15.51-.24z"/><path class="cls-3" d="M3779.75 1018.07l-4.18 7.89-.45-15.39 4.18-7.88.45 15.38z"/><path class="cls-4" d="M3732.35 987.99l-4.18 7.89-15.51.24 4.18-7.89 15.51-.24z"/><path class="cls-4" d="M3716.84 988.23l-4.18 7.89-.45-15.38 4.18-7.88.45 15.37zM3732.8 1003.37l-4.19 7.88-.44-15.37 4.18-7.89.45 15.38z"/><path class="cls-4" d="M3763.82 1002.89l-4.19 7.89-31.02.47 4.19-7.88 31.02-.48z"/><path class="cls-5" d="M3762.47 956.8l15.51-.24.45 15.37.43 15.36-15.49.24.45 15.36-31.02.48-.45-15.38 15.51-.24-.45-15.36 15.51-.24-.45-15.35z"/><path d="M3717.3 1003.62l-4.19 7.89-15.5.23 4.18-7.89 15.51-.23z"/><path d="M3701.79 1003.85l-4.18 7.89-1.8-61.5 4.19-7.88 1.79 61.49zM3779.77 1018.04l-4.18 7.89-62.03.95 4.19-7.88 62.02-.96z"/><path d="M3777.55 941.18l15.51-.22 1.79 61.48-15.52.24.44 15.36-62 1-.45-15.37-15.51.23-1.81-61.54 15.51-.24-.43-15.36 62-1zm.86 30.75l-.43-15.37-15.51.24.45 15.35-15.51.24L3747 957l15.51-.24-.45-15.37-31 .47.44 15.37-15.49.23.45 15.37.43 15.37 15.51-.24.45 15.38 31-.48-.45-15.36 15.49-.24-.45-15.36"/><path d="M3717.75 1019l-4.19 7.88-.45-15.37 4.19-7.89.45 15.38z"/><path class="cls-3" d="M3798.3 1654.17l-4.18 7.89-.45-15.4 4.18-7.89.45 15.4z"/><path class="cls-3" d="M3813.8 1653.93l-4.18 7.89-15.5.24 4.18-7.89 15.5-.24zM3797.85 1638.77l-4.18 7.89-62.03.95 4.18-7.89 62.03-.95z"/><path d="M3798.76 1669.5l-4.19 7.88-15.51.24 4.19-7.89 15.51-.23z"/><path d="M3783.25 1669.73l-4.19 7.89-.45-15.37 4.19-7.89.45 15.37zM3782.8 1654.36l-4.19 7.89-31.01.47 4.18-7.88 31.02-.48zM3799.18 1684.87l-4.18 7.89-.43-15.38 4.19-7.88.42 15.37z"/><path class="cls-4" d="M3783.25 1669.73l-4.19 7.89-15.51.24 4.19-7.89 15.51-.24z"/><path d="M3736.29 1655.07l-4.18 7.88-.44-15.36 4.18-7.89.44 15.37z"/><path class="cls-4" d="M3783.69 1685.1l-4.18 7.88-.45-15.36 4.19-7.89.44 15.37zM3752.23 1670.2l-4.19 7.89-.44-15.37 4.18-7.88.45 15.36z"/><path d="M3752.25 1670.21l-4.19 7.89h-.02l4.19-7.89h.02z"/><path d="M3752.23 1670.21l-4.19 7.89v-.01l4.19-7.89v.01zM3768.18 1685.34l-4.18 7.88-.45-15.36 4.19-7.89.44 15.37z"/><path d="M3752.23 1670.2l-4.19 7.89-15.49.24 4.19-7.89 15.49-.24z"/><path class="cls-4" d="M3768.18 1685.34l-4.18 7.88-15.51.24 4.19-7.89 15.5-.23z"/><path d="M3753.12 1700.94l-4.18 7.89-.45-15.37 4.19-7.89.44 15.37z"/><path class="cls-5" d="M3782.8 1654.36l.45 15.37-15.51.24.44 15.37-15.5.23.44 15.37-15.51.24-.44-15.38-.43-15.36 15.49-.24-.45-15.36 31.02-.48z"/><path d="M3752.25 1670.21h-.02v-.01h.02v.01z"/><path class="cls-3" d="M3736.27 1655.09l-4.18 7.89-15.52.24 4.18-7.89 15.52-.24z"/><path d="M3799.63 1700.23l-4.18 7.89-.45-15.36 4.18-7.89.45 15.36zM3783.69 1685.1l-4.18 7.88-15.51.24 4.18-7.88 15.51-.24z"/><path d="M3768.18 1685.34l-.44-15.37 15.51-.24.44 15.37-15.51.24z"/><path class="cls-3" d="M3815.59 1715.41l-4.18 7.88-1.79-61.47 4.18-7.89 1.79 61.48z"/><path class="cls-4" d="M3799.63 1700.23l-4.18 7.89-15.49.24 4.18-7.89 15.49-.24z"/><path d="M3784.14 1700.47l-4.18 7.89h-.02l4.18-7.89h.02z"/><path d="M3784.12 1700.47l-4.18 7.89v-.01l4.18-7.89v.01zM3784.12 1700.46h.02v.01h-.02v-.01zM3815.63 1715.39l-4.19 7.88-15.52.24 4.19-7.88 15.52-.24z"/><path class="cls-4" d="M3768.63 1700.7l-4.18 7.89-.45-15.37 4.18-7.88.45 15.36zM3737.17 1685.8l-4.19 7.89-.43-15.36 4.19-7.89.43 15.36z"/><path d="M3784.59 1715.84l-4.18 7.88-.45-15.36 4.18-7.89.45 15.37zM3768.63 1700.7l-4.18 7.89-15.51.24 4.18-7.89 15.51-.24zM3768.18 1685.34l.45 15.36-15.51.24-.44-15.37 15.5-.23zM3862.31 1759.69l-4.18 7.89-25.19-864.44 4.18-7.89 25.19 864.44z"/><path class="cls-3" d="M3800.52 1731.01l-4.18 7.89-.45-15.37 4.18-7.89.45 15.37z"/><path class="cls-4" d="M3753.12 1700.94l-4.18 7.89-15.51.23 4.18-7.88 15.51-.24z"/><path class="cls-4" d="M3737.61 1701.18l-4.18 7.88-.45-15.37 4.19-7.89.44 15.38z"/><path class="cls-3" d="M3862.31 1759.7l-4.19 7.89-15.52.23 4.19-7.88 15.52-.24z"/><path class="cls-5" d="M3783.25 1669.73l15.51-.23.44 15.37.43 15.36-15.49.24.45 15.37-31.02.47-.45-15.37 15.51-.24-.45-15.36 15.51-.24-.44-15.37z"/><path class="cls-4" d="M3753.57 1716.31l-4.18 7.89-.45-15.37 4.18-7.89.45 15.37z"/><path class="cls-4" d="M3784.59 1715.84l-4.18 7.88-31.02.48 4.18-7.89 31.02-.47z"/><path d="M3847.25 1775.2l-4.18 7.89-.45-15.27 4.19-7.89.44 15.27zM3722.56 1716.8l-4.18 7.88-1.79-61.49 4.18-7.89 1.79 61.5z"/><path d="M3738.07 1716.57l-4.18 7.88-15.51.23 4.18-7.88 15.51-.23zM3878.33 1774.82l-4.18 7.89-15.57.24 4.18-7.89 15.57-.24zM3800.55 1730.99l-4.19 7.89-62.02.95 4.18-7.89 62.03-.95z"/><path d="M3738.52 1731.94l-4.18 7.89-.45-15.38 4.18-7.88.45 15.37zM3821.17 880.12l-4.18 7.89-2763.79 42.36 4.19-7.89 2763.78-42.36z"/><path class="cls-3" d="M1182.1 981l-4.18 7.88-15.52.24 4.18-7.88 15.52-.24z"/><path class="cls-3" d="M1166.58 981.24l-4.18 7.88-.45-15.38 4.18-7.89.45 15.39z"/><path d="M1041.88 922.72l-4.18 7.89-.45-15.42 4.18-7.89.45 15.42z"/><path class="cls-3" d="M1057.82 937.86l-4.18 7.89-.45-15.35 4.18-7.89.45 15.35zM1166.13 965.85l-4.18 7.89-62.02.95 4.19-7.89 62.01-.95z"/><path d="M1057.84 937.85l-4.19 7.89-15.5.24 4.18-7.89 15.51-.24zM1151.53 996.81l-4.18 7.89-.45-15.38 4.18-7.88.45 15.37zM1167.05 996.58l-4.18 7.89-15.51.23 4.18-7.88 15.51-.24z"/><path d="M1151.08 981.44l-4.18 7.88-31.02.48 4.19-7.89 31.01-.47zM1167.47 1011.95l-4.18 7.89-.42-15.37 4.18-7.89.42 15.37z"/><path class="cls-4" d="M1151.53 996.81l-4.18 7.89-15.51.23 4.18-7.88 15.51-.24z"/><path d="M1104.57 982.14l-4.18 7.89-.44-15.37 4.18-7.89.44 15.37z"/><path class="cls-4" d="M1151.99 1012.17l-4.19 7.89-.44-15.36 4.18-7.88.45 15.35zM1120.51 997.27l-4.18 7.89-.45-15.36 4.19-7.89.44 15.36z"/><path d="M1120.53 997.28h-.02v-.01h.02v.01zM1120.53 997.28l-4.18 7.89h-.02l4.18-7.89h.02z"/><path d="M1120.51 997.28l-4.18 7.89v-.01l4.18-7.89v.01z"/><path class="cls-3" d="M1104.57 982.17l-4.19 7.89-15.53.24 4.18-7.89 15.54-.24z"/><path d="M1167.92 1027.31l-4.19 7.89-.44-15.36 4.18-7.89.45 15.36zM1151.99 1012.17l-4.19 7.89-15.51.24 4.19-7.89 15.51-.24zM1136.47 1012.41l-4.18 7.89-.45-15.37 4.18-7.88.45 15.36zM1120.51 997.27l-4.18 7.89-15.49.24 4.18-7.89 15.49-.24z"/><path class="cls-3" d="M1183.89 1042.49l-4.18 7.88-1.79-61.49 4.18-7.88 1.79 61.49z"/><path class="cls-4" d="M1167.92 1027.31l-4.19 7.89-15.48.23 4.18-7.88 15.49-.24z"/><path d="M1152.41 1027.55l-4.19 7.88v-.01l4.19-7.88v.01z"/><path d="M1152.43 1027.55l-4.18 7.88h-.03l4.19-7.88h.02z"/><path class="cls-4" d="M1136.93 1027.78l-4.19 7.88-.45-15.36 4.19-7.89.45 15.37z"/><path d="M1152.88 1042.91l-4.18 7.89-.45-15.37 4.18-7.88.45 15.36zM1136.93 1027.78l-4.19 7.88-15.51.24 4.19-7.89 15.51-.23z"/><path class="cls-5" d="M1151.54 996.82l15.51-.24.45 15.37.42 15.36-15.49.24.45 15.36-31.01.48-.45-15.38 15.51-.23-.45-15.37 15.51-.24-.45-15.35z"/><path d="M1152.41 1027.54h.02v.01h-.02v-.01z"/><path class="cls-4" d="M1136.47 1012.41l-4.18 7.89-15.51.23 4.18-7.88 15.51-.24z"/><path d="M1183.91 1042.46l-4.18 7.89-15.52.24 4.18-7.89 15.52-.24z"/><path class="cls-4" d="M1105.45 1012.88l-4.18 7.88-.43-15.36 4.18-7.89.43 15.37z"/><path d="M1121.41 1028.01l-4.19 7.89-.44-15.37 4.18-7.88.45 15.36z"/><path class="cls-3" d="M1168.8 1058.09l-4.18 7.89-.45-15.38 4.19-7.89.44 15.38z"/><path class="cls-4" d="M1121.41 1028.01l-4.19 7.89-15.51.24 4.19-7.89 15.51-.24z"/><path class="cls-4" d="M1105.9 1028.25l-4.19 7.89-.44-15.38 4.18-7.88.45 15.37zM1121.87 1043.39l-4.19 7.88-.45-15.37 4.19-7.89.45 15.38zM1152.88 1042.91l-4.18 7.89-31.02.47 4.19-7.88 31.01-.48z"/><path d="M1090.85 1043.87l-4.19 7.89-1.79-61.5 4.19-7.88 1.79 61.49zM1106.36 1043.64l-4.19 7.89-15.51.23 4.19-7.89 15.51-.23z"/><path d="M1106.8 1059.02l-4.18 7.88-.45-15.37 4.19-7.89.44 15.38z"/><path d="M1166.61 981.2l15.51-.22 1.79 61.48-15.52.24.44 15.36-62 1-.44-15.37-15.51.23-1.79-61.49 15.51-.24-.44-15.36 62-1zm-45.2 46.81l-.45-15.36 15.51-.24-.45-15.36 15.51-.24-.45-15.37-31 .47.45 15.37-15.49.23.45 15.37.43 15.37 15.51-.24m46.06-16.06l-.42-15.37-15.51.24.45 15.35-15.51.24.45 15.37-15.51.23.44 15.38 31-.48-.44-15.36 15.48-.24-.45-15.36"/><path d="M1168.83 1058.06l-4.18 7.89-62.03.95 4.18-7.88 62.03-.96z"/><path class="cls-3" d="M1187.36 1694.19l-4.19 7.89-.45-15.4 4.19-7.89.45 15.4zM1202.88 1693.95l-4.19 7.89-15.52.24 4.19-7.89 15.52-.24z"/><path class="cls-3" d="M1186.91 1678.79l-4.19 7.89-62.01.95 4.18-7.89 62.02-.95z"/><path d="M1187.82 1709.52l-4.18 7.88-15.51.24 4.18-7.89 15.51-.23zM1172.3 1709.75l-4.18 7.89-.45-15.37 4.19-7.89.44 15.37z"/><path d="M1171.86 1694.38l-4.19 7.89-31.02.47 4.19-7.88 31.02-.48zM1188.24 1724.89l-4.18 7.89-.42-15.38 4.18-7.88.42 15.37z"/><path class="cls-4" d="M1172.3 1709.75l-4.18 7.89-15.51.24 4.19-7.89 15.5-.24z"/><path d="M1125.35 1695.09l-4.19 7.88-.44-15.36 4.19-7.89.44 15.37z"/><path class="cls-4" d="M1172.76 1725.12l-4.18 7.89-.45-15.37 4.18-7.89.45 15.37zM1141.29 1710.22l-4.19 7.89-.45-15.37 4.19-7.88.45 15.36z"/><path d="M1141.3 1710.23l-4.18 7.89h-.02l4.19-7.89h.01z"/><path d="M1141.29 1710.23l-4.19 7.89v-.01l4.19-7.89v.01zM1141.3 1710.23h-.01v-.01h.01v.01z"/><path class="cls-3" d="M1125.34 1695.11l-4.18 7.89-15.54.24 4.19-7.89 15.53-.24z"/><path d="M1188.69 1740.26l-4.18 7.88-.45-15.36 4.18-7.89.45 15.37zM1172.76 1725.12l-4.18 7.89-15.51.23 4.18-7.88 15.51-.24zM1157.24 1725.36l-4.18 7.88-.45-15.36 4.19-7.89.44 15.37zM1141.29 1710.22l-4.19 7.89-15.49.24 4.19-7.89 15.49-.24z"/><path class="cls-3" d="M1204.67 1755.43l-4.19 7.88-1.79-61.47 4.19-7.89 1.79 61.48z"/><path class="cls-4" d="M1188.69 1740.26l-4.18 7.88-15.48.24 4.18-7.89 15.48-.23z"/><path d="M1173.18 1740.48h.03v.01h-.03v-.01zM1173.21 1740.49l-4.18 7.89h-.03l4.18-7.89h.03z"/><path d="M1173.18 1740.49l-4.18 7.89v-.01l4.18-7.89v.01z"/><path class="cls-4" d="M1157.24 1725.36l-4.18 7.88-15.51.24 4.18-7.89 15.51-.23z"/><path d="M1204.68 1755.41l-4.18 7.88-15.52.24 4.19-7.89 15.51-.23z"/><path class="cls-4" d="M1157.7 1740.72l-4.18 7.89-.45-15.37 4.18-7.88.45 15.36zM1126.22 1725.82l-4.18 7.89-.43-15.36 4.19-7.89.42 15.36z"/><path d="M1173.66 1755.86l-4.19 7.88-.44-15.36 4.18-7.89.45 15.37zM1157.7 1740.72l-4.18 7.89-15.51.24 4.18-7.89 15.51-.24zM1142.18 1740.96l-4.18 7.89-.45-15.37 4.18-7.89.45 15.37z"/><path class="cls-3" d="M1189.58 1771.03l-4.19 7.89-.44-15.37 4.18-7.89.45 15.37z"/><path class="cls-5" d="M1171.86 1694.38l.44 15.37-15.5.24.44 15.37-15.51.23.45 15.37-15.51.24-.45-15.38-.42-15.36 15.49-.24-.45-15.36 31.02-.48z"/><path class="cls-4" d="M1142.18 1740.96l-4.18 7.89-15.51.23 4.18-7.88 15.51-.24z"/><path class="cls-4" d="M1126.67 1741.2l-4.18 7.88-.45-15.37 4.18-7.89.45 15.38zM1173.66 1755.86l-4.19 7.88-31.02.48 4.19-7.89 31.02-.47z"/><path class="cls-4" d="M1142.64 1756.33l-4.19 7.89-.44-15.37 4.18-7.89.45 15.37z"/><path d="M1111.62 1756.82l-4.18 7.88-1.79-61.49 4.18-7.89 1.79 61.5zM1127.13 1756.59l-4.18 7.88-15.51.23 4.18-7.88 15.51-.23z"/><path d="M1127.58 1771.96l-4.19 7.89-.44-15.38 4.18-7.88.45 15.37z"/><path class="cls-5" d="M1172.31 1709.75l15.51-.23.45 15.37.42 15.37-15.48.23.45 15.37-31.02.47-.45-15.37 15.51-.24-.45-15.36 15.51-.24-.45-15.37z"/><path d="M1187.38 1694.14l15.51-.22 1.79 61.49-15.51.24.44 15.36-62 1-.45-15.37-15.51.23-1.79-61.5 15.52-.23-.44-15.37 62-1zm.86 30.75l-.42-15.37-15.51.23.45 15.37-15.51.24.45 15.36-15.51.24.45 15.37 31-.47-.45-15.37 15.48-.24-.45-15.36m-46.04 16.11l-.45-15.37 15.51-.23-.44-15.37 15.5-.24-.44-15.37-31 .48.45 15.36-15.49.24.44 15.36.43 15.38 15.51-.24"/><path d="M1189.61 1771.01l-4.19 7.89-62.03.95 4.19-7.89 62.03-.95z"/><path class="cls-3" d="M1083.01 1802.3l-4.18 7.89-15.51.23 4.19-7.88 15.5-.24z"/><path class="cls-3" d="M1067.51 1802.54l-4.19 7.88-25.19-864.43 4.19-7.89 25.19 864.44zM3847.23 1775.21l-4.18 7.89-2763.78 42.36 4.18-7.89 2763.78-42.36z"/><path class="cls-3" d="M1083.45 1817.57l-4.18 7.89-.44-15.27 4.18-7.89.44 15.27z"/><path d="M3878.33 1774.83l-26.08-895.18-15.58.25-.46-15.42-2794.76 42.83.44 15.42-15.55.25 26.08 895.16 15.55-.23.45 15.32 2794.79-42.83-.46-15.34zm-31.09.37l-2763.76 42.37-.45-15.28-15.51.25-25.17-864.44 15.49-.23-.44-15.37 2763.76-42.37.46 15.37 15.49-.23 25.2 864.42-15.51.25.44 15.26"/><path d="M3798.33 1654.12l15.5-.22 1.8 61.49-15.52.24.44 15.36-62 1-.45-15.37-15.51.23-1.79-61.5 15.52-.23-.44-15.37 62-1zm.85 30.75l-.43-15.37-15.5.23-.45-15.37-31 .48.45 15.36-15.49.24.44 15.36.43 15.38 15.51-.24.45 15.37 31-.47-.45-15.37 15.49-.24-.45-15.36"/><path d="M1083.48 1817.57l48.22-.74 2715.52-41.63-.44-15.26h.28l15.25-.25-25.2-864.42-15.53.25-.44-15.36-2763.74 42.36.44 15.35-15.49.25 25.17 864.42h.27l15.24-.25zm2714.8-163.38l15.51-.25 1.8 61.48-15.52.23.44 15.37-62 1-.44-15.38-15.51.23-1.8-61.48 15.53-.25-.46-15.35 62-1 .44 15.41M3715 926.8l62-1 .46 15.39L3793 941l1.8 61.5-15.53.21.46 15.39-62 .95-.45-15.38-15.5.23-1.78-61.5 15.51-.23-.51-15.37m-2527.63 767.4l15.51-.23 1.8 61.46-15.55.24.46 15.37-62 .94-.42-15.37-15.53.23-1.79-61.47 15.54-.25-.44-15.37 62-1 .46 15.41m-98.31-711.81l15.51-.25-.44-15.33 62-1 .46 15.37 15.51-.21 1.78 61.48-15 .21h-.51l.44 15.35-62 1-.46-15.39-15.49.23-1.8-61.47" fill="url(#linear-gradient)"/><path class="cls-5" d="M3731.89 972.64l15.51-.25-.44-15.35 15.51-.25-.46-15.37-31.02.48.46 15.37-15.49.23.44 15.37.42 15.37 15.51-.25-.44-15.35zM1151.08 981.44l.45 15.37-15.51.24.45 15.36-15.51.24.45 15.36-15.51.24-.45-15.37-.43-15.37 15.49-.24-.44-15.36 31.01-.47z"/><path d="M1067.96 1817.9l-4.18 7.89-15.55.23 4.18-7.88 15.55-.24z"/><path d="M1052.41 1818.14l-4.18 7.88-26.09-895.17 4.19-7.89 26.08 895.18zM1068.41 1833.22l-4.18 7.89-.45-15.32 4.18-7.89.45 15.32z"/><path d="M3863.21 1790.38l-4.19 7.89-2794.79 42.84 4.18-7.89 2794.8-42.84z"/></g><path id="Shadow" opacity=".27" d="M3951.51 1245.64l-210.85-782.71-182.88-23.21-54.9-7.02-56.16 62.11-5.13-15.12-44.23.37-38.43-64.01-198.52-12.78-64.72-4.1-68.52 75.78-22.28 59.73-95 254.83L2753 885l-7.93-266.86 41.17-139.3-182.96-23.2-54.9-7.03-56.13 62.09-5.09-15.1-54 30.73-28.72-94.37-198.52-12.77-64.73-4.11-68.52 75.79-22.28 59.73-3.11 8.36-172.31-92.05-74.27-39.76-68.52 75.79-42.96 69.17-12.74 20.48-52.6 179.62-200.4-109.61 93.07-247.06-316.66 106.11-88.61 29.75 45.53-60.33-170.97 90.02 139.47-223.71-373.48-205.26-74.05-40.7-68.52 75.79-43.78 68.91-457.94 721.65-23.82 37.56 16.81 42.52 124.09 314.02 24.54 62.19 66.11-2.79 349.94-14.59-8.07 102.99-7.27 93.01 93.88 6.71 361.57 25.81 85.14 6.05 68.52-75.78 7.6-84.2 11.65-128.96 48.45-5.05 18.72-1.93-12.35 74.92 105.94 3.89 303.88 10.95 103.37 3.79 68.52-75.78-9.14-65.83 242.7 102.79 94.6 40.08 68.52-75.78 25.2-97 11.16-38.25 27.39 40.15 77.25-70.08 10.3 165.75 5.84 94.47 94.27-7.29 287.44-22.36 95.75-7.45 68.36-75.61 88.41 37.45 94.6 40.09 68.52-75.78 25.2-97.01 11.17-38.25 27.38 40.16 77.26-70.08 10.29 165.74 5.84 94.47 94.27-7.29 287.45-22.36 95.75-7.45 68.51-75.78-17.54-94.96z"/><path id="Fill" fill="url(#linear-gradient-2)" d="M3933.19 1303.72l-20.64-101.5-130.44-706.79-12.46-67.59-68.38-8.74-182.88-23.21-54.9-7.02-.26-.03-49.76 64.67-31.19-77.26-62.77-4.03-198.52-12.78-65.09-4.13-11.84 3.67-56.74 72.33-.04.06-22.31 59.81-94.37 253.13-42.98-232.96-12.47-67.6-68.3-8.74-182.96-23.2-54.9-7.02-.25-.04-55.75 61.65-25.14-74.24-62.83-4.03-198.52-12.77-65.1-4.13-11.84 3.67-56.73 72.33-25.28 67.69-171.79-91.78-74.62-39.94-116.99 187.93-50.69-142-31.33-85.43-.16-.45-401.69 134.59-87.08 29.24 107.06-141.78-94.17-51.69-373.47-205.26-74.47-40.92-35.01 55.11L67.67 934.17l-23.82 37.56-.14.21 141 356.8 25.84 58.88 417.66-16.74-11.03 105.42-6.3 81.5 539.31 47.63 69.79-72.76 19.26-223.24 66.11-7.86-12.34 80.83 512.96 20.66 72.91-69.77-12.1-68.55 335.79 139.66 69.27-65.47-.05-7.44.53.23 25.34-97.55 10.88-37.24 27.1 39.76 76.91-69.77 10.23 164.71 4.91 89.56 478.13-36.74 69.26-72.49 181.98 76.52 69.34-63.52-.12-9.38.54.22 25.34-97.55 10.87-37.23 27.11 36.75 74.91-71.76 12.23 169.72 7.94 88.56 476.07-34.75 71.9-65.82z"/><g id="Sides"><path class="cls-10" d="M3691.63 505.31l-68.52 75.78-182.96-23.27 68.52-75.78 182.96 23.27zM3411.22 464.28l-68.51 75.78 21.3-32.86 68.52-75.78-21.31 32.86zM3380.95 688.71l-62.52 56.78-71.48-210.76 68.51-75.78 65.49 229.76zM3315.46 458.95l-68.51 75.78-198.46-12.78 68.52-75.78 198.45 12.78zM3032.46 412.31l-68.52 75.78 22.28-59.74 55.52-70.78-9.28 54.74z"/><path class="cls-10" d="M3822.07 1212.04l-68.52 75.78-130.44-706.73 68.52-75.78 130.44 706.73zM3936.11 1300l-76.52 69.79-95.75 7.45 68.52-75.79M3357.25 1140.97l-68.51 75.78-59.87-87.78 68.52-75.79 59.86 87.79zM3434.51 1070.89l-68.52 75.78-77.25 70.08 68.51-75.78 77.26-70.08z"/><path class="cls-10" d="M3832.36 1301.45l-68.52 75.79-287.45 22.36 68.52-75.79 287.45-22.36zM3444.8 1236.63l-68.52 75.78-10.29-165.74 68.52-75.78 10.29 165.74zM2737.14 521.23l-68.52 75.78-182.96-23.27 68.52-75.78 182.96 23.27zM2882.28 815.17l-68.52 75.78 150.18-402.86 68.52-75.78-150.18 402.86zM3544.91 1323.81l-68.52 75.79-87.27 3.29 61.52-71.78 94.27-7.3z"/><path class="cls-10" d="M3450.64 1331.11l-66.52 68.78-7.84-87.48 68.52-75.78 5.84 94.48zM2456.73 480.2l-68.52 75.78 21.37-32.86 68.52-75.79-21.37 32.87zM3162.92 1189.44l-68.52 75.78 92.23-355.25 56.52-80.78-80.23 360.25zM2821.52 978.33l-68.52 75.78-84.38-457.1 68.52-75.78 84.38 457.1zM3228.99 1321.85l-72.52 65.78-94.61-40.08 61.52-69.79M2426.04 705.59l-62.1 55.82-71.49-210.77 68.52-75.78 65.07 230.73z"/><path class="cls-10" d="M2837.62 1065.5l-68.52 75.78-16.1-87.17 68.52-75.78 16.1 87.17zM2360.97 474.86l-68.52 75.78-198.46-12.77 68.52-75.78 198.46 12.77zM3130.38 1271.76l-68.52 75.79-177.66-75.25 68.51-75.78 177.67 75.24zM2844.41 1102.61l-68.52 75.78-6.79-37.11 68.52-75.78 6.79 37.11zM2077.97 428.22l-68.52 75.79 22.28-59.74 55.51-70.78-9.27 54.73zM2854.04 1154.74l-68.52 75.78-9.63-52.13 68.52-75.78 9.63 52.13zM2867.57 1227.95l-68.52 75.78-13.53-73.21 68.52-75.78 13.53 73.21zM2039.88 530.3l-68.51 75.78 38.08-102.07 68.52-75.79-38.09 102.08z"/><path class="cls-10" d="M2973.61 1309.92l-68.52 75.78-95.75 7.45 68.52-75.78 95.75-7.45zM2056.29 639.27l-68.52 75.78-7.01-3.72 68.52-75.78 7.01 3.72z"/><path class="cls-10" d="M2049.28 635.55l-68.52 75.78-40.51-21.67 68.52-75.78 40.51 21.67zM2041.96 655.12l-68.51 75.78 14.32-15.85 68.52-75.78-14.33 15.85zM2008.77 613.88l-68.52 75.78-214.97-114.95 68.52-75.78 214.97 114.95zM2480.01 1086.81l-68.52 75.78-77.25 70.08 68.52-75.79 77.25-70.07z"/><path class="cls-10" d="M2402.76 1156.88l-68.52 75.79-59.86-87.79 68.52-75.78 59.86 87.78zM2877.86 1317.37l-68.52 75.78-287.44 22.36 68.52-75.78 287.44-22.36zM2490.31 1252.55l-68.52 75.78-10.3-165.74 68.52-75.78 10.3 165.74z"/><path class="cls-10" d="M2590.42 1339.73l-68.52 75.78-90.27 4.3 64.52-72.79 94.27-7.29zM2496.15 1347.02l-69.52 67.79-4.84-86.48 68.52-75.78 5.84 94.47zM2208.49 1205.36l-68.52 75.78 92.16-355.25 56.52-80.78-80.16 360.25zM1617.71 791.67l-63.79 27.88-115.32-289.73 68.51-75.78 110.6 337.63zM2274.49 1337.77l-72.52 65.78-94.6-40.09 68.52-75.78M1736.9 992.51l-68.51 75.79 222.4-246.03 68.52-75.78-222.41 246.02z"/><path class="cls-10" d="M2175.89 1287.68l-68.52 75.78-278.9-118.12 68.52-75.78 278.9 118.12z"/><path class="cls-10" d="M1896.99 1169.56l-68.52 75.78-47.85-20.27 68.52-75.78 47.85 20.27zM1507.11 454.04l-68.51 75.78-316.67 106.1 68.52-75.78 316.66-106.1zM1043.17 388.94l-68.52 75.79-373.48-205.26 68.52-75.78 373.48 205.25zM1356.83 836.17l-68.52 75.78-16.86 1.49 68.52-75.78 16.86-1.49zM1770.4 1233.13l-68.52 75.78-33.49-240.61 63.51-77.79 38.5 242.62z"/><path class="cls-10" d="M1338.99 854.38l3.15 26.57-54.96 61.9 1.13-30.9M1287.31 912.95l-67.37 5.05 68.52-75.78 58.37-6.05-59.52 76.78z"/><path class="cls-10" d="M1346.83 836.17l5.41 92.69-68.51 75.78 4.58-92.69 58.52-75.78zM1288.46 842.22L1219.94 918l-117.21 9.79 63.51-74.78 122.22-10.79zM1166.24 853.01l-68.51 69.78.03-162.28 68.52-75.78-.04 168.28z"/><path class="cls-10" d="M1166.28 684.73l-68.52 75.78L805.4 749.5l68.52-75.78 292.36 11.01zM1341.61 1145.7l-68.52 75.79 10.64-216.85 68.51-75.78-10.63 216.84zM1881.81 1333.51l-76.52 68.78-103.37-3.8-303.88-10.95 68.52-75.78M1372.97 1232.95l-68.51 75.79-18.73 1.92 68.52-75.78 18.72-1.93z"/><path class="cls-10" d="M1360.62 1307.87l105.94 3.89-68.52 75.78-105.94-3.88 12.36-74.92 68.51-75.79-12.35 74.92M1716.56 1320.76l-68.52 75.78M1360.62 1307.87l-68.52 75.79M1354.25 1234.88l-68.52 75.78-110.7 11.54 68.51-75.78 110.71-11.54zM643.22 918.61l-68.51 75.78 399.94-529.66 68.52-75.79-399.95 529.67z"/><path class="cls-10" d="M849.04 898.68l-75.52 62.78-198.81 32.93 68.51-75.78 205.82-19.93zM1136.03 1433.38l-68.52 75.78 24.22-268.76 55.52-72.78-11.22 265.76zM1219.03 1539.87l-69.52 64.78-85.14-6.05 61.52-67.78 93.14 9.05zM593.04 133.74L135.11 855.4l-68.52 75.78 569.56-873.4M684.71 1397.29l-68.52 75.79 8.07-102.99 68.52-75.78-8.07 102.98zM111.3 892.95l-68.52 75.78 23.81-37.55 68.52-75.78-23.81 37.55z"/><path class="cls-10" d="M128.1 935.48l-68.52 75.78-16.8-42.53 68.52-75.78 16.8 42.53zM771.32 1497.01l361.57 25.81-68.52 75.78-454.45-39.52 6.27-86 68.52-75.79-7.27 93.01 93.88 6.71zM677.44 1490.3l-67.52 68.78M807.76 1500.3l-67.52 68.78M692.78 1294.31l-68.52 75.78-349.94 14.59 68.52-75.78 349.94-14.59zM252.19 1249.49l-68.52 75.78-124.09-314.01 68.52-75.78 124.09 314.01zM276.73 1311.68l-67.52 71.78-25.54-58.19 68.52-75.78 24.54 62.19z"/><path class="cls-10" d="M342.84 1308.9l-68.52 75.78-58.11 1.78 60.52-74.78 66.11-2.78zM3729.58 1159.83l68.52-75.78M3713.91 1085.1l68.52-75.78M1685.13 1169.56l68.52-75.78M1497.89 681.86l68.52-56.85"/></g><path d="M3910.57 1199.05l17.54 95-95.75 7.46-287.45 22.35-94.27 7.3-5.84-94.48-10.29-165.74-77.26 70.06-59.86-87.78-47.21 161.65-25.2 97-94.6-40.09-177.67-75.25 3.36 18.46 17.54 95-95.75 7.45-287.44 22.36-94.27 7.29-5.84-94.47-10.31-165.81-77.25 70.07-59.86-87.78-47.21 161.66-25.2 97-94.6-40.09L1897 1169.56l-47.85-20.27 10.44 74.74 14.23 102.48-103.37-3.8-303.88-11-105.94-3.89L1373 1233l-18.72 1.93-110.71 11.54-17.91 198.25-7.6 84.2-85.14-6-361.6-25.92-93.88-6.71 7.27-93 8.07-103-349.94 14.61-66.11 2.78-24.54-62.19-124.09-314L111.29 893l23.82-37.55 457.94-721.71 43.78-68.91 74.06 40.7 373.47 205.25 93.64 51.41-62.16 82.28-45.53 60.33 88.61-29.75 316.68-106.11 84.57-28.33L1591.5 426l52 141.56 73.32-117.87 43-69.17 74.18 39.79 205.85 110L2078 428.22l22.28-59.73 64.73 4.1 198.52 12.78 62.5 4 20.18 59.63 10.52 31.19 21.37-32.87 29.34-45.32 54.89 7 183 23.2 67.94 8.7 12.4 67.24 56.65 307 150.18-402.86 22.28-59.74 64.73 4.11 198.49 12.8 62.42 4 20.23 59.63 10.58 31.19 21.31-32.86 29.4-45.32 54.9 7 182.89 23.2 68 8.69 12.4 67.24zM1166.24 853V684.72l-282.36-11L852 885.68l-208.78 32.93 400-529.67-373.53-205.26-458 721.66 124.09 314 454.83-19-16.15 207.17 361.54 25.87 24.22-268.76 181.36-18.91 5.22-309.54zm1701.33 375l-13.57-73.26-9.63-52.13-6.79-37.11-16.1-87.17-84.38-457.1-183-23.27-121.64 187.67L2361 474.86l-198.46-12.77L2121 573.64l-15.62 41.79-23.92 64.34-43.27 116-108.63 291.45 279 118.12 92.16-355.25 116.15 170.51 141.13-128 22.2 358.72zm954.5-15.92l-130.44-706.77-183-23.27L3387 669.71 3315.46 459 3117 446.17l-202.52 543.4-30.41 81.55 49.38 21.11 229.46 97.21 92.23-355.25 116.14 170.51 141.13-128 22.2 357.72zM1736.9 992.51l222.41-246 82.69-91.39 14.32-15.85-7-3.72-40.51-21.67-215-114.95-169.93 273.28L1507.11 454l-316.66 106.1 27.16 36.91 38.66 52.53 72.73 98.78 31.17 42.42 41.28 56 42.3 57.52 61.38 83.38-38.63 234.48 303.89 11-33.5-240.61" fill="#c60034" stroke-width="20" stroke="#000" stroke-miterlimit="10" id="Outline"/><g id="Text"><path class="cls-12" d="M1391.62 1584.79l-.54-19.46-68.7.93-12.26 23.01 3.2 116.76 19.62-.27 12.26-23.01-.71-25.81 26.39-.36 12.25-23.01-.53-19.46-39.27.53-.17-6.35 36.2-.49 12.26-23.01zM1493.07 1564l-49.09.66-28.64 29.6-12.25 23 1.6 58.38 30.24 28.78 49.08-.66 28.64-29.59 12.26-23-1.6-58.38zm-36.6 97.83l-20.16-19.2-.79-28.85 6.56-6.78 29.45-.4 20.15 19.19.79 28.86-6.55 6.78zM1604.86 1562.43l-12.26 23 2.04 74.47-16.56.23-10.08-9.6-2.4-87.57-19.63.27-12.26 23 2.67 97.31 20.16 19.18 39.26-.53 19.1-19.72 12.26-23.01-2.67-97.3-19.63.27zM1721.11 1622l6.7-12.58-.8-29.18-20.16-19.2-58.89.8-12.25 23 3.19 116.75 19.63-.26 12.26-23-.71-25.81 16.57-.23 10.08 9.6 1.07 38.91 19.62-.26 12.26-23-1.34-48.65zm-29.22-12.09l-23 .31-.17-6.35 16.56-.22zM1851.92 1559.07l-12.25 23.01.79 28.86-6.56 6.77-20.17-19.18-1.06-38.92-19.64.26-12.25 23.01 1.33 48.65 30.25 28.79 1.06 38.91 19.64-.26 12.26-23.01-.79-28.86 16.1-16.64 12.26-23.01-1.33-48.64-19.64.26zM1917.32 1655.52l-.18-6.36 26.38-.36 12.26-23.01-.54-19.46-39.26.54-.17-6.35 36.19-.5 12.26-23-.53-19.47-68.71.94-12.26 23 3.2 116.76 68.71-.93 12.25-23.01-.53-19.46-49.07.67zM2036.27 1556.57l-19.63.26-28.64 29.6-12.26 23 2.4 87.56 19.62-.27 12.26-23-.44-16.08 26.38-.36 1.07 38.92 19.62-.27 12.26-23-2.4-87.56zm-4.88 58.46l-23 .31-.26-9.39 6.57-6.78zM2162.33 1616l6.7-12.58-.8-29.19-20.16-19.19-58.89.8-12.26 23 3.2 116.75 19.63-.27 12.25-23-.7-25.82 16.56-.22 10.09 9.6 1.06 38.91 19.63-.27 12.25-23-1.33-48.65zm-29.22-12.09l-23 .31-.18-6.35 16.57-.23zM2254.89 1605.64h3.33l12.26-23-.27-9.73-20.15-19.2-39.27.54-19.09 19.73-12.26 23 .8 29.19 16.67 15.87h-3.35l-12.25 23 .26 9.73 20.16 19.19 39.27-.53 19.09-19.72 12.26-23-.8-29.19zm-39.54-9.19l13.17-.18 6.58 6.26-13.16.18zm14.5 48.46l6.59 6.28-13.17.17-6.59-6.27zM2414.76 1551.43l-49.07.66-28.64 29.6-12.26 23 1.6 58.38 30.24 28.79 49.07-.67 28.65-29.59 12.26-23-1.6-58.38zm-36.59 97.83l-20.17-19.19-.79-28.86 6.57-6.78 29.44-.4 20.17 19.2.79 28.85-6.57 6.78zM2536.91 1569.24l-.53-19.46-68.71.93-12.26 23.01 3.2 116.75 19.64-.27 12.25-23.01-.7-25.81 26.37-.36 12.26-23-.54-19.46-39.25.53-.18-6.35 36.2-.5 12.25-23zM2681.46 1547.81l-28.65 29.59-30.24-28.79-19.64.26-12.25 23.01 3.2 116.75 19.63-.26 12.25-23.01-1.42-51.96 17.01 16.19 28.65-29.58 2.4 87.56 19.63-.27 12.26-23.01-3.2-116.75-19.63.27zM2773.63 1546.55l-19.64.27-28.64 29.59-12.25 23 2.39 87.56 19.64-.27 12.25-23-.44-16.09 26.38-.35 1.06 38.91 19.64-.27 12.25-23-2.39-87.56zm-4.88 58.47l-23 .31-.25-9.4 6.56-6.77zM2899.69 1606l6.7-12.58-.8-29.18-20.16-19.2-58.89.8-12.26 23 3.2 116.76 19.63-.27 12.26-23-.71-25.81 16.56-.23 10.08 9.6 1.07 38.92 19.63-.27 12.26-23-1.33-48.64zm-29.22-12.09l-23 .31-.17-6.35 16.56-.22zM2928.52 1544.45l-12.26 23.01 3.2 116.75 19.64-.27 12.25-23-3.19-116.76-19.64.27zM3050.14 1542.8l-49.08.66-28.64 29.6-12.26 23 1.6 58.38 30.24 28.79 49.08-.67 28.64-29.58 12.26-23-1.6-58.38zm-36.6 97.83l-20.16-19.19-.79-28.86 6.56-6.78 29.45-.4 20.16 19.2.79 28.85-6.56 6.78zM3224.66 1540.43l-28.64 29.59-30.25-28.79-19.63.26-12.26 23.01 3.2 116.76 19.63-.27 12.26-23.01-1.42-51.96 17.01 16.19 28.64-29.58 2.4 87.56 19.64-.27 12.25-23.01-3.2-116.75-19.63.27zM3316.83 1539.18l-19.63.26-28.65 29.56-12.25 23 2.4 87.56 19.63-.26 12.26-23-.44-16.08 26.37-.36 1.07 38.91 19.63-.26 12.26-23-2.4-87.56zm-4.88 58.46l-23 .31-.26-9.39 6.56-6.78zM3410.77 1596.46l25.5-26.33 12.26-23.01-.27-9.73-19.63.27-38.19 39.45-1.07-38.92-19.63.27-12.26 23 3.2 116.76 19.64-.27 12.25-23.01-.36-13.04 37.18 35.39 9.81-.14 12.26-23.01-.53-19.45-40.16-38.23zM3494.02 1634.11l-.17-6.37 26.37-.35 12.26-23.01-.53-19.46-39.26.53-.17-6.35 36.19-.49 12.26-23.01-.54-19.46-68.71.93-12.25 23.01 3.2 116.75 68.7-.93 12.26-23.01-.53-19.45-49.08.67zM3644.28 1602.86l-7.23-6.88 6.7-12.58-.8-29.19-20.17-19.21-58.89.8-12.25 23 3.19 116.75 19.64-.27 12.25-23-.7-25.82 16.56-.22 10.08 9.6 1.07 38.91 19.63-.27 12.26-23zm-36.46-19l-23 .31-.17-6.35 16.55-.23z"/><g id="Text-2" data-name="Text"><g class="cls-2"><path class="cls-13" d="M1390.62 1584.79l-12.26 23.01-49.08.66 12.25-23 49.09-.67zM1382.13 1633.57l-12.25 23.01-39.27.53 12.26-23.01 39.26-.53z"/><path class="cls-14" d="M1390.08 1565.33l.54 19.46-49.09.67.8 29.18 39.27-.53.53 19.46-39.26.53 1.33 48.65-19.63.26-3.19-116.75 68.7-.93z"/><path class="cls-13" d="M1344.2 1682.75l-12.26 23.01-19.62.26 12.25-23.01 19.63-.26zM1324.57 1683.01l-12.25 23.01-3.2-116.75 12.26-23.01 3.19 116.75z"/></g><g class="cls-2"><path class="cls-13" d="M1502.94 1602.73l-12.26 23.01-20.15-19.19 12.25-23.01 20.16 19.19z"/><path class="cls-13" d="M1482.78 1583.54l-12.25 23.01-29.45.39 12.25-23 29.45-.4z"/><path class="cls-13" d="M1453.33 1583.94l-12.25 23-19.09 19.73 12.25-23 19.09-19.73zM1504.01 1641.65l-12.26 23-1.07-38.91 12.26-23.01 1.07 38.92zM1523.91 1651.11l-12.26 23.01-28.64 29.58 12.26-23.01 28.64-29.58zM1415.94 1652.58l-12.26 23.01-1.59-58.38 12.25-23.01 1.6 58.38z"/><path class="cls-14" d="M1492.07 1563.94l30.24 28.79 1.6 58.38-28.64 29.59-49.09.66-30.24-28.78-1.6-58.38 28.64-29.59zm11.94 77.71l-1.07-38.92-20.16-19.19-29.45.4-19.09 19.73 1.07 38.91 20.16 19.2 29.45-.4 19.09-19.73"/><path class="cls-13" d="M1446.18 1681.36l-12.25 23.01-30.25-28.78 12.26-23.01 30.24 28.78zM1495.27 1680.69l-12.26 23.01-49.08.67 12.25-23.01 49.09-.67z"/></g><g class="cls-2"><path class="cls-13" d="M1606.26 1649.99L1594 1673l-2.4-87.57 12.26-23.01 2.4 87.57zM1626.16 1659.46l-12.26 23-19.1 19.72 12.26-23 19.1-19.72zM1547.63 1660.52l-12.25 23.01-2.67-97.3 12.26-23.01 2.66 97.3z"/><path class="cls-14" d="M1623.49 1562.16l2.67 97.3-19.1 19.72-39.26.53-20.17-19.19-2.66-97.3 19.63-.26 2.4 87.57 10.08 9.59 19.64-.26 9.54-9.87-2.4-87.57 19.63-.26z"/><path class="cls-13" d="M1607.06 1679.18l-12.26 23-39.26.54 12.26-23.01 39.26-.53z"/><path class="cls-13" d="M1567.8 1679.71l-12.26 23.01-20.16-19.19 12.25-23.01 20.17 19.19z"/></g><g class="cls-2"><path class="cls-13" d="M1706.65 1590.23l-12.25 23.01-10.09-9.6 12.26-23.01 10.08 9.6zM1706.92 1599.96l-12.26 23.01-.26-9.73 12.25-23.01.27 9.73zM1696.57 1580.63l-12.26 23.01-29.45.4 12.26-23.01 29.45-.4zM1726.81 1609.42l-12.26 23-9.55 9.87 12.26-23.01 9.55-9.86z"/><path class="cls-13" d="M1707.99 1638.88l-12.26 23-10.08-9.59 12.25-23.01 10.09 9.6zM1697.9 1629.28l-12.25 23.01-29.45.4 12.25-23.01 29.45-.4z"/><path class="cls-13" d="M1709.05 1677.79l-12.25 23.01-1.07-38.92 12.26-23 1.06 38.91zM1728.68 1677.53l-12.26 23-19.62.27 12.25-23.01 19.63-.26zM1669.79 1678.33l-12.26 23-19.63.27 12.26-23.01 19.63-.26z"/><path class="cls-13" d="M1650.16 1678.59l-12.26 23.01-3.19-116.75 12.25-23.01 3.2 116.75z"/><path class="cls-14" d="M1726 1580.23l.8 29.19-9.55 9.86 10.08 9.6 1.34 48.65-19.63.26-1.06-38.91-10.09-9.6-29.45.4 1.34 48.65-19.63.26-3.2-116.75 58.89-.8zm-19.08 19.77l-.27-9.73-10.08-9.6-29.45.4.8 29.19 29.45-.4 9.55-9.86"/></g><g class="cls-2"><path class="cls-13" d="M1851.99 1597.99l-12.26 23.01-1.06-38.92 12.25-23.01 1.07 38.92zM1793.37 1608.51l-12.26 23.01-1.33-48.64 12.25-23.01 1.34 48.64zM1871.89 1607.45l-12.26 23-28.64 29.6 12.26-23.01 28.64-29.59zM1823.62 1637.31l-12.26 23-30.25-28.79 12.26-23.01 30.25 28.8z"/><path class="cls-14" d="M1870.56 1558.8l1.33 48.65-28.64 29.59 1.07 38.91-19.64.27-1.06-38.91-30.25-28.8-1.34-48.64 19.64-.27 1.06 38.93 20.17 19.18 19.09-19.72-1.07-38.92 19.64-.27z"/><path class="cls-13" d="M1844.32 1675.95l-12.26 23.01-19.64.27 12.26-23.01 19.64-.27z"/><path class="cls-13" d="M1824.68 1676.22l-12.26 23.01-1.06-38.92 12.26-23 1.06 38.91z"/></g><g class="cls-2"><path class="cls-13" d="M1963.26 1577.01l-12.26 23.01-49.07.67 12.25-23.01 49.08-.67zM1954.78 1625.79l-12.26 23.01-39.26.53 12.26-23.01 39.26-.53z"/><path class="cls-14" d="M1962.73 1557.55l.53 19.46-49.08.67.8 29.18 39.26-.53.54 19.46-39.26.53.8 29.2 49.07-.67.53 19.45-68.7.94-3.2-116.76 68.71-.93z"/><path class="cls-13" d="M1965.92 1674.3l-12.25 23.01-68.71.93 12.26-23 68.7-.94z"/><path class="cls-13" d="M1897.22 1675.24l-12.26 23-3.2-116.75 12.26-23.01 3.2 116.76z"/></g><g class="cls-2"><path class="cls-13" d="M2046.15 1595.35l-12.25 23.01-20.17-19.19 12.26-23.01 20.16 19.19zM2046.69 1614.81l-12.26 23.01-.53-19.46 12.25-23.01.54 19.46z"/><path class="cls-13" d="M2025.99 1576.16l-12.26 23.01-19.1 19.73 12.26-23.01 19.1-19.73zM2047.22 1634.27l-12.26 23.01-39.26.53 12.25-23.01 39.27-.53zM2067.91 1672.92l-12.26 23.01-19.62.26 12.25-23.01 19.63-.26z"/><path class="cls-13" d="M2048.28 1673.18l-12.25 23.01-1.07-38.91 12.26-23.01 1.06 38.91zM2009.02 1673.72l-12.26 23.01-19.62.26 12.25-23.01 19.63-.26z"/><path class="cls-14" d="M2035.27 1556.56l30.24 28.8 2.4 87.56-19.63.26-1.06-38.91-39.27.53 1.07 38.92-19.63.26-2.39-87.56 28.64-29.59zm11.42 58.25l-.54-19.46-20.15-19.19-19.1 19.73.53 19.45 39.27-.53"/><path class="cls-13" d="M1989.39 1673.98l-12.25 23.01-2.4-87.56 12.26-23.01 2.39 87.56z"/></g><g class="cls-2"><path class="cls-13" d="M2147.87 1584.24l-12.26 23.01-10.08-9.6 12.26-23.01 10.08 9.6zM2148.14 1593.97l-12.26 23.01-.27-9.73 12.26-23.01.27 9.73z"/><path class="cls-13" d="M2137.79 1574.64l-12.26 23.01-29.45.4 12.26-23.01 29.45-.4zM2168.03 1603.42l-12.26 23.01-9.55 9.87 12.26-23.01 9.55-9.87z"/><path class="cls-13" d="M2149.2 1632.88l-12.25 23.01-10.09-9.59 12.26-23.01 10.08 9.59zM2139.12 1623.29l-12.26 23.01-29.45.39 12.26-23 29.45-.4z"/><path class="cls-13" d="M2150.27 1671.8l-12.26 23.01-1.06-38.92 12.25-23.01 1.07 38.92z"/><path class="cls-13" d="M2169.89 1671.53l-12.25 23.01-19.63.27 12.26-23.01 19.62-.27zM2111 1672.33l-12.25 23.01-19.63.27 12.26-23.01 19.62-.27z"/><path class="cls-13" d="M2091.38 1672.6l-12.26 23.01-3.2-116.76 12.26-23 3.2 116.75z"/><path class="cls-14" d="M2167.23 1574.24l.8 29.18-9.55 9.87 10.08 9.6 1.33 48.64-19.62.27-1.07-38.92-10.08-9.59-29.45.4 1.33 48.64-19.62.27-3.2-116.75 58.89-.8zm-19.09 19.76l-.27-9.73-10.08-9.6-29.45.4.8 29.18 29.45-.4 9.55-9.85"/></g><g class="cls-2"><path class="cls-13" d="M2249.86 1582.85l-12.26 23.01-10.08-9.6 12.25-23 10.09 9.59z"/><path class="cls-13" d="M2269.48 1582.59l-12.26 23.01-19.62.26 12.26-23.01 19.62-.26zM2239.77 1573.26l-12.25 23-19.64.27 12.26-23.01 19.63-.26zM2220.14 1573.52l-12.26 23.01-9.55 9.86 12.26-23 9.55-9.87zM2251.19 1631.5l-12.26 23.01-10.08-9.6 12.26-23.01 10.08 9.6zM2191.5 1603.11l-12.26 23-.8-29.18 12.26-23.01.8 29.19zM2251.45 1641.23l-12.25 23.01-.27-9.73 12.26-23.01.26 9.73z"/><path class="cls-13" d="M2241.11 1621.9l-12.26 23.01-29.45.4 12.26-23.01 29.45-.4zM2211.66 1622.3l-12.26 23.01-20.16-19.2 12.26-23 20.16 19.19zM2271.35 1650.69l-12.26 23.01-19.09 19.72 12.26-23.01 19.09-19.72zM2192.83 1651.76l-12.26 23.01-.26-9.73 12.26-23.01.26 9.73zM2212.99 1670.95l-12.26 23-20.16-19.18 12.26-23.01 20.16 19.19z"/><path class="cls-13" d="M2252.26 1670.41l-12.26 23.01-39.27.53 12.26-23 39.27-.54z"/><path class="cls-14" d="M2249.06 1553.66l20.15 19.2.27 9.73-19.62.26-10.09-9.59-19.63.26-9.55 9.87.27 9.73 10.08 9.59 29.45-.4 20.16 19.19.8 29.19-19.09 19.72-39.27.54-20.16-19.19-.26-9.73 19.62-.27 10.08 9.6 19.64-.27 9.54-9.86-.26-9.73-10.08-9.6-29.45.4-20.16-19.19-.8-29.19 19.09-19.73 39.27-.53z"/></g><g class="cls-2"><path class="cls-13" d="M2424.64 1590.21l-12.25 23.01-20.17-19.19 12.26-23.01 20.16 19.19z"/><path class="cls-13" d="M2404.48 1571.02l-12.26 23.01-29.44.4 12.26-23.01 29.44-.4z"/><path class="cls-13" d="M2375.04 1571.42l-12.26 23.01-19.1 19.72 12.26-23 19.1-19.73zM2425.71 1629.13l-12.26 23.01-1.06-38.92 12.25-23.01 1.07 38.92zM2445.61 1638.59l-12.26 23.01-28.65 29.58 12.26-23 28.65-29.59zM2337.64 1640.06l-12.25 23.01-1.6-58.38 12.26-23.01 1.59 58.38z"/><path class="cls-14" d="M2413.76 1551.42l30.25 28.8 1.6 58.37-28.61 29.59-49.08.66-30.24-28.78-1.59-58.38 28.64-29.59zm11.95 77.71l-1.07-38.92-20.16-19.21-29.44.4-19.1 19.73 1.06 38.91 20.17 19.2 29.44-.4 19.1-19.73"/><path class="cls-13" d="M2367.88 1668.84l-12.25 23.01-30.24-28.78 12.25-23.01 30.24 28.78z"/><path class="cls-13" d="M2416.96 1668.18l-12.26 23-49.07.67 12.25-23.01 49.08-.66z"/></g><g class="cls-2"><path class="cls-13" d="M2535.91 1569.23l-12.25 23.01-49.08.67 12.26-23.01 49.07-.67zM2527.43 1618.01l-12.26 23.01-39.26.53 12.26-23 39.26-.54z"/><path class="cls-14" d="M2535.38 1549.77l.53 19.46-49.07.67.8 29.18 39.25-.53.54 19.46-39.26.54 1.33 48.64-19.63.27-3.2-116.76 68.71-.93z"/><path class="cls-13" d="M2489.5 1667.19l-12.25 23.01-19.64.27 12.26-23.01 19.63-.27zM2469.87 1667.46l-12.26 23.01-3.2-116.76 12.26-23.01 3.2 116.76z"/></g><g class="cls-2"><path class="cls-13" d="M2681.26 1576.99L2669 1600l-28.65 29.59 12.26-23.01 28.65-29.59z"/><path class="cls-13" d="M2652.61 1606.58l-12.26 23.01-30.24-28.79 12.26-23.01 30.24 28.79zM2703.29 1664.29l-12.26 23.01-19.63.26 12.26-23.01 19.63-.26z"/><path class="cls-13" d="M2683.66 1664.55l-12.26 23.01-2.4-87.56 12.26-23.01 2.4 87.56z"/><path class="cls-14" d="M2700.09 1547.53l3.2 116.76-19.63.26-2.4-87.56-28.65 29.59-30.24-28.79 2.39 87.56-19.63.27-3.2-116.75 19.64-.27 30.24 28.79 28.65-29.59 19.63-.27z"/><path class="cls-13" d="M2624.76 1665.35l-12.25 23.01-19.63.27 12.25-23.01 19.63-.27z"/><path class="cls-13" d="M2605.13 1665.62l-12.25 23.01-3.2-116.75 12.25-23.01 3.2 116.75z"/></g><g class="cls-2"><path class="cls-13" d="M2783.51 1585.34l-12.26 23.01-20.16-19.2 12.25-23.01 20.17 19.2z"/><path class="cls-13" d="M2784.04 1604.79l-12.26 23.01-.53-19.45 12.26-23.01.53 19.45zM2763.34 1566.14l-12.25 23.01-19.1 19.73 12.26-23.01 19.09-19.73z"/><path class="cls-13" d="M2784.57 1624.25l-12.25 23.01-39.26.54 12.26-23.01 39.25-.54zM2805.27 1662.9l-12.25 23.01-19.64.27 12.26-23.01 19.63-.27z"/><path class="cls-13" d="M2785.64 1663.17l-12.26 23.01-1.06-38.92 12.25-23.01 1.07 38.92zM2746.38 1663.7l-12.25 23.01-19.64.27 12.26-23.01 19.63-.27z"/><path class="cls-14" d="M2772.63 1546.55l30.25 28.79 2.39 87.56-19.63.27-1.06-38.92-39.26.54 1.06 38.91-19.63.27-2.4-87.56 28.64-29.59zm11.41 58.24l-.53-19.45-20.17-19.2-19.09 19.73.53 19.46 39.26-.54"/><path class="cls-13" d="M2726.75 1663.97l-12.26 23.01-2.4-87.56 12.26-23.01 2.4 87.56z"/></g><g class="cls-2"><path class="cls-13" d="M2885.23 1574.22l-12.26 23.01-10.08-9.6 12.25-23 10.09 9.59zM2885.49 1583.95l-12.25 23.01-.27-9.73 12.26-23.01.26 9.73z"/><path class="cls-13" d="M2875.14 1564.63l-12.25 23-29.44.4 12.25-23 29.44-.4zM2905.39 1593.41l-12.25 23.01-9.55 9.86 12.25-23.01 9.55-9.86z"/><path class="cls-13" d="M2886.56 1622.87l-12.26 23.01-10.08-9.6 12.26-23.01 10.08 9.6z"/><path class="cls-13" d="M2876.48 1613.27l-12.26 23.01-29.44.4 12.26-23.01 29.44-.4zM2887.63 1661.78l-12.26 23.01-1.07-38.91 12.26-23.01 1.07 38.91z"/><path class="cls-13" d="M2907.26 1661.52l-12.26 23.01-19.63.26 12.26-23.01 19.63-.26zM2848.37 1662.32l-12.26 23.01-19.63.26 12.26-23.01 19.63-.26z"/><path class="cls-13" d="M2828.74 1662.58l-12.26 23.01-3.2-116.75 12.26-23.01 3.2 116.75z"/><path class="cls-14" d="M2904.59 1564.23l.8 29.18-9.55 9.86 10.09 9.6 1.33 48.65-19.63.26-1.07-38.91-10.08-9.6-29.44.4 1.33 48.65-19.63.26-3.2-116.75 58.89-.8zm-19.1 19.72l-.26-9.73-10.09-9.59-29.44.4.8 29.18 29.44-.4 9.55-9.86"/></g><g class="cls-2"><path class="cls-14" d="M2947.16 1544.18l3.19 116.75-19.63.27-3.2-116.76 19.64-.26z"/><path class="cls-13" d="M2950.35 1660.93l-12.25 23.01-19.64.27 12.26-23.01 19.63-.27zM2930.72 1661.2l-12.26 23.01-3.19-116.76 12.25-23.01 3.2 116.76z"/></g><g class="cls-2"><path class="cls-13" d="M3060.01 1581.58l-12.25 23.01-20.16-19.19 12.26-23.01 20.15 19.19zM3039.86 1562.39l-12.26 23.01-29.45.4 12.26-23.01 29.45-.4zM3010.41 1562.79l-12.26 23.01-19.09 19.73 12.26-23.01 19.09-19.73z"/><path class="cls-13" d="M3061.08 1620.5l-12.26 23.01-1.06-38.92 12.25-23.01 1.07 38.92zM3080.98 1629.96l-12.26 23.01-28.64 29.59 12.26-23.01 28.64-29.59zM2973.01 1631.43l-12.25 23.01-1.6-58.38 12.26-23.01 1.59 58.38z"/><path class="cls-14" d="M3049.14 1542.79l30.24 28.8L3081 1630l-28.64 29.59-49.08.66-30.28-28.82-1.6-58.38 28.64-29.59zm11.94 77.71l-1.07-38.92-20.15-19.19-29.45.4-19.09 19.73 1.06 38.91 20.16 19.2 29.45-.4 19.09-19.73"/><path class="cls-13" d="M3003.26 1660.21l-12.26 23.01-30.24-28.78 12.25-23.01 30.25 28.78z"/><path class="cls-13" d="M3052.34 1659.55l-12.26 23.01-49.08.66 12.26-23.01 49.08-.66z"/></g><g class="cls-2"><path class="cls-13" d="M3224.46 1569.62l-12.26 23-28.64 29.59 12.26-23.01 28.64-29.58z"/><path class="cls-13" d="M3195.82 1599.2l-12.26 23.01-30.25-28.79 12.26-23 30.25 28.78zM3246.49 1656.91l-12.25 23.01-19.64.26 12.26-23 19.63-.27z"/><path class="cls-13" d="M3226.86 1657.18l-12.26 23-2.4-87.56 12.26-23 2.4 87.56z"/><path class="cls-14" d="M3243.29 1540.16l3.2 116.75-19.63.27-2.4-87.56-28.64 29.58-30.25-28.78 2.4 87.56-19.63.26-3.2-116.75 19.63-.27 30.25 28.8 28.64-29.6 19.63-.26z"/><path class="cls-13" d="M3167.97 1657.98l-12.26 23-19.63.27 12.26-23.01 19.63-.26z"/><path class="cls-13" d="M3148.34 1658.24l-12.26 23.01-3.2-116.75 12.26-23.01 3.2 116.75z"/></g><g class="cls-2"><path class="cls-13" d="M3326.71 1577.96l-12.26 23.01-20.16-19.19 12.26-23.01 20.16 19.19zM3327.24 1597.41l-12.25 23.01-.54-19.45 12.26-23.01.53 19.45z"/><path class="cls-13" d="M3306.55 1558.77l-12.26 23.01-19.09 19.72 12.25-23.01 19.1-19.72zM3327.78 1616.88l-12.26 23-39.26.54 12.26-23.01 39.26-.53zM3348.48 1655.53l-12.26 23-19.63.27 12.25-23.01 19.64-.26z"/><path class="cls-13" d="M3328.84 1655.79l-12.25 23.01-1.07-38.92 12.26-23 1.06 38.91zM3289.59 1656.33l-12.26 23-19.63.27 12.25-23.01 19.64-.26z"/><path class="cls-14" d="M3315.83 1539.17l30.25 28.79 2.4 87.56-19.64.27-1.06-38.91-39.26.53 1.07 38.91-19.64.27-2.4-87.56 28.65-29.59zm11.41 58.24l-.53-19.45-20.16-19.19-19.1 19.72.55 19.51 39.25-.54"/><path class="cls-13" d="M3269.95 1656.59l-12.25 23.01-2.4-87.56 12.25-23.01 2.4 87.56z"/></g><g class="cls-2"><path class="cls-13" d="M3447.53 1547.12l-12.26 23.01-38.2 39.44 12.26-23 38.2-39.45zM3409.33 1586.57l-12.26 23-4.77 4.94 12.26-23.01 4.77-4.93zM3450.46 1654.14l-12.26 23.01-9.81.13 12.25-23.01 9.82-.13z"/><path class="cls-13" d="M3440.64 1654.27l-12.25 23.01-50.41-47.98 12.26-23.01 50.4 47.98z"/><path class="cls-14" d="M3447.26 1537.39l.27 9.73-38.2 39.45-4.77 4.93 45.37 43.19.53 19.45-9.82.13-50.4-47.98 1.33 48.65-19.63.27-3.2-116.76 19.63-.26 1.07 38.92 38.19-39.46 19.63-.26z"/><path class="cls-13" d="M3391.57 1654.94l-12.25 23.01-19.64.26 12.26-23 19.63-.27zM3371.94 1655.21l-12.26 23-3.2-116.75 12.26-23.01 3.2 116.76z"/></g><g class="cls-2"><path class="cls-13" d="M3539.97 1555.6l-12.26 23-49.08.67 12.26-23.01 49.08-.66zM3531.48 1604.38l-12.26 23-39.25.54 12.25-23.01 39.26-.53z"/><path class="cls-14" d="M3539.43 1536.13l.54 19.47-49.08.66.8 29.19 39.26-.54.53 19.47-39.26.53.8 29.19 49.08-.67.53 19.46-68.71.93-3.2-116.75 68.71-.94z"/><path class="cls-13" d="M3542.63 1652.89l-12.26 23.01-68.7.93 12.25-23.01 68.71-.93zM3473.92 1653.82l-12.25 23.01-3.2-116.75 12.25-23.01 3.2 116.75z"/></g><g class="cls-2"><path class="cls-13" d="M3622.58 1564.21l-12.25 23.01-10.09-9.6 12.26-23.01 10.08 9.6z"/><path class="cls-13" d="M3622.85 1573.94l-12.26 23.01-.26-9.73 12.25-23.01.27 9.73zM3612.5 1554.61l-12.26 23.01-29.44.4 12.26-23.01 29.44-.4zM3642.75 1583.39l-12.26 23.01-9.55 9.87 12.26-23.01 9.55-9.87z"/><path class="cls-13" d="M3623.92 1612.85l-12.26 23.01-10.08-9.59 12.25-23.01 10.09 9.59z"/><path class="cls-13" d="M3613.83 1603.26l-12.25 23.01-29.44.39 12.25-23 29.44-.4zM3624.98 1651.77l-12.26 23.01-1.06-38.92 12.26-23.01 1.06 38.92zM3644.61 1651.5l-12.25 23.01-19.64.27 12.26-23.01 19.63-.27zM3585.72 1652.3l-12.25 23.01-19.64.27 12.26-23.01 19.63-.27z"/><path class="cls-13" d="M3566.09 1652.57l-12.26 23.01-3.19-116.76 12.25-23 3.2 116.75z"/><path class="cls-14" d="M3642 1554.21l.8 29.18-9.55 9.87 10.08 9.6 1.33 48.64-19.63.27-1.06-38.92-10.09-9.59-29.44.4 1.33 48.64-19.63.27-3.2-116.75 58.89-.8zm-19.1 19.73l-.27-9.73-10.08-9.6-29.44.4.8 29.18 29.44-.4 9.55-9.85"/></g></g></g></g></svg>